<?xml version="1.0" encoding="utf-8"?>
<!-- Generator: Adobe Illustrator 17.1.0, SVG Export Plug-In . SVG Version: 6.00 Build 0)  -->
<!DOCTYPE svg PUBLIC "-//W3C//DTD SVG 1.1//EN" "http://www.w3.org/Graphics/SVG/1.1/DTD/svg11.dtd">
<svg version="1.1" id="Layer_1" xmlns="http://www.w3.org/2000/svg" xmlns:xlink="http://www.w3.org/1999/xlink" x="0px" y="0px"
	 viewBox="846.4 415 250 250" enable-background="new 846.4 415 250 250" xml:space="preserve">
<g>
	<defs>
		<filter id="Adobe_OpacityMaskFilter" filterUnits="userSpaceOnUse" x="883.3" y="459.7" width="199.9" height="199.9">
			<feColorMatrix  type="matrix" values="1 0 0 0 0  0 1 0 0 0  0 0 1 0 0  0 0 0 1 0"/>
		</filter>
	</defs>
	<mask maskUnits="userSpaceOnUse" x="883.3" y="459.7" width="199.9" height="199.9" id="SVGID_272_">
		<g filter="url(#Adobe_OpacityMaskFilter)">
			
				<radialGradient id="SVGID_1_" cx="130.3873" cy="950.4438" r="23.4977" gradientTransform="matrix(4.32 0 0 -4.32 420.0001 4665.6001)" gradientUnits="userSpaceOnUse">
				<stop  offset="0" style="stop-color:#FFFFFF"/>
				<stop  offset="8.943853e-02" style="stop-color:#F2F2F2"/>
				<stop  offset="0.2569" style="stop-color:#CECECE"/>
				<stop  offset="0.4843" style="stop-color:#949494"/>
				<stop  offset="0.7596" style="stop-color:#464646"/>
				<stop  offset="0.9862" style="stop-color:#000000"/>
			</radialGradient>
			<path fill="url(#SVGID_1_)" d="M1084.8,559.7c0,56.1-45.5,101.5-101.5,101.5c-56.1,0-101.5-45.5-101.5-101.5
				s45.5-101.5,101.5-101.5C1039.3,458.2,1084.8,503.6,1084.8,559.7z"/>
		</g>
	</mask>
	<circle mask="url(#SVGID_272_)" cx="983.3" cy="559.7" r="99.9"/>
	<g>
		<g>
			<path fill="#BD7D00" d="M1061.2,554l-46.1-86.3c-4-7.5-13.3-10.3-20.7-6.3l-102.9,55c-7.5,4-10.3,13.3-6.3,20.7l46.1,86.3
				c4,7.5,13.3,10.3,20.7,6.3l102.9-55C1062.4,570.8,1065.2,561.4,1061.2,554z"/>
			
				<linearGradient id="SVGID_2_" gradientUnits="userSpaceOnUse" x1="773.2743" y1="-488.3296" x2="773.2743" y2="-544.2754" gradientTransform="matrix(2.0352 3.8107 3.8107 -2.0352 1338.3796 -3436.5979)">
				<stop  offset="0" style="stop-color:#FFE385"/>
				<stop  offset="0.3136" style="stop-color:#FFD86B"/>
				<stop  offset="0.9811" style="stop-color:#FEBB29"/>
				<stop  offset="1" style="stop-color:#FEBA27"/>
			</linearGradient>
			<path fill="url(#SVGID_2_)" d="M951.3,628.1c-6.7,3.5-15,1.1-18.6-5.7l-45.9-86c-3.5-6.7-1.1-15,5.7-18.6L995.3,463
				c6.7-3.5,15-1.1,18.7,5.7l45.9,86c3.5,6.7,1.1,15-5.7,18.6L951.3,628.1z"/>
			<circle fill="#FFE98C" cx="957.1" cy="545" r="13.5"/>
			<circle fill="#FFE98C" cx="990.9" cy="544.3" r="8"/>
			<circle fill="#FFE98C" cx="961.6" cy="589.9" r="13.5"/>
			<circle fill="#FFE98C" cx="989.7" cy="506.7" r="13.5"/>
			<circle fill="#FFE98C" cx="1031.5" cy="560.3" r="12.9"/>
			<path fill="#FFE98C" d="M934.9,495.2l-28.5,15.2c5.2,4.7,13.1,5.9,19.5,2.4C932.5,509.3,935.9,502.2,934.9,495.2z"/>
			<path fill="#FFE98C" d="M999.4,583.7c-8.3,4.4-11.7,14.5-7.9,23l31.3-16.8C1017.9,582.1,1007.7,579.2,999.4,583.7z"/>
			<path fill="#FFE98C" d="M969.9,480.3c-0.6-1.1-1.3-1.9-2.2-2.6l-12.9,6.9c0.1,1.1,0.4,2.3,0.9,3.2c2.1,3.9,6.9,5.4,10.8,3.2
				C970.5,489,972,484.2,969.9,480.3z"/>
			<circle fill="#FFE98C" cx="912.7" cy="541.4" r="12.9"/>
			<path fill="#FFE98C" d="M1019.8,511c3.4,6.4,12.9,9.7,20.1,6.7l-14.6-27.3C1018.5,495.9,1016.5,504.6,1019.8,511z"/>
			
				<linearGradient id="SVGID_3_" gradientUnits="userSpaceOnUse" x1="771.3799" y1="-508.0975" x2="771.3799" y2="-515.5693" gradientTransform="matrix(2.0352 3.8107 3.8107 -2.0352 1338.3796 -3436.5979)">
				<stop  offset="0" style="stop-color:#EBB02E"/>
				<stop  offset="0.5143" style="stop-color:#F5C248"/>
				<stop  offset="1" style="stop-color:#FFD564"/>
			</linearGradient>
			<circle fill="url(#SVGID_3_)" cx="959.6" cy="543.6" r="13.5"/>
			
				<linearGradient id="SVGID_4_" gradientUnits="userSpaceOnUse" x1="774.9531" y1="-502.4607" x2="774.9531" y2="-506.341" gradientTransform="matrix(2.0352 3.8107 3.8107 -2.0352 1338.3796 -3436.5979)">
				<stop  offset="0" style="stop-color:#EBB02E"/>
				<stop  offset="0.5143" style="stop-color:#F5C248"/>
				<stop  offset="1" style="stop-color:#FFD564"/>
			</linearGradient>
			<circle fill="url(#SVGID_4_)" cx="993.5" cy="543" r="8"/>
			
				<linearGradient id="SVGID_5_" gradientUnits="userSpaceOnUse" x1="781.0685" y1="-512.0816" x2="781.0685" y2="-520.1499" gradientTransform="matrix(2.0352 3.8107 3.8107 -2.0352 1338.3796 -3436.5979)">
				<stop  offset="0" style="stop-color:#EBB02E"/>
				<stop  offset="0.5143" style="stop-color:#F5C248"/>
				<stop  offset="1" style="stop-color:#FFD564"/>
			</linearGradient>
			<path fill="url(#SVGID_5_)" d="M970.5,600.5c6.6-3.5,9-11.7,5.6-18.3c-3.5-6.6-11.7-9-18.3-5.6c-6.6,3.5-9,11.7-5.6,18.3
				S963.9,604.1,970.5,600.5z"/>
			
				<linearGradient id="SVGID_6_" gradientUnits="userSpaceOnUse" x1="767.1059" y1="-497.2837" x2="767.1059" y2="-503.8497" gradientTransform="matrix(2.0352 3.8107 3.8107 -2.0352 1338.3796 -3436.5979)">
				<stop  offset="0" style="stop-color:#EBB02E"/>
				<stop  offset="0.5143" style="stop-color:#F5C248"/>
				<stop  offset="1" style="stop-color:#FFD564"/>
			</linearGradient>
			<circle fill="url(#SVGID_6_)" cx="992.1" cy="505.3" r="13.5"/>
			
				<linearGradient id="SVGID_7_" gradientUnits="userSpaceOnUse" x1="784.0751" y1="-523.5654" x2="784.0751" y2="-527.3262" gradientTransform="matrix(2.0352 3.8107 3.8107 -2.0352 1338.3796 -3436.5979)">
				<stop  offset="0" style="stop-color:#EBB02E"/>
				<stop  offset="0.5143" style="stop-color:#F5C248"/>
				<stop  offset="1" style="stop-color:#FFD564"/>
			</linearGradient>
			<path fill="url(#SVGID_7_)" d="M941,615.6c-2.1-3.9-6.9-5.4-10.8-3.2c-0.8,0.4-1.5,1-2.1,1.6l4.6,8.6c1,1.8,2.3,3.2,3.8,4.4
				c0.4-0.1,0.8-0.3,1.2-0.5C941.6,624.4,943,619.5,941,615.6z"/>
			
				<linearGradient id="SVGID_8_" gradientUnits="userSpaceOnUse" x1="782.6217" y1="-494.7285" x2="782.6217" y2="-500.9958" gradientTransform="matrix(2.0352 3.8107 3.8107 -2.0352 1338.3796 -3436.5979)">
				<stop  offset="0" style="stop-color:#EBB02E"/>
				<stop  offset="0.5143" style="stop-color:#F5C248"/>
				<stop  offset="1" style="stop-color:#FFD564"/>
			</linearGradient>
			<circle fill="url(#SVGID_8_)" cx="1034" cy="558.9" r="12.9"/>
			
				<linearGradient id="SVGID_9_" gradientUnits="userSpaceOnUse" x1="760.1248" y1="-510.3102" x2="760.1248" y2="-520.9809" gradientTransform="matrix(2.0352 3.8107 3.8107 -2.0352 1338.3796 -3436.5979)">
				<stop  offset="0" style="stop-color:#EBB02E"/>
				<stop  offset="0.5143" style="stop-color:#F5C248"/>
				<stop  offset="1" style="stop-color:#FFD564"/>
			</linearGradient>
			<path fill="url(#SVGID_9_)" d="M937.4,493.9L909,509.1c5.2,4.7,13.1,5.9,19.5,2.4C935.1,507.9,938.4,500.8,937.4,493.9z"/>
			
				<linearGradient id="SVGID_10_" gradientUnits="userSpaceOnUse" x1="785.8289" y1="-502.6598" x2="785.8289" y2="-511.2905" gradientTransform="matrix(2.0352 3.8107 3.8107 -2.0352 1338.3796 -3436.5979)">
				<stop  offset="0" style="stop-color:#EBB02E"/>
				<stop  offset="0.5143" style="stop-color:#F5C248"/>
				<stop  offset="1" style="stop-color:#FFD564"/>
			</linearGradient>
			<path fill="url(#SVGID_10_)" d="M1001.9,582.4c-8.3,4.4-11.7,14.5-7.9,23l31.3-16.8C1020.5,580.7,1010.3,577.9,1001.9,582.4z"/>
			
				<linearGradient id="SVGID_11_" gradientUnits="userSpaceOnUse" x1="760.1151" y1="-501.6072" x2="760.1151" y2="-505.4875" gradientTransform="matrix(2.0352 3.8107 3.8107 -2.0352 1338.3796 -3436.5979)">
				<stop  offset="0" style="stop-color:#EBB02E"/>
				<stop  offset="0.5143" style="stop-color:#F5C248"/>
				<stop  offset="1" style="stop-color:#FFD564"/>
			</linearGradient>
			<path fill="url(#SVGID_11_)" d="M972.5,478.9c-0.6-1.1-1.3-1.9-2.2-2.6l-12.9,6.9c0.1,1.1,0.4,2.3,0.9,3.2
				c2.1,3.9,7,5.4,10.8,3.2C973.1,487.6,974.5,482.8,972.5,478.9z"/>
			
				<linearGradient id="SVGID_12_" gradientUnits="userSpaceOnUse" x1="765.8395" y1="-516.9254" x2="765.8395" y2="-524.6172" gradientTransform="matrix(2.0352 3.8107 3.8107 -2.0352 1338.3796 -3436.5979)">
				<stop  offset="0" style="stop-color:#EBB02E"/>
				<stop  offset="0.5143" style="stop-color:#F5C248"/>
				<stop  offset="1" style="stop-color:#FFD564"/>
			</linearGradient>
			<circle fill="url(#SVGID_12_)" cx="915.2" cy="540.1" r="13"/>
			
				<linearGradient id="SVGID_13_" gradientUnits="userSpaceOnUse" x1="773.3788" y1="-523.6757" x2="773.3788" y2="-527.699" gradientTransform="matrix(2.0352 3.8107 3.8107 -2.0352 1338.3796 -3436.5979)">
				<stop  offset="0" style="stop-color:#EBB02E"/>
				<stop  offset="0.5143" style="stop-color:#F5C248"/>
				<stop  offset="1" style="stop-color:#FFD564"/>
			</linearGradient>
			<path fill="url(#SVGID_13_)" d="M922.5,573.2c-3.5-6.6-11.7-9-18.3-5.6c-0.2,0.1-0.4,0.2-0.6,0.4l12.7,23.8
				c0.2-0.1,0.4-0.2,0.6-0.3C923.5,588,926,579.8,922.5,573.2z"/>
			
				<linearGradient id="SVGID_14_" gradientUnits="userSpaceOnUse" x1="771.2921" y1="-492.0848" x2="771.2921" y2="-494.9311" gradientTransform="matrix(2.0352 3.8107 3.8107 -2.0352 1338.3796 -3436.5979)">
				<stop  offset="0" style="stop-color:#EBB02E"/>
				<stop  offset="0.5143" style="stop-color:#F5C248"/>
				<stop  offset="1" style="stop-color:#FFD564"/>
			</linearGradient>
			<path fill="url(#SVGID_14_)" d="M1022.3,509.6c3.4,6.4,10.7,9.3,17.4,7.7l-14-26.3C1020.5,495.6,1018.9,503.3,1022.3,509.6z"/>
		</g>
		<g>
			<circle fill="#FF7D40" cx="995.3" cy="568.5" r="57.6"/>
			<circle fill="#F82100" cx="995.3" cy="568.5" r="56.8"/>
			
				<radialGradient id="SVGID_15_" cx="133.1598" cy="948.3986" r="12.7942" gradientTransform="matrix(4.32 0 0 -4.32 420.0001 4665.6001)" gradientUnits="userSpaceOnUse">
				<stop  offset="0" style="stop-color:#FC9F77"/>
				<stop  offset="0.1263" style="stop-color:#FCB68F"/>
				<stop  offset="0.254" style="stop-color:#FCAE86"/>
				<stop  offset="0.4604" style="stop-color:#FB996E"/>
				<stop  offset="0.4847" style="stop-color:#FB966B"/>
				<stop  offset="0.6121" style="stop-color:#FC7950"/>
				<stop  offset="0.7251" style="stop-color:#FD673E"/>
				<stop  offset="0.8063" style="stop-color:#FD6138"/>
				<stop  offset="0.8662" style="stop-color:#FD6A41"/>
				<stop  offset="0.9644" style="stop-color:#FE815A"/>
				<stop  offset="0.9954" style="stop-color:#FE8A63"/>
			</radialGradient>
			<circle fill="url(#SVGID_15_)" cx="995.3" cy="568.5" r="55.3"/>
			<path fill="#FF8D69" d="M1009.4,523c-3.9-0.9-7.6-0.9-7.9,1.8c-0.3,2.7-1.7,13.5-2.6,23.5c0.4,3.2,2.3,4.8,3.1,1.9
				c1.1-3.5,3.3-9.4,4.4-6.3c1,3.1,3,5.3,5.6,5.1c2.6-0.2,2,1.2,2.1,3c0.1,1.8,0.2,3.4,1.1,5.1c1,1.5,2.4,2.5,3.8,3.4
				c1.6,1.1,3,1.3,1.6,3.3c-1.5,2.1-0.6,4.9,1.6,7.4c2.2,2.5-4.1,1.5-7.7,0.5c-2.8-0.8-2.7,1.6-0.2,3.5c9.1,4.2,19.4,8.5,22,9.6
				c2.7,1.1,4.5-2.7,5.7-6.8c0.6-3,1-6.2,1-9.4C1043,547.1,1028.8,529.1,1009.4,523z M1030,595.8c-2.3-1.7-11.3-8.4-19.5-14.2
				c-2.8-1-4.8-0.1-2.7,2c2.6,2.7,6.6,7.6,3.3,7c-3.2-0.7-6.1,0-7.2,2.3s-2,1.1-3.6,0.3c-1.6-0.8-3.1-1.5-4.9-1.6
				c-1.8,0.1-3.3,0.9-4.9,1.6c-1.7,0.8-2.6,2.1-3.6-0.3c-1.1-2.3-3.9-2.9-7.2-2.3c-3.2,0.7,0.8-4.2,3.3-7c2.1-2.2,0-3-2.9-2
				c-8.2,5.8-17.2,12.5-19.4,14.1c-2.1,1.6-0.4,4.6,2.3,7.6c8.5,8,19.9,12.9,32.5,12.9c12.3,0,23.6-4.7,32-12.4
				C1030.1,600.8,1032.2,597.5,1030,595.8z M975.9,571.7c-3.5,0.9-9.8,2-7.7-0.5c2.2-2.5,3-5.3,1.6-7.4s0-2.3,1.6-3.3
				c1.5-1,2.8-2,3.8-3.4c0.8-1.6,0.9-3.3,1.1-5.1c0.1-1.9-0.5-3.2,2.1-3c2.6,0.2,4.5-2,5.6-5.1c1-3.1,3.3,2.7,4.4,6.3
				c0.9,2.9,2.7,1.4,3.1-1.8c-0.9-9.9-2.3-20.7-2.6-23.5c-0.3-2.7-3.9-2.6-7.9-1.8c-19.4,6.1-33.5,24.2-33.5,45.6
				c0,3.5,0.4,7.1,1.2,10.4c1.2,3.8,2.9,6.9,5.4,5.9c2.7-1.1,13-5.5,22.2-9.7C978.6,573.1,978.9,570.9,975.9,571.7z"/>
			
				<radialGradient id="SVGID_16_" cx="133.1712" cy="948.2217" r="10.5643" gradientTransform="matrix(4.32 0 0 -4.32 420.0001 4665.6001)" gradientUnits="userSpaceOnUse">
				<stop  offset="0.2795" style="stop-color:#BA0000"/>
				<stop  offset="0.4586" style="stop-color:#BE0300"/>
				<stop  offset="0.6496" style="stop-color:#CB0C00"/>
				<stop  offset="0.8454" style="stop-color:#E01A00"/>
				<stop  offset="0.866" style="stop-color:#E31C00"/>
				<stop  offset="0.9427" style="stop-color:#EC2A0C"/>
				<stop  offset="0.9977" style="stop-color:#F43717"/>
			</radialGradient>
			<path fill="url(#SVGID_16_)" d="M1008.9,524.5c-3.7-0.8-7.3-0.9-7.6,1.7c-0.3,2.7-1.6,13.1-2.5,22.6c0.4,3.1,2.3,4.6,3,1.8
				c1-3.4,3.2-9.1,4.2-6.1c1,3,2.9,5.1,5.4,4.9c2.5-0.2,1.9,1.2,2,2.9c0.1,1.7,0.2,3.3,1,4.9c1,1.5,2.4,2.5,3.7,3.3
				c1.5,1,2.9,1.2,1.6,3.2c-1.4,2-0.6,4.8,1.5,7.2s-3.9,1.4-7.4,0.5c-2.7-0.7-2.6,1.5-0.2,3.4c8.8,4,18.8,8.2,21.2,9.3
				c2.6,1.1,4.3-2.6,5.5-6.6c0.6-2.9,0.9-6,0.9-9.1C1041.3,547.9,1027.6,530.4,1008.9,524.5z M1028.7,594.9
				c-2.2-1.7-10.9-8.1-18.8-13.7c-2.7-1-4.6-0.1-2.7,2c2.5,2.6,6.3,7.4,3.2,6.7c-3.1-0.7-5.9,0-7,2.3c-1.1,2.3-2,1.1-3.5,0.3
				c-1.5-0.7-3-1.5-4.7-1.6c-1.8,0.1-3.2,0.8-4.7,1.6c-1.7,0.8-2.6,2-3.5-0.3c-1.1-2.3-3.8-2.8-7-2.3c-3.1,0.7,0.7-4.1,3.2-6.7
				c2-2.1,0-2.9-2.8-1.9c-8,5.6-16.6,12.1-18.8,13.6c-2.1,1.5-0.3,4.4,2.2,7.3c8.2,7.7,19.2,12.4,31.4,12.4
				c11.9,0,22.7-4.5,30.9-11.9C1028.9,599.7,1030.9,596.5,1028.7,594.9z M976.6,571.6c-3.4,0.9-9.5,1.9-7.4-0.5
				c2.1-2.4,2.9-5.1,1.5-7.2c-1.5-2,0-2.2,1.6-3.2c1.4-1,2.7-1.9,3.7-3.3c0.8-1.6,0.9-3.2,1-4.9c0.1-1.8-0.5-3.1,2-2.9
				c2.5,0.2,4.4-1.9,5.4-4.9c1-3,3.2,2.7,4.2,6.1c0.8,2.8,2.7,1.4,3-1.8c-0.9-9.5-2.2-20-2.5-22.7c-0.3-2.6-3.8-2.6-7.6-1.7
				c-18.8,5.8-32.3,23.4-32.3,44c0,3.4,0.4,6.8,1.1,10c1.2,3.6,2.8,6.7,5.2,5.7c2.6-1.1,12.6-5.3,21.4-9.3
				C979.2,573,979.3,570.9,976.6,571.6z"/>
			
				<linearGradient id="SVGID_17_" gradientUnits="userSpaceOnUse" x1="134.8215" y1="943.2697" x2="128.2574" y2="964.0468" gradientTransform="matrix(4.32 0 0 -4.32 420.0001 4665.6001)">
				<stop  offset="0" style="stop-color:#FFBD94"/>
				<stop  offset="0.1791" style="stop-color:#FFB48B"/>
				<stop  offset="0.4694" style="stop-color:#FE9C73"/>
				<stop  offset="0.8327" style="stop-color:#FD754C"/>
				<stop  offset="1" style="stop-color:#FD6138"/>
			</linearGradient>
			<path fill="url(#SVGID_17_)" d="M1015.3,560c-0.7-0.6-1.3-1.2-1.8-2.1l-0.1-0.1c-0.9-1.8-1-3.7-1.1-5.4c0-0.4,0-0.7,0-1.1
				c0-0.2,0-0.6,0-0.8c-0.1,0-0.4,0-0.6,0c-2.7,0.2-5.1-1.7-6.4-5.1c-0.3,0.6-0.8,1.6-1.3,2.9c-0.2,0.6-0.4,1.2-0.6,1.8
				c-0.1,0.2-0.1,0.5-0.2,0.7c-0.6,2.1-1.8,2.4-2.4,2.4c-1.6,0-2.7-1.7-3-4.4v-0.1v-0.1c0.8-9,2.1-18.8,2.5-22.1l0.3-2.1
				c0.2-1.3,1-3.3,5-3.3c1.2,0,2.7,0.2,4.3,0.6h0.1c14.7,4.6,25.9,15.5,31.1,29.3c0.4,1.1,1,2.7,3.4,1.2c1.7-1,2.4-1.9,1.8-3.6
				c-8-20.3-27.8-34.8-51-34.8c-30.2,0-54.7,24.4-54.7,54.7c0,8.6,2.1,16.9,5.6,24.2c2,3.8,18.9-6.4,39.7-17.8
				c9-5,18.5-8.8,26.9-11.8c0.9-0.3,2.5-0.9,2.9-1.6C1016.1,561,1015.6,560.3,1015.3,560z M978.9,550.7c-0.3,0-0.5,0-0.6,0
				c0,0.2,0,0.5,0,0.8c0,0.3,0,0.7,0,1.1c-0.1,1.7-0.2,3.5-1.1,5.4l-0.1,0.1c-1.1,1.7-2.7,2.7-4,3.7c-0.3,0.2-0.6,0.4-0.9,0.6
				c-0.2,0.1-0.5,0.3-0.6,0.4c0,0.1,0.1,0.3,0.3,0.5c1.6,2.2,1.2,5.3-1.1,8.1c0.4,0,0.9,0,1.4-0.1c1.1-0.2,2.5-0.5,3.6-0.8
				c0.4-0.1,0.8-0.2,1.2-0.2c0.3,0,0.5-0.1,0.8-0.1c1.1,0,1.9,0.5,2.2,1.4c0.5,1.3-0.3,2.8-2.1,4.3l-0.1,0.1l-0.2,0.1
				c-8.4,3.8-17.9,7.9-21,9.1l-0.5,0.2c-0.2,0.1-0.4,0.2-0.6,0.2l-0.8,0.3c-0.5,0.2-1,0.3-1.4,0.3l0,0c-2.4,0-4.1-2.3-5.7-7v-0.1
				c-0.8-3.5-1.2-7.1-1.2-10.6c0-21.5,13.8-40.3,34.4-46.7h0.1c1.7-0.4,3.1-0.6,4.3-0.6c4,0,4.9,2.1,5,3.3l0.1,1.1
				c0,0.1,0.1,0.3,0.1,0.5l0.1,0.6c0.4,3.2,1.6,13.2,2.5,22.2v0.1v0.1c-0.3,2.7-1.6,4.3-3,4.3c-0.6,0-1.8-0.3-2.4-2.4l0,0
				c-0.1-0.2-0.2-0.4-0.2-0.7c-0.2-0.6-0.4-1.2-0.6-1.8c-0.5-1.5-1-2.4-1.3-2.9C984,549,981.6,550.9,978.9,550.7z"/>
			<path fill="#E86900" d="M1001.1,595.6c-0.9,0.1-2.9,4.3-2.7,6.4c0.3,2.1,2.2,3.5,4.2,3.1c2-0.3,3.3-2.3,3-4.3
				C1005.4,598.9,1002.4,595.4,1001.1,595.6z M973.8,593.1c-1.4,1.6-1.3,3.9,0.3,5.2c1.5,1.3,3.8,1.1,5.2-0.5
				c1.4-1.6,1.8-6.3,1.1-6.9C979.3,590.1,975.1,591.5,973.8,593.1z M989.4,595.6c-1.3-0.2-4.2,3.2-4.5,5.3c-0.3,2.1,1,4,3,4.3
				c2,0.3,3.8-1.1,4.2-3.1C992.4,600,990.2,595.8,989.4,595.6z M1010.2,591c-0.7,0.6-0.3,5.3,1.1,6.9c1.4,1.6,3.7,1.9,5.2,0.5
				c1.5-1.3,1.7-3.6,0.3-5.2C1015.5,591.5,1011.2,590.1,1010.2,591z M964.3,554.7c-2-0.8-4.1,0.2-4.8,2.1c-0.7,1.9,0.3,4,2.3,4.7
				c2,0.8,6.4-0.1,6.8-1.3C968.9,559.3,966.3,555.4,964.3,554.7z M972.1,543.4c-1.7-1.3-4-1.1-5.2,0.5c-1.3,1.6-0.9,3.9,0.7,5.2
				c1.7,1.3,6.4,1.6,6.9,0.8C975.2,548.9,973.7,544.7,972.1,543.4z M979.6,535.2c-1.9,0.7-2.8,2.8-2.2,4.8c0.7,2,4.6,4.6,5.4,4.3
				c1.2-0.4,2.2-4.8,1.4-6.8C983.7,535.5,981.5,534.6,979.6,535.2z M961.8,567.9c-2.1,0.4-3.4,2.4-3,4.3c0.4,2,2.4,3.2,4.4,2.8
				c2.1-0.4,5.3-3.4,5.1-4.7C968.1,569.5,963.8,567.5,961.8,567.9z M1028.5,561.4c2-0.8,2.9-2.8,2.3-4.7c-0.7-1.9-2.8-2.8-4.8-2.1
				c-2,0.8-4.6,4.6-4.2,5.5C1022.2,561.4,1026.6,562.2,1028.5,561.4z M1012.8,540c0.7-2-0.2-4.1-2.2-4.8c-1.9-0.7-4,0.4-4.7,2.4
				c-0.7,2,0.2,6.4,1.4,6.8C1008.3,544.7,1012.1,542,1012.8,540z M1028.6,567.9c-2.1-0.4-6.3,1.6-6.5,2.5c-0.3,1.3,3,4.3,5.1,4.7
				s4-0.9,4.4-2.8C1032.1,570.3,1030.7,568.3,1028.6,567.9z M1023.6,543.9c-1.3-1.6-3.6-1.8-5.2-0.5c-1.7,1.3-3.1,5.5-2.4,6.5
				c0.6,0.7,5.2,0.5,6.9-0.8C1024.5,547.8,1024.8,545.4,1023.6,543.9z"/>
			<path fill="#FFB500" d="M1009.8,535.9c-0.2-0.1-0.4-0.1-0.6-0.1c-0.8,0-1.6,0.6-1.9,1.4c-0.4,1,0,3,0.4,4.1
				c1.1-0.6,2.7-2,3.1-2.9C1011.2,537.4,1010.7,536.2,1009.8,535.9z M1011.3,591.6c0,1.3,0.4,3.4,1,4.1c0.4,0.5,1,0.8,1.6,0.8
				c0.3,0,0.8-0.1,1.2-0.4c0.4-0.3,0.6-0.8,0.6-1.3c0-0.5-0.2-1.1-0.5-1.5C1014.5,592.6,1012.5,591.8,1011.3,591.6z M1001.1,596.8
				c-0.7,1.1-1.5,3.1-1.4,4c0.2,1.1,1.2,1.9,2.2,1.7c0.5-0.1,0.9-0.3,1.2-0.8c0.3-0.4,0.4-1,0.3-1.6
				C1003.3,599.2,1002,597.5,1001.1,596.8z M1020.4,543.3c-0.5,0-1,0.2-1.3,0.5c-0.8,0.7-1.7,2.6-1.9,3.7c0.1,0,0.2,0,0.3,0
				c1.7,0,3.3-0.4,3.8-0.8c0.4-0.4,0.7-0.8,0.8-1.4c0.1-0.5-0.1-1-0.4-1.4S1021,543.3,1020.4,543.3z M1029.2,569.5
				c-0.3-0.4-0.8-0.7-1.3-0.9c0,0-0.1,0-0.3,0c-1.2,0-2.8,0.7-3.8,1.2c0.7,0.9,2.4,2.3,3.3,2.5c1.1,0.2,2.2-0.5,2.4-1.4
				C1029.6,570.4,1029.5,569.9,1029.2,569.5z M1027.5,558.8c0.5-0.2,0.9-0.6,1.2-1.1c0.2-0.5,0.2-1,0.1-1.4c-0.3-0.7-1-1.2-1.8-1.2
				c-0.3,0-0.5,0-0.8,0.1c-0.9,0.3-2.3,2.1-2.8,3.1c0.7,0.2,1.8,0.5,2.8,0.5C1027.1,559,1027.5,558.9,1027.5,558.8z M970.5,543.8
				c-0.4-0.3-0.9-0.5-1.3-0.5c-0.6,0-1.1,0.2-1.4,0.7c-0.3,0.4-0.4,0.9-0.4,1.4c0.1,0.5,0.4,1,0.8,1.4c0.5,0.4,2.2,0.8,3.8,0.8
				c0.1,0,0.2,0,0.3,0C972.2,546.4,971.4,544.5,970.5,543.8z M963.3,555.4c-0.3-0.1-0.5-0.1-0.8-0.1c-0.8,0-1.5,0.5-1.8,1.2
				c-0.2,0.5-0.1,1,0.1,1.4c0.2,0.5,0.7,0.9,1.2,1.1c0.1,0,0.5,0.2,1.3,0.2l0,0c1.2,0,2.3-0.3,2.8-0.5
				C965.6,557.4,964.2,555.7,963.3,555.4z M986.2,600.2c-0.1,0.6,0,1.1,0.3,1.6c0.3,0.4,0.7,0.7,1.2,0.8c1,0.2,2-0.6,2.2-1.7
				c0.2-1-0.7-2.9-1.4-4C987.7,597.5,986.4,599.2,986.2,600.2z M980.4,535.8c-0.2,0-0.4,0-0.6,0.1c-1,0.4-1.5,1.5-1.1,2.6
				c0.3,0.9,2.1,2.3,3.1,2.9c0.4-1.1,0.7-3.1,0.4-4.1C982,536.3,981.2,535.8,980.4,535.8z M974.1,594.7c0,0.5,0.2,1,0.6,1.3
				c0.4,0.4,0.9,0.4,1.2,0.4c0.6,0,1.2-0.3,1.6-0.8c0.6-0.7,1-2.8,1-4.1c-1.3,0.2-3.2,1-3.8,1.8
				C974.3,593.7,974.1,594.2,974.1,594.7z M961.7,568.7c-0.6,0.1-1,0.4-1.3,0.9c-0.3,0.4-0.4,0.9-0.3,1.4c0.2,0.9,1,1.5,1.9,1.5l0,0
				c0.1,0,0.3,0,0.4,0c1-0.2,2.7-1.6,3.3-2.5c-1-0.5-2.7-1.2-3.8-1.2C961.8,568.6,961.7,568.7,961.7,568.7z"/>
		</g>
		<g>
			<path fill="#0A5C00" d="M1007.5,561.8c-2.5-2.8-24.9-17.1-37.7-8.6c-12.8,8.3-6,20.9-4.1,18.5c1.9-2.5,6-7.2,6-7.2
				s8.3,8,10.3,5.8s5.2-5.2,5.5-5.5c0.3-0.3,6.4-0.6,6.4-0.6c1.2,4.3,7.3,9.7,8.7,8.2C1004.1,570.9,1010,564.6,1007.5,561.8z
				 M1054.6,538.2c0,0-6.7-9.3-4.1-13.5c2.6-4.2,11.4-6.9,12.5-7.9c1.1-0.9-0.5-3-1.5-3.6c-1.1-0.7-15.3,1-16.3,2.9
				c-1.1,2-7.6,25.6-5.1,26s10.2,4.7,11.5,4.4C1052.8,546.2,1054.6,538.2,1054.6,538.2z M983.5,435.2c-0.7-1.1-2.7-2.7-3.6-1.5
				c-0.9,1.1-3.6,9.9-7.9,12.5c-4.2,2.6-13.5-4.1-13.5-4.1s-8.1,1.9-8.3,3.1c-0.3,1.3,4,9,4.4,11.5s24.1-4,26-5.1
				C982.6,450.5,984.2,436.3,983.5,435.2z M934.9,489.2c-2.8-2.5-9,3.4-10.6,4.9c-1.5,1.5,3.8,7.7,8.2,8.7c0,0-0.3,6.1-0.6,6.4
				c-0.3,0.3-3.3,3.5-5.5,5.5c-2.2,2,5.8,10.3,5.8,10.3s-4.7,4.1-7.2,6c-2.5,1.9,10.1,8.5,18.5-4.1
				C952,514.1,937.7,491.6,934.9,489.2z"/>
			
				<linearGradient id="SVGID_18_" gradientUnits="userSpaceOnUse" x1="125.308" y1="975.9019" x2="136.4993" y2="950.1697" gradientTransform="matrix(4.32 0 0 -4.32 420.0001 4665.6001)">
				<stop  offset="0" style="stop-color:#B8E245"/>
				<stop  offset="0.1466" style="stop-color:#B1DE41"/>
				<stop  offset="0.3587" style="stop-color:#9ED136"/>
				<stop  offset="0.6106" style="stop-color:#7EBE24"/>
				<stop  offset="0.8909" style="stop-color:#53A20B"/>
				<stop  offset="1" style="stop-color:#409600"/>
			</linearGradient>
			<path fill="url(#SVGID_18_)" d="M1050.8,546.2c2.5,1.7,6.9-5.5,8.2-10.5c1.4-5-3.5-0.1-3.3-8.4c0.2-8.3,4-12.7,6.5-10.6
				c2.5,2.1,2.9-10.7-2.5-13.5c-5.4-2.8-5.6-11.2-3.5-15.1c2.1-3.9-1.9-2.7-6.8-5.1s-2.9-8.9,0.3-12.6c1.6-1.8,0-6.8-8.5-15.4
				c-7.2-7.2-13.3-9.6-14.9-8.1c-3.6,3.2-10.2,5.2-12.6,0.3c-2.4-4.9-1.2-8.8-5.1-6.8c-3.9,2.1-12.3,1.9-15.1-3.5
				c-2.8-5.4-15.6-4.9-13.5-2.5c2.1,2.5-2.3,6.3-10.6,6.5s-3.4-4.7-8.4-3.3s-12.2,5.8-10.5,8.2c1.7,2.5,7.6,3.3,5.7,7
				c-1.9,3.7-6.9,6.4-9.3,3.4c-2.6-2.9-7.2-2.8-7.5,1.1c-0.3,3.9-0.4,8.5-4.7,10.7c-4.3,2.1-10.8,7.6-10,11.8s4.4-0.8,4.7,8.5
				c0.3,9.2-5,3.6-5.5,6.5c-0.6,2.8-1,10.6,2.8,13.1c3.8,2.6,4.8,6.6,1.3,6.5c-3.5-0.1-3.7,7-0.2,8.3c3.5,1.5,3.1,8.7,0.5,8.6
				c-2.7-0.1-3.3-1.7-4.6,1.4c-1.2,3-0.7,6.2,0.9,7.8s-3,2.6-3,2.6s-0.7,5.7,10.9,17.3c0.8,0.8,3.2,3.2,3.9,3.9
				c11.7,11.8,17.4,11.1,17.4,11.1s1-4.6,2.6-3c1.6,1.6,4.7,2.2,7.8,0.9s1.5-2,1.4-4.6c-0.1-2.7,7.2-3,8.6,0.5
				c1.5,3.5,8.4,3.3,8.3-0.2c-0.1-3.5,3.9-2.6,6.5,1.3s10.2,3.4,13.1,2.8c2.8-0.6-2.8-5.8,6.5-5.5c9.2,0.3,4.3,3.9,8.5,4.7
				c4.2,0.8,9.7-5.7,11.8-10s6.7-4.4,10.7-4.7c3.9-0.3,4-4.9,1.1-7.5s-0.2-7.5,3.4-9.3C1047.5,538.7,1048.4,544.7,1050.8,546.2z"/>
			
				<radialGradient id="SVGID_19_" cx="377.5856" cy="41.2813" r="19.0245" gradientTransform="matrix(3.0547 3.0547 3.0547 -3.0547 -293.7914 -515.8278)" gradientUnits="userSpaceOnUse">
				<stop  offset="0" style="stop-color:#B8E245"/>
				<stop  offset="0.1299" style="stop-color:#B2DF3E"/>
				<stop  offset="0.3177" style="stop-color:#A1D62B"/>
				<stop  offset="0.5246" style="stop-color:#88C90E"/>
				<stop  offset="0.9689" style="stop-color:#409600"/>
			</radialGradient>
			<path fill="url(#SVGID_19_)" d="M1039.1,555.5c1-0.1,1.2-0.5,1.4-0.8c0.3-0.8-0.1-2.3-1.3-3.3c-1.6-1.3-2.2-3.1-1.9-5.2
				c0.5-2.8,2.7-5.8,5.7-7.3c1.9-1,3.8-0.7,5.3,0.8c0.8,0.8,1.4,1.8,2,2.7c0.5,0.9,1.1,1.8,1.5,2.2c1.3-0.5,4.4-5,5.6-9.3
				c0.1-0.3,0.1-0.5,0.2-0.7c-0.5-0.2-1.2-0.5-1.9-1.2c-1.3-1.3-1.8-3.2-1.7-6.3c0.1-6.2,2.3-11.2,5.3-12.6c1-0.5,2-0.5,2.9-0.2
				c0.3-2.2-0.1-6.9-2.3-9c-0.3-0.3-0.6-0.5-0.8-0.6c-0.9-0.4-1.7-1-2.3-1.7c-4-4-4.3-11.7-2.1-15.9c0.1-0.2,0.2-0.4,0.2-0.5
				c-0.4-0.1-1-0.3-1.4-0.4c-1.3-0.3-2.9-0.8-4.7-1.6c-0.8-0.4-1.5-0.9-2.1-1.5c-3.5-3.5-1.9-9.9,1.7-14c0.3-0.5-0.1-4.4-8.5-12.9
				c-6.8-6.8-11.5-8.2-12.5-8c-4.1,3.5-10.5,5.2-13.9,1.7c-0.6-0.6-1.1-1.3-1.5-2.1c-0.9-1.8-1.3-3.4-1.6-4.7
				c-0.1-0.5-0.3-1.1-0.4-1.4c-0.1,0.1-0.3,0.1-0.5,0.2c-4.3,2.3-11.9,2.1-15.9-2.1c-0.7-0.7-1.3-1.5-1.7-2.3
				c-0.2-0.3-0.4-0.6-0.6-0.8c-2.2-2.2-6.9-2.6-9-2.3c0.3,0.9,0.2,2-0.2,2.9c-1.4,3.1-6.4,5.2-12.6,5.3c-3,0.1-5-0.5-6.3-1.7
				c-0.7-0.7-1-1.4-1.2-1.9c-0.2,0-0.4,0.1-0.7,0.2c-4.4,1.2-8.8,4.2-9.3,5.6c0.4,0.5,1.3,1,2.2,1.5c1,0.6,2,1.2,2.7,2
				c1.5,1.5,1.8,3.3,0.8,5.3c-1.5,2.8-4.4,5.2-7.3,5.7c-2.1,0.3-3.9-0.3-5.2-1.9c-1.1-1.3-2.6-1.6-3.3-1.3c-0.3,0.1-0.7,0.4-0.8,1.4
				l-0.1,0.7c-0.3,3.8-0.7,9-5.8,11.5c-4.4,2.2-9.4,7.1-8.9,9.8c0.1,0.5,0.2,0.6,0.2,0.6s0.2,0.1,0.4,0.1c0.6,0.2,1.4,0.4,2.2,1.2
				c1.3,1.3,1.9,3.3,2,6.9c0.1,3.2-0.4,5.3-1.7,6.5c-1.3,1.3-2.9,1.1-3.9,1c0,0,0,0-0.1,0c-0.5,3.1-0.3,8.1,1.7,10.1
				c0.2,0.2,0.3,0.3,0.5,0.4c0.7,0.5,1.4,1,2,1.6c2.1,2.1,2.8,4.4,2.2,6.2c-0.3,0.7-1.2,2.2-3.8,2.1c-0.1,0-0.3,0-0.6,0.5
				c-0.5,1.1-0.3,2.9,0.6,3.8c0.2,0.2,0.3,0.3,0.5,0.4c0.7,0.3,1.3,0.7,1.8,1.2c2.3,2.3,2.5,6.2,1.4,8.6c-0.7,1.6-2,2.6-3.4,2.5
				c-1,0-1.8-0.2-2.3-0.4c-0.1,0-0.1,0-0.2-0.1c-0.1,0.1-0.2,0.3-0.3,0.7c-1,2.5-0.5,4.7,0.5,5.7c0.8,0.8,1.1,1.8,0.8,2.7
				c-0.4,1.3-1.7,2.1-3,2.6c0.5,2.1,2.6,7,10.2,14.6l3.9,3.9c7.7,7.7,12.5,9.6,14.6,10.2c0.5-1.4,1.3-2.7,2.6-3c1-0.3,2,0,2.7,0.8
				c1,1,3.2,1.5,5.7,0.5c0.3-0.1,0.5-0.2,0.6-0.3c0-0.1,0-0.2-0.1-0.2c-0.1-0.6-0.3-1.3-0.4-2.3c0-1.5,0.9-2.7,2.5-3.4
				c2.5-1.1,6.4-0.8,8.6,1.4c0.5,0.5,0.9,1.1,1.2,1.8c0.1,0.2,0.2,0.4,0.4,0.5c0.9,0.9,2.7,1.1,3.8,0.6c0.6-0.2,0.6-0.5,0.6-0.6
				c-0.1-2.6,1.5-3.5,2.1-3.8c1.8-0.8,4.1,0,6.2,2.2c0.6,0.6,1.1,1.2,1.6,2c0.1,0.2,0.2,0.3,0.4,0.5c2,2,7,2.2,10.1,1.7
				c0,0,0,0,0-0.1c-0.1-1-0.3-2.7,1-3.9c1.2-1.3,3.2-1.8,6.5-1.7c3.6,0.1,5.7,0.7,6.9,2c0.8,0.8,1,1.7,1.2,2.2
				c0,0.2,0.1,0.4,0.2,0.4c0,0,0.2,0.1,0.6,0.2c2.7,0.5,7.7-4.5,9.8-8.9c2.5-5.1,7.7-5.5,11.5-5.8L1039.1,555.5z"/>
			<path fill="#85C70D" d="M1055.7,517.1c0,0-3.6,7.4-2.3,11.7c1.1,3.2-7-3.2-14.3-6c-7-2.7-14.6-4.9-7.3-5.4s14.7-0.5,18.1-0.5
				C1053.4,517,1056.5,515.6,1055.7,517.1z"/>
			<path fill="#92CE19" d="M1043,538.3c0,0-5.2,2-6,7.1c-0.5,3.4-2.3,0.2-13.7-6.9c-6.4-3.8-11.3-7.2-4-6.2
				c6.2,0.9,13.4,1.8,16.8,2.6C1041.3,535.9,1044.4,537.3,1043,538.3z"/>
			<path fill="#98D41C" d="M1011.3,565.1c-2.2-0.7-5.9-0.8-7.3,0.1c-1.4,0.9-1.3,1.3-3.8-4.5c-2.6-5.8-10.9-16.1-4.2-11.8
				c6.8,4.3,13.4,10.9,15.4,13.4C1013.3,564.7,1014.5,566.2,1011.3,565.1z"/>
			<path fill="#9FD821" d="M971.3,554.9c1.3,3.7,1.9,7.8,2.1,8.9c0.3,1.3-1.3-0.2-3.8,0.1c-2.6,0.4-4.4,1.8-4-1.4
				C965.9,559.5,965.7,538.2,971.3,554.9z"/>
			<path fill="#92CE19" d="M1052.8,497.1c1,4.4,3,5.4,1.2,5.8c-1.9,0.5-11.7,2.2-19.2,4.2c-7.7,2.1-21.2,7.1-9.2-1.2
				c12-8.2,22.7-12.9,24.7-13.8C1052.2,491.3,1051.9,493,1052.8,497.1z"/>
			<path fill="#92CE19" d="M1044.2,478.2c0,2,0.6,3.8,1.3,4.7c0.8,1,0.6,1.7-2,2.6c-2.6,0.9-11.5,4.8-16.1,6.6s-12.9,8-5.5,0.6
				c7.4-7.4,19.6-15.9,21.1-16.6C1044.4,475.5,1044.2,476.4,1044.2,478.2z"/>
			<path fill="#85C70D" d="M980,441.4c0,0-7.4,3.6-11.7,2.3c-3.2-1.1,3.2,7,6,14.3c2.7,7,4.9,14.6,5.4,7.3
				c0.5-7.4,0.5-14.7,0.5-18.1C980.1,443.7,981.5,440.6,980,441.4z"/>
			<path fill="#92CE19" d="M958.8,454.1c0,0-2,5.2-7.1,6c-3.4,0.5-0.2,2.3,6.9,13.7c3.8,6.4,7.2,11.3,6.2,4
				c-0.9-6.2-1.8-13.4-2.5-16.8C961.2,455.8,959.7,452.7,958.8,454.1z"/>
			<path fill="#98D41C" d="M932,485.9c0.7,2.2,0.8,5.9-0.1,7.3s-1.3,1.3,4.5,3.8s16.1,10.9,11.8,4.2c-4.3-6.8-10.9-13.4-13.4-15.4
				C932.4,483.8,930.9,482.6,932,485.9z"/>
			<path fill="#9FD821" d="M942.2,525.8c-3.7-1.3-7.8-1.9-8.9-2.1c-1.3-0.3,0.3,1.3-0.1,3.8c-0.4,2.6-1.8,4.4,1.4,4
				C937.5,531.2,958.9,531.4,942.2,525.8z"/>
			<path fill="#92CE19" d="M1000,444.3c-4.4-1-5.4-3-5.8-1.2c-0.5,1.9-2.2,11.7-4.2,19.2c-2.1,7.7-7.1,21.2,1.2,9.2
				c8.2-12,12.9-22.7,13.8-24.7C1005.9,444.9,1004.1,445.2,1000,444.3z"/>
			<path fill="#92CE19" d="M1018.9,452.9c-2,0-3.8-0.6-4.7-1.3c-1-0.8-1.7-0.6-2.6,2s-4.8,11.5-6.6,16.1c-1.8,4.6-8,12.9-0.6,5.5
				c7.4-7.4,15.9-19.6,16.6-21.1C1021.7,452.6,1020.6,452.9,1018.9,452.9z"/>
			
				<radialGradient id="SVGID_20_" cx="377.1607" cy="27.0013" r="23.602" gradientTransform="matrix(3.0547 3.0547 3.0547 -3.0547 -293.7914 -515.8278)" gradientUnits="userSpaceOnUse">
				<stop  offset="0.1471" style="stop-color:#E0FFB3"/>
				<stop  offset="0.2694" style="stop-color:#DEFEAC"/>
				<stop  offset="0.4464" style="stop-color:#D7FA99"/>
				<stop  offset="0.6566" style="stop-color:#CCF479"/>
				<stop  offset="0.8904" style="stop-color:#BDEC4E"/>
				<stop  offset="1" style="stop-color:#B5E837"/>
			</radialGradient>
			<path fill="url(#SVGID_20_)" d="M1019.5,553.4c-0.6-3.3-5.2-7.7-8.4-10.2c-3.3-2.6,4.4-2.9,11.1-0.8c6.7,2.3,7,1.1,1.9-0.9
				c-5.2-2-11.9-2.1-15.1-2.1s-6.7-2-12.4-4c-5.8-2.1-18.5-2.9-15.5-4.9c2.9-2,12.3-6.7,23.5-4.5c11.2,2.1,15.8,4.8,21.4,4.9
				c5.5,0.1,13.1,2.5,9.8,0.8c-3.2-1.8-8.8-2.3-11.8-2.5c-2.9-0.2-9.4-1.6-8.6-2.9c0.9-1.4,7.3-3.5,12.7-3.5c5.4,0,6.7-1-0.1-1.4
				c-6.8-0.4-10.3,1.8-13.2,2.8s-3.8,0.9-8.2-0.1c-4.4-1-16.3-0.6-14.3-2.1s8.1-4.2,13.8-5.3c5.8-1.1,15.2-2.5,9.9-2.6
				c-5.3-0.1-11.2,0.9-15.8,1.9c-4.7,1-5,0.1,0.9-4.8c5.9-4.9,13.8-6.3,19-7c5.2-0.8,7.9-2.7,12.2-6.5c4.3-3.8,3.7-4.5-0.1-1.2
				s-7.8,5.5-12.1,6.4s-7.2,0.7-5.2-3.2c2-3.9,4.7-8.1,7.4-10.6c2.7-2.5-1.3-0.5-4,2.8c-2.8,3.3-4.8,8.1-6.2,10.2
				c-1.4,2.1-5.2,2.7-9.6,5.4c-4.4,2.7-5,0.7-2.3-2.1c2.7-2.7,6.9-8.3,11.6-11.6s6.5-5.7,8.7-10.1c2.3-4.4,8-6,12.8-7.9
				c4.9-1.9,1.9-1.5-1.2-0.5c-3,1.1-6.9,2.2-3.9-1.8c3-3.9,3.1-5.5,0.7-2.2c-2.5,3.3-3.8,5.2-5.8,7.1c-2.1,1.9-4,3.9-5.3,7.3
				s-5.4,4.9-8.9,8.1c-3.5,3.1-10.4,10.1-11.6,9.8c-0.2-0.1-0.5-0.1-0.9-0.2c-0.3-0.4-0.3-1,0.3-1.9c1.2-1.5,8.7-9.9,11.9-13.3
				c3.1-3.3,1.3-2.7-0.8-0.5c-2.2,2.2-11.3,11.6-12.6,12.5c-1,0.7-1.7,0.8-2.2,0.1c-0.1-0.5-0.2-0.9-0.3-1.2
				c-0.4-1.3,6.6-8.1,9.8-11.6c3.1-3.5,4.7-7.7,8.1-8.9c3.3-1.3,5.4-3.2,7.3-5.3c1.9-2.1,3.7-3.3,7.1-5.8c3.3-2.5,1.8-2.3-2.2,0.7
				c-3.9,3-2.8-0.9-1.8-3.9c1.1-3,1.4-6-0.5-1.2c-1.9,4.8-3.4,10.5-7.9,12.8c-4.4,2.3-7,4.1-10.1,8.7c-3.2,4.7-8.8,8.8-11.6,11.6
				c-2.7,2.7-4.7,2.2-2.1-2.3c2.7-4.4,3.3-8.2,5.4-9.6c2.1-1.4,6.9-3.3,10.2-6.2c3.3-2.8,5.3-6.8,2.8-4c-2.5,2.7-6.7,5.4-10.6,7.4
				c-3.9,2-4.1-1-3.2-5.2c0.9-4.3,3-8.2,6.4-12.1c3.3-3.8,2.7-4.4-1.2-0.1c-3.8,4.3-5.8,7-6.5,12.2c-0.8,5.2-2.1,13.2-7,19
				s-5.8,5.5-4.8,0.9c1-4.7,2-10.6,1.9-15.8c-0.1-5.3-1.5,4.2-2.6,9.9c-1.1,5.8-3.8,11.9-5.3,13.8c-1.5,2-1.1-9.9-2.1-14.3
				s-1.3-5.4-0.1-8.2c1.1-2.8,3.2-6.4,2.8-13.2s-1.4-5.5-1.4-0.1s-2.3,11.8-3.5,12.7c-1.4,0.9-2.7-5.7-2.9-8.6
				c-0.2-2.9-0.8-8.6-2.5-11.8c-1.8-3.2,0.6,4.3,0.8,9.8c0.1,5.5,2.8,10.2,4.9,21.4c2.1,11.2-2.6,20.5-4.5,23.5
				c-2,2.9-2.8-9.7-4.9-15.5c-2.1-5.8-4-9.2-4-12.4c0-3.2-0.1-9.9-2.1-15.1c-2-5.2-3-4.8-0.9,1.9c2.3,6.7,1.9,14.3-0.8,11.1
				c-2.6-3.3-6.9-7.9-10.2-8.4c-3.3-0.6,3.2,0.3,10.6,12.1c7.4,11.8,9.7,27.4,6.6,32.7s-3.9,2.4-4.5-2.4c-0.5-4.8-4.8-11.1-8.7-13.5
				c-3.9-2.4,0.8,1.9,4.5,7.7c3.7,5.8,3,14.4-2.3,20.4c-4.2,4.8-17.7,13.4-22.8,16.5c1.6,2.4,3.8,5.2,7.4,8.7l3.9,3.9
				c3.3,3.3,6.1,5.6,8.4,7.2c3.1-5,11.7-18.6,16.5-22.9c6-5.3,14.6-5.9,20.4-2.3c5.8,3.7,10.1,8.4,7.7,4.5
				c-2.4-3.9-8.7-8.2-13.5-8.7c-4.8-0.5-7.7-1.4-2.4-4.5c5.3-3.1,20.9-0.8,32.7,6.6C1019.2,550.3,1020.1,556.7,1019.5,553.4z"/>
			<path fill="#BBE154" d="M941.5,566.6c4.4-6.1,9-12.3,24.2-28.2c18-18.7,0.8-4.1-5.5,2.2c-6.3,6.3-3.4,1.8,9.4-12.1
				c7.4-8,13.1-13.2,12.3-13.9c-1-1-3.8,2.5-13.5,11.5c-13.8,12.9-18.9,16.3-12.6,10c6.3-6.3,20.4-23.2,2.2-5.5
				c-15.5,14.9-21.8,19.5-28.1,24.2c1.1,1.3,2.4,2.7,3.8,4.1l3.9,3.9C939,564.3,940.3,565.6,941.5,566.6z"/>
		</g>
		<g>
			<circle fill="#E380B5" cx="941.9" cy="518.2" r="63.9"/>
			<circle fill="#A65073" cx="941.9" cy="518.2" r="62.7"/>
			
				<radialGradient id="SVGID_21_" cx="120.8201" cy="960.0566" r="14.5084" gradientTransform="matrix(4.32 0 0 -4.32 420.0001 4665.6001)" gradientUnits="userSpaceOnUse">
				<stop  offset="0.9058" style="stop-color:#FFEDF5"/>
				<stop  offset="0.929" style="stop-color:#FDE9F1"/>
				<stop  offset="0.9541" style="stop-color:#F8DCE7"/>
				<stop  offset="0.9799" style="stop-color:#F0C6D5"/>
				<stop  offset="1" style="stop-color:#E8B0C3"/>
			</radialGradient>
			<circle fill="url(#SVGID_21_)" cx="941.9" cy="518.2" r="61.7"/>
			
				<radialGradient id="SVGID_22_" cx="120.8201" cy="960.0566" r="14.5084" gradientTransform="matrix(4.32 0 0 -4.32 420.0001 4665.6001)" gradientUnits="userSpaceOnUse">
				<stop  offset="0.8185" style="stop-color:#FFEDF5"/>
				<stop  offset="0.8526" style="stop-color:#FDE9F1"/>
				<stop  offset="0.8894" style="stop-color:#F9DCE7"/>
				<stop  offset="0.9274" style="stop-color:#F0C6D5"/>
				<stop  offset="0.964" style="stop-color:#E6AABE"/>
			</radialGradient>
			<circle fill="url(#SVGID_22_)" cx="941.9" cy="518.2" r="61.7"/>
			<circle fill="#A65073" cx="941.9" cy="518.2" r="54.5"/>
			
				<radialGradient id="SVGID_23_" cx="120.8201" cy="960.0566" r="12.5605" gradientTransform="matrix(4.32 0 0 -4.32 420.0001 4665.6001)" gradientUnits="userSpaceOnUse">
				<stop  offset="0.8323" style="stop-color:#FFEDF5"/>
				<stop  offset="0.8736" style="stop-color:#FDE9F1"/>
				<stop  offset="0.9182" style="stop-color:#F8DCE7"/>
				<stop  offset="0.9642" style="stop-color:#F0C6D5"/>
				<stop  offset="1" style="stop-color:#E8B0C3"/>
			</radialGradient>
			<circle fill="url(#SVGID_23_)" cx="941.9" cy="518.2" r="53.4"/>
			<circle fill="#A65073" cx="941.9" cy="518.2" r="45.6"/>
			
				<radialGradient id="SVGID_24_" cx="120.8201" cy="960.0566" r="10.4837" gradientTransform="matrix(4.32 0 0 -4.32 420.0001 4665.6001)" gradientUnits="userSpaceOnUse">
				<stop  offset="0.8331" style="stop-color:#FFF3F8"/>
				<stop  offset="0.8721" style="stop-color:#FDEFF5"/>
				<stop  offset="0.9144" style="stop-color:#F9E2EA"/>
				<stop  offset="0.958" style="stop-color:#F2CCD9"/>
				<stop  offset="1" style="stop-color:#E8B0C3"/>
			</radialGradient>
			<circle fill="url(#SVGID_24_)" cx="941.9" cy="518.2" r="44.6"/>
			<circle fill="#A65073" cx="941.9" cy="518.2" r="35.8"/>
			
				<radialGradient id="SVGID_25_" cx="120.8201" cy="960.0566" r="8.1633" gradientTransform="matrix(4.32 0 0 -4.32 420.0001 4665.6001)" gradientUnits="userSpaceOnUse">
				<stop  offset="0.8101" style="stop-color:#FFF3F8"/>
				<stop  offset="0.8545" style="stop-color:#FDEFF5"/>
				<stop  offset="0.9026" style="stop-color:#F9E2EA"/>
				<stop  offset="0.9522" style="stop-color:#F2CCD9"/>
				<stop  offset="1" style="stop-color:#E8B0C3"/>
			</radialGradient>
			<circle fill="url(#SVGID_25_)" cx="941.9" cy="518.2" r="34.7"/>
			<circle fill="#A65073" cx="941.9" cy="518.2" r="25.6"/>
			
				<radialGradient id="SVGID_26_" cx="120.8201" cy="960.0566" r="5.7686" gradientTransform="matrix(4.32 0 0 -4.32 420.0001 4665.6001)" gradientUnits="userSpaceOnUse">
				<stop  offset="0.7466" style="stop-color:#FFF3F8"/>
				<stop  offset="0.8152" style="stop-color:#FEEFF5"/>
				<stop  offset="0.8893" style="stop-color:#F9E2EA"/>
				<stop  offset="0.9659" style="stop-color:#F2CCD9"/>
				<stop  offset="1" style="stop-color:#EEC0D0"/>
			</radialGradient>
			<circle fill="url(#SVGID_26_)" cx="941.9" cy="518.2" r="24.5"/>
			<circle fill="#A65073" cx="941.9" cy="518.2" r="15.6"/>
			
				<radialGradient id="SVGID_27_" cx="120.8092" cy="960.0566" r="3.3371" gradientTransform="matrix(4.32 0 0 -4.32 420.0001 4665.6001)" gradientUnits="userSpaceOnUse">
				<stop  offset="0.6432" style="stop-color:#FFF3F8"/>
				<stop  offset="0.7452" style="stop-color:#FEEFF5"/>
				<stop  offset="0.8556" style="stop-color:#F9E2EA"/>
				<stop  offset="0.9695" style="stop-color:#F2CCDA"/>
				<stop  offset="1" style="stop-color:#F0C5D4"/>
			</radialGradient>
			<path fill="url(#SVGID_27_)" d="M946.6,504.5c-0.2,0-0.3-0.1-0.5-0.1c-2.8-0.6-2.8,1.6-3.1,2.8s-0.9,8.4-7.2,14.8
				c-3.8,3.9-5.4,4.5-3.7,6.5l0,0c2.6,2.5,6.1,4,9.9,4c8,0,14.4-6.5,14.4-14.4C956.3,511.8,952.3,506.4,946.6,504.5z M939.9,513.1
				c1.4-3.2,2.3-8.1,1.4-9.3l-0.1-0.1c-7.6,0.4-13.6,6.7-13.6,14.3c0,2.5,0.6,4.8,1.7,6.8c0.6,0.3,1.4-0.3,2.9-1.4
				C935.3,521.2,938.5,516.5,939.9,513.1z"/>
			<path fill="#A65073" d="M946.6,517.6c-0.8,2.4-2.7,4.4-3.7,5.8c-1.1,1.4,1.1,2.1,3.5,1c2.7-1.1,3.4-4.3,2.6-6.8
				C947.9,515.2,947,516.1,946.6,517.6z"/>
			<path fill="#E7A8BE" d="M947.3,518.8c-0.1,0.6-1.2,2.6-2.6,3.9c-1.1,1-0.5,1.2,0.5,0.8c1.6-0.6,2.4-1.6,2.7-3.1
				C948.1,518.7,947.5,518.2,947.3,518.8z"/>
			<path fill="#DE94B3" d="M983.3,559.5c-0.4,0.4-0.4,1.1,0,1.5s1.1,0.4,1.5,0c0.4-0.4,0.4-1.1,0-1.5
				C984.4,559.1,983.7,559.1,983.3,559.5z M941.9,457.5c-0.6,0-1,0.5-1,1c0,0.5,0.5,1,1,1c0.6,0,1-0.5,1-1
				C942.9,458,942.4,457.5,941.9,457.5z M941.9,576.7c-0.6,0-1,0.5-1,1c0,0.6,0.5,1,1,1c0.6,0,1-0.5,1-1
				C942.9,577.2,942.4,576.7,941.9,576.7z M899,559.5c-0.4,0.4-0.4,1.1,0,1.5s1.1,0.4,1.5,0s0.4-1.1,0-1.5S899.4,559.1,899,559.5z
				 M899,475.3c-0.4,0.4-0.4,1.1,0,1.5c0.4,0.4,1.1,0.4,1.5,0c0.4-0.4,0.4-1.1,0-1.5C900.1,474.9,899.4,474.9,899,475.3z
				 M983.3,475.3c-0.4,0.4-0.4,1.1,0,1.5c0.4,0.4,1.1,0.4,1.5,0c0.4-0.4,0.4-1.1,0-1.5C984.4,474.9,983.7,474.9,983.3,475.3z
				 M882.4,517.1c-0.6,0-1,0.5-1,1c0,0.6,0.5,1,1,1c0.6,0,1-0.5,1-1S882.8,517.1,882.4,517.1z M1001.4,517.1c-0.6,0-1,0.5-1,1
				c0,0.6,0.5,1,1,1c0.6,0,1-0.5,1-1C1002.5,517.6,1002,517.1,1001.4,517.1z M887.8,540.3c-0.5,0.2-0.8,0.8-0.5,1.3
				c0.2,0.5,0.8,0.8,1.3,0.5c0.5-0.2,0.8-0.8,0.5-1.3C888.8,540.3,888.2,540,887.8,540.3z M888.4,496.8c0.2-0.5,0-1.1-0.6-1.3
				c-0.5-0.2-1.1,0-1.3,0.6c-0.2,0.6,0,1.1,0.6,1.3C887.7,497.5,888.2,497.3,888.4,496.8z M996.6,538.9c-0.5-0.2-1.1,0-1.3,0.6
				c-0.2,0.5,0,1.1,0.6,1.3c0.5,0.2,1.1,0,1.3-0.6C997.4,539.7,997.1,539.1,996.6,538.9z M964.6,571c-0.5,0.2-0.8,0.8-0.5,1.3
				c0.2,0.5,0.8,0.8,1.3,0.5c0.5-0.2,0.8-0.8,0.5-1.3C965.7,571,965.1,570.8,964.6,571z M919.7,464c-0.2-0.5-0.8-0.8-1.3-0.5
				c-0.5,0.2-0.8,0.8-0.5,1.3c0.2,0.5,0.8,0.8,1.3,0.5C919.7,465,920,464.5,919.7,464z M996,495.9c0.5-0.2,0.8-0.8,0.5-1.3
				c-0.2-0.5-0.8-0.8-1.3-0.5c-0.5,0.2-0.8,0.8-0.5,1.3C995,495.9,995.5,496.2,996,495.9z M920.5,571.6c-0.5-0.2-1.1,0-1.3,0.6
				c-0.2,0.5,0,1.1,0.6,1.3c0.5,0.2,1.1,0,1.3-0.6C921.3,572.3,921.1,571.8,920.5,571.6z M964.5,464.2c0.2-0.5,0-1.1-0.6-1.3
				c-0.5-0.2-1.1,0-1.3,0.6c-0.2,0.5,0,1.1,0.6,1.3C963.7,464.8,964.3,464.7,964.5,464.2z"/>
		</g>
		<g>
			<path fill="#A64A30" d="M1021.3,542.2c-1.3-1.9-1.4-4.4-0.4-7.2c1.2-3,0.2-6.2-2.6-8.5c-1.4-1.2-1-3.4-1-3.9
				c1.3-6.5-2.1-9.7-4.2-11c-2.2-1.4-3.1-3.4-2.8-6.6c0.2-1.9-0.5-3.7-2-5.4c-1.3-1.5-2.9-2.5-4.4-2.5c-1.6-0.1-2.9-1.8-3.2-3.1
				c-0.3-2.1-2-4.3-5.7-4.5c-0.7,0-1-0.6-1.8-2c-0.8-1.5-1.9-3.5-4.3-5c-2.9-1.9-5.5-1.8-7.4-1.8c-0.3,0-0.5,0-0.7,0
				c-0.5,0-1,0-1.4-0.2c-0.6-0.3-0.9-0.6-1.3-1.2c-0.6-0.8-1.2-1.7-2.8-2.5c-0.7-0.3-1.5-0.5-2.2-0.5c-0.8,0-1.5,0.2-2.1,0.4
				c-0.6,0.2-1,0.3-1.3,0.1c-0.3-0.1-0.7-0.5-1.1-0.9c-1.1-1.1-2.7-2.7-5.9-2.8c-2.5-0.2-3.6,0.4-4.7,0.9c-0.8,0.4-1.5,0.7-2.7,0.8
				c-0.5,0-0.8-0.2-1.3-0.6c-0.7-0.5-1.6-1.1-3-1.1c-0.5,0-1.1,0.1-1.7,0.3c-0.2,0-0.4,0.1-0.6,0.2c-0.4,0.1-0.9,0.3-1.3,0.3
				c-0.1,0-0.2,0-0.3,0c-2-1.1-3.5-1.6-5-1.6c-2.3,0-4,1.2-5.5,2.4c-2.2,1.8-4.4,2.2-7.1,1.2c-0.7-0.2-1.4-0.4-2.2-0.4
				c-3.3,0-6.4,2.4-7.1,4.5c-0.5,1.5-2.5,2.5-3.8,2.4c-0.2,0-0.3,0-0.5,0c-2.5,0-4.4,1.7-5.4,4.4c-0.2,0.7-0.8,0.8-2.4,1.2
				c-1.7,0.4-3.9,0.9-6,2.8c-2.6,2.5-3.1,4.9-3.5,6.7c-0.2,0.9-0.4,1.6-0.7,2c-0.4,0.5-0.8,0.7-1.5,0.9c-0.9,0.3-2,0.8-3,2.2
				c-1.3,1.6-1.3,2.9-1.2,4c0,0.7,0,1-0.2,1.3c-0.2,0.3-0.7,0.5-1.2,0.8c-1.4,0.8-3.2,1.9-4.3,5c-0.8,2.2-0.5,3.5-0.2,4.6
				c0.2,0.9,0.4,1.6,0,2.7c-0.3,1-0.9,1.4-1.4,1.9L885,523c-2.1,1.7-2.8,4.6-1.8,7.5c0.8,2.2,0.3,5.1-1.3,7.3
				c-2,2.8-2.5,7.9-1.2,12.1c0.5,1.5,1.2,2.7,1.8,3.9c1.4,2.5,2.8,5,2.5,10.6c-0.4,5,1.1,8.3,4.6,10.5c2.2,1.4,3.1,3.4,2.8,6.6
				c-0.2,1.9,0.5,3.7,2,5.4c1.3,1.5,2.9,2.5,4.4,2.5c1.6,0.1,2.9,1.8,3.2,3.1c0.3,2.1,2,4.3,5.7,4.5c0.7,0,1,0.6,1.8,2
				c0.8,1.5,1.9,3.5,4.3,5c2.9,1.9,5.5,1.8,7.4,1.8c0.3,0,0.5,0,0.7,0c0.5,0,1,0,1.4,0.2c0.6,0.3,0.9,0.6,1.3,1.2
				c0.6,0.8,1.2,1.7,2.8,2.5c0.7,0.3,1.5,0.5,2.2,0.5c0.8,0,1.5-0.2,2.1-0.4c0.6-0.2,1-0.3,1.3-0.1c0.3,0.1,0.7,0.5,1.1,0.9
				c1.1,1.1,2.7,2.7,5.9,2.8c2.5,0.2,3.6-0.4,4.7-0.9c0.8-0.4,1.5-0.7,2.7-0.8c0.5,0,0.8,0.2,1.3,0.6c0.7,0.5,1.6,1.1,3,1.1
				c0.5,0,1.1-0.1,1.7-0.3c0.2,0,0.4-0.1,0.6-0.2c0.4-0.1,0.9-0.3,1.3-0.3c0.1,0,0.2,0,0.3,0.1c2,1.1,3.5,1.6,5,1.6
				c2.3,0,4-1.2,5.5-2.4c2.2-1.8,4.4-2.2,7.1-1.2c0.7,0.2,1.4,0.4,2.2,0.4c3.3,0,6.4-2.4,7.1-4.5c0.5-1.5,2.5-2.5,3.8-2.4
				c0.2,0,0.3,0,0.5,0c2.5,0,4.4-1.7,5.4-4.4c0.2-0.7,0.8-0.8,2.4-1.2c1.7-0.4,3.9-0.9,6-2.8c2.6-2.5,3.1-4.9,3.5-6.7
				c0.2-0.9,0.4-1.6,0.7-2c0.4-0.5,0.8-0.7,1.5-0.9c0.9-0.3,2-0.8,3-2.2c1.3-1.6,1.3-2.9,1.2-4c0-0.7,0-1,0.2-1.3
				c0.2-0.3,0.7-0.5,1.2-0.8c1.4-0.8,3.2-1.9,4.3-5c0.8-2.3,0.5-3.6,0.3-4.7c-0.2-0.9-0.3-1.6,0-2.7c0.1-0.5,0.4-0.8,0.9-1.3
				c0.2-0.2,0.4-0.4,0.6-0.6c2.2-2.1,2.1-5.1,1.7-7.6c-0.3-2,0.8-3.3,1.8-4.5c0.2-0.2,0.3-0.4,0.5-0.6
				C1022.9,548.8,1023.1,545,1021.3,542.2z"/>
			<path fill="#78290F" d="M1019.6,542.9c-1.7-2.4-1.6-5.4-0.5-8.1s0-5.3-2.2-7.2c-1.6-1.4-1.6-3.6-1.3-4.9c1.1-5.2-1.2-8.1-3.6-9.7
				c-2.6-1.6-3.6-4-3.3-7.6c0.3-3.4-3-6.5-5.2-6.6s-3.9-2.3-4.2-4c-0.3-1.9-1.9-3.3-4.6-3.5s-2.3-4.5-6.5-7.2
				c-4.2-2.7-7.5-1-9.2-1.9c-1.9-0.9-1.6-2.5-4-3.5c-2.6-1.2-3.8,0.7-5.4,0c-1.6-0.7-2.5-3.3-6.6-3.6c-3.7-0.3-3.9,1.5-7.2,1.7
				c-2.2,0.1-2.6-2.4-5.8-1.5c-0.7,0.2-2,0.9-2.9,0.4c-4-2.3-6.2-1.7-9.1,0.7c-2.3,1.9-4.8,2.6-8.1,1.4c-3.2-1.2-7.1,1.4-7.7,3.3
				c-0.6,2.1-3.1,3.2-5,3s-3.7,0.9-4.6,3.5s-4.9,1-8.5,4.4s-2.8,7-4.1,8.5c-1.3,1.6-2.7,0.9-4.5,3c-1.8,2.2-0.3,3.9-1.4,5.2
				s-3.8,1.5-5.2,5.4c-1.3,3.5,0.8,4.3-0.2,7.4c-0.5,1.4-1.3,2-2,2.5c-1.5,1.2-2.4,3.5-1.4,6.1c1,2.6,0.2,5.9-1.4,8.2
				c-1.7,2.4-2.3,7-1.1,11c1.3,4.3,4.8,6.2,4.2,14.7c-0.4,5.3,1.5,7.9,4,9.3c2.6,1.6,3.6,4,3.3,7.6c-0.3,3.4,3,6.5,5.2,6.6
				c2.2,0.1,3.9,2.3,4.2,4c0.3,1.9,1.9,3.3,4.6,3.5s2.3,4.5,6.5,7.2c4.2,2.7,7.5,1,9.2,1.9c1.9,0.9,1.6,2.5,4,3.5
				c2.6,1.2,3.8-0.7,5.4,0c1.6,0.7,2.5,3.3,6.6,3.6c3.7,0.3,3.9-1.5,7.2-1.7c2.2-0.1,2.6,2.4,5.8,1.5c0.7-0.2,2-0.9,2.9-0.4
				c4,2.3,6.2,1.7,9.1-0.7c2.3-1.9,4.8-2.6,8.1-1.4c3.2,1.2,7.1-1.4,7.7-3.3c0.6-2.1,3.1-3.2,5-3c1.9,0.2,3.7-0.9,4.6-3.5
				c0.9-2.7,4.9-1,8.5-4.4c3.6-3.4,2.8-7,4.1-8.5c1.3-1.6,2.7-0.9,4.5-3c1.8-2.2,0.3-3.9,1.4-5.2s3.8-1.5,5.2-5.4
				c1.3-3.5-0.5-4.2,0.2-7.4c0.3-1.2,1.1-1.7,1.8-2.5c1.8-1.7,1.7-4.3,1.4-6.5c-0.4-2.7,1.4-4.5,2.4-5.9
				C1021.1,548.5,1021.3,545.2,1019.6,542.9z"/>
			
				<radialGradient id="SVGID_28_" cx="123.0149" cy="954.2844" r="15.2378" gradientTransform="matrix(4.32 0 0 -4.32 420.0001 4665.6001)" gradientUnits="userSpaceOnUse">
				<stop  offset="0" style="stop-color:#A44A23"/>
				<stop  offset="0.528" style="stop-color:#9C4524"/>
				<stop  offset="1" style="stop-color:#913D26"/>
			</radialGradient>
			<path fill="url(#SVGID_28_)" d="M1016.3,542.9c-1.6-2.3-1.5-5.1-0.5-7.8c1-2.6,0-5.1-2.1-6.9c-1.5-1.3-1.5-3.4-1.3-4.7
				c1-5-1.1-7.8-3.4-9.2c-2.4-1.5-3.5-3.8-3.2-7.2c0.3-3.3-2.9-6.2-4.9-6.3c-2.1-0.1-3.7-2.1-4-3.8c-0.3-1.8-1.8-3.2-4.4-3.4
				c-2.7-0.2-2.1-4.3-6.2-6.8c-4-2.5-7.1-0.9-8.8-1.8c-1.8-0.8-1.5-2.3-3.8-3.4c-2.4-1.1-3.6,0.7-5.1,0c-1.5-0.7-2.3-3.1-6.3-3.5
				c-3.5-0.3-3.7,1.5-6.8,1.6c-2.1,0.1-2.4-2.3-5.5-1.4c-0.7,0.2-1.9,0.8-2.7,0.3c-3.8-2.2-5.9-1.6-8.6,0.7
				c-2.2,1.8-4.6,2.4-7.8,1.3s-6.7,1.3-7.3,3.2s-2.9,3.1-4.7,2.9c-1.8-0.2-3.5,0.9-4.4,3.4c-0.9,2.6-4.7,1-8.1,4.2s-2.7,6.6-3.9,8.1
				c-1.3,1.5-2.6,0.9-4.2,2.8c-1.7,2.1-0.3,3.7-1.3,5c-1,1.3-3.6,1.5-4.9,5.2c-1.2,3.4,0.8,4.1-0.2,7c-0.5,1.4-1.2,1.9-1.9,2.4
				c-1.5,1.2-2.3,3.3-1.4,5.8c0.9,2.5,0.2,5.6-1.4,7.9c-1.6,2.3-2.2,6.7-1,10.4c1.3,4.1,4.6,5.9,4,14c-0.4,5.1,1.5,7.5,3.8,8.9
				s3.5,3.8,3.2,7.2c-0.3,3.3,2.9,6.2,4.9,6.3c2.1,0.1,3.7,2.1,4,3.8s1.8,3.2,4.4,3.4c2.7,0.2,2.2,4.3,6.2,6.8
				c4,2.5,7.1,0.9,8.8,1.8c1.8,0.8,1.5,2.3,3.8,3.4c2.4,1.1,3.6-0.7,5.1,0c1.5,0.7,2.3,3.1,6.3,3.5c3.5,0.3,3.7-1.5,6.8-1.6
				c2.1-0.1,2.4,2.3,5.5,1.4c0.7-0.2,1.9-0.8,2.7-0.3c3.8,2.2,5.9,1.6,8.6-0.7c2.2-1.8,4.6-2.4,7.8-1.3c3.1,1.1,6.7-1.3,7.3-3.2
				c0.6-2,2.9-3.1,4.7-2.9c1.8,0.2,3.5-0.9,4.4-3.4s4.7-1,8.1-4.2s2.7-6.6,3.9-8.1c1.3-1.5,2.6-0.9,4.2-2.8c1.7-2.1,0.3-3.7,1.3-5
				c1-1.3,3.6-1.4,4.9-5.2c1.2-3.4-0.4-4,0.2-7c0.2-1.2,1-1.6,1.7-2.4c1.7-1.7,1.6-4.1,1.3-6.2c-0.4-2.7,1.3-4.3,2.3-5.6
				C1017.6,548.2,1017.8,545.1,1016.3,542.9z"/>
			
				<linearGradient id="SVGID_29_" gradientUnits="userSpaceOnUse" x1="113.968" y1="974.0313" x2="123.8258" y2="952.7315" gradientTransform="matrix(4.32 0 0 -4.32 420.0001 4665.6001)">
				<stop  offset="0" style="stop-color:#D68047"/>
				<stop  offset="0.2845" style="stop-color:#D07842"/>
				<stop  offset="0.7158" style="stop-color:#BE6333"/>
				<stop  offset="0.9983" style="stop-color:#B05226"/>
			</linearGradient>
			<path fill="url(#SVGID_29_)" d="M1005.7,514.9c-2.3-1.4-3.2-3.6-3-6.8c0.3-3.1-2.7-5.8-4.7-5.9c-1.9-0.1-3.5-2-3.8-3.6
				c-0.3-1.7-1.7-3-4.1-3.2c-2.6-0.2-2-4-5.8-6.4s-6.7-0.9-8.2-1.7c-1.7-0.8-1.4-2.2-3.6-3.2c-2.3-1.1-3.4,0.6-4.8,0
				c-1.4-0.6-2.2-3-5.9-3.2c-3.3-0.3-3.5,1.4-6.4,1.5c-1.9,0.1-2.3-2.2-5.2-1.3c-0.6,0.2-1.8,0.8-2.6,0.3c-3.6-2.1-5.5-1.5-8.1,0.6
				c-2.1,1.7-4.3,2.3-7.3,1.2c-2.9-1.1-6.3,1.2-6.9,3c-0.6,1.9-2.8,2.9-4.5,2.7c-1.7-0.2-3.3,0.8-4.1,3.2c-0.8,2.4-4.4,0.9-7.7,4
				c-3.2,3-2.6,6.2-3.7,7.7c-1.2,1.4-2.5,0.8-4,2.7c-1.6,1.9-0.3,3.5-1.2,4.7c-1,1.2-3.4,1.4-4.6,4.8c-1.1,3.2,0.7,3.8-0.2,6.6
				c-0.4,1.3-1.2,1.8-1.8,2.3c-1.4,1.1-2.1,3.1-1.3,5.5c0.9,2.4,0.2,5.3-1.3,7.4s-2.1,6.3-0.9,9.8c1.2,3.9,4.3,5.5,3.8,13.2
				c-0.3,4.2,1,6.5,2.9,8c6.6,2.3,21.3-7.9,43.7-20.1c25.4-14,53.2-20,61.3-22.6c6.1-2,6.8-5.8,5.8-9.6
				C1006.9,515.8,1006.3,515.3,1005.7,514.9z"/>
			<path fill="#DE9252" d="M997.6,501.5c-1.9-0.1-3.5-2-3.8-3.6c-0.3-1.7-1.7-3-4.1-3.2c-2.6-0.2-2-4.1-5.8-6.4
				c-3.8-2.4-6.7-0.9-8.3-1.7s-1.4-2.2-3.6-3.2c-2.3-1.1-3.4,0.6-4.9,0c-1.4-0.6-2.2-3-5.9-3.3c-3.4-0.3-3.5,1.4-6.4,1.5
				c-1.9,0.1-2.3-2.2-5.2-1.3c-0.6,0.2-1.8,0.8-2.7,0.3c-3.6-2.1-5.6-1.5-8.1,0.6c-2.1,1.7-4.3,2.3-7.4,1.3c-2.9-1.1-6.3,1.2-6.9,3
				c-0.6,1.9-2.8,2.9-4.5,2.7c-1.7-0.2-3.3,0.8-4.1,3.2c-0.8,2.4-4.4,0.9-7.7,4s-2.6,6.3-3.7,7.7c-1.2,1.4-2.5,0.8-4,2.7
				c-1.6,2-0.3,3.5-1.3,4.7c-1,1.2-3.4,1.4-4.7,4.9c-1.1,3.2,0.8,3.8-0.2,6.6c-0.4,1.3-1.2,1.8-1.8,2.3c-1.4,1.1-2.2,3.1-1.3,5.5
				s0.2,5.3-1.3,7.4c-1.5,2.2-2.1,6.3-1,9.9c0.2,0.8,0.5,1.4,0.9,2.1c-0.8-3.3-0.2-7.1,1.2-8.9c1.5-2.2,2.2-5.1,1.3-7.4
				c-0.9-2.4-0.1-4.4,1.3-5.5c0.6-0.5,1.3-1,1.8-2.3c1-2.7-0.9-3.3,0.2-6.6c1.2-3.5,3.7-3.7,4.7-4.9c1-1.2-0.4-2.7,1.3-4.7
				c1.6-2,2.8-1.3,4-2.7c1.2-1.4,0.5-4.5,3.7-7.7s6.9-1.6,7.7-4c0.8-2.4,2.5-3.3,4.1-3.2c1.7,0.2,3.9-1,4.5-2.7
				c0.6-1.9,3.9-4.1,6.9-3c2.9,1.1,5.3,0.5,7.4-1.3c2.7-2.2,4.6-2.7,8.1-0.6c0.8,0.5,2-0.1,2.7-0.3c2.9-0.9,3.3,1.4,5.2,1.3
				c2.8-0.1,3-1.8,6.4-1.5c3.7,0.3,4.5,2.7,5.9,3.3c1.4,0.6,2.7-1.1,4.9,0c2.3,1.1,2,2.5,3.6,3.2c1.7,0.8,4.5-0.7,8.3,1.7
				s3.3,6.3,5.8,6.4c2.6,0.2,3.9,1.6,4.1,3.2c0.3,1.7,1.9,3.5,3.8,3.6c1.1,0.1,2.6,1,3.6,2.4C1002.1,503.9,999.4,501.6,997.6,501.5z
				"/>
			
				<linearGradient id="SVGID_30_" gradientUnits="userSpaceOnUse" x1="774.6193" y1="1097.6467" x2="774.6193" y2="1094.7186" gradientTransform="matrix(3.0547 -3.0547 -3.0547 -3.0547 1938.1097 6262.2495)">
				<stop  offset="0" style="stop-color:#7A2917"/>
				<stop  offset="0.2543" style="stop-color:#822F19"/>
				<stop  offset="0.6398" style="stop-color:#973F1F"/>
				<stop  offset="0.9983" style="stop-color:#B05226"/>
			</linearGradient>
			<path fill="url(#SVGID_30_)" d="M992.2,516.4c2.8,2.8-12.1,18.2-30.7,36.8c-18.7,18.7-33.7,33.9-36.8,30.7
				c-3.1-3.1,12.1-18.2,30.7-36.8C974,528.5,989,513.1,992.2,516.4z"/>
			
				<linearGradient id="SVGID_31_" gradientUnits="userSpaceOnUse" x1="774.6354" y1="1106.7325" x2="774.6354" y2="1103.8044" gradientTransform="matrix(3.0547 -3.0547 -3.0547 -3.0547 1938.1097 6262.2495)">
				<stop  offset="0" style="stop-color:#7A2917"/>
				<stop  offset="0.2543" style="stop-color:#822F19"/>
				<stop  offset="0.6398" style="stop-color:#973F1F"/>
				<stop  offset="0.9983" style="stop-color:#B05226"/>
			</linearGradient>
			<path fill="url(#SVGID_31_)" d="M964.5,488.6c2.8,2.8-12.1,18.2-30.7,36.8c-18.7,18.7-33.7,33.9-36.8,30.7
				c-3.1-3.1,12.1-18.2,30.7-36.8S961.2,485.3,964.5,488.6z"/>
			
				<linearGradient id="SVGID_32_" gradientUnits="userSpaceOnUse" x1="774.6354" y1="1102.1896" x2="774.6354" y2="1099.262" gradientTransform="matrix(3.0547 -3.0547 -3.0547 -3.0547 1938.1097 6262.2495)">
				<stop  offset="0" style="stop-color:#7A2917"/>
				<stop  offset="0.2543" style="stop-color:#822F19"/>
				<stop  offset="0.6398" style="stop-color:#973F1F"/>
				<stop  offset="0.9983" style="stop-color:#B05226"/>
			</linearGradient>
			<path fill="url(#SVGID_32_)" d="M978.4,502.4c2.8,2.8-12.1,18.2-30.7,36.8S914,573.1,910.8,570c-3.1-3.1,12.1-18.2,30.7-36.8
				C960.2,514.5,975.1,499.2,978.4,502.4z"/>
			
				<linearGradient id="SVGID_33_" gradientUnits="userSpaceOnUse" x1="774.6354" y1="1093.1038" x2="774.6354" y2="1090.1759" gradientTransform="matrix(3.0547 -3.0547 -3.0547 -3.0547 1938.1097 6262.2495)">
				<stop  offset="0" style="stop-color:#7A2917"/>
				<stop  offset="0.2543" style="stop-color:#822F19"/>
				<stop  offset="0.6398" style="stop-color:#973F1F"/>
				<stop  offset="0.9983" style="stop-color:#B05226"/>
			</linearGradient>
			<path fill="url(#SVGID_33_)" d="M1006.1,530.2c2.8,2.8-12.1,18.2-30.7,36.8s-33.7,33.9-36.8,30.7c-3.1-3.1,12.1-18.2,30.7-36.8
				S1002.8,526.9,1006.1,530.2z"/>
			
				<linearGradient id="SVGID_34_" gradientUnits="userSpaceOnUse" x1="119.217" y1="950.4315" x2="117.4424" y2="948.657" gradientTransform="matrix(4.32 0 0 -4.32 420.0001 4665.6001)">
				<stop  offset="0" style="stop-color:#7A2917"/>
				<stop  offset="0.2543" style="stop-color:#822F19"/>
				<stop  offset="0.6398" style="stop-color:#973F1F"/>
				<stop  offset="0.9983" style="stop-color:#B05226"/>
			</linearGradient>
			<path fill="url(#SVGID_34_)" d="M951.8,585.4c1.3-3.1-0.4-6.1-0.4-6.1l-0.2-0.6c-2.5-2.6-5.1-5.2-7.9-8.1c-1.6-0.2-4-0.3-5.9,0.4
				c1-2.5,0.4-5.1,0.1-6.1c-1.3-1.3-2.6-2.6-3.9-3.9c-1.4-1.4-2.7-2.7-4.1-4.1c-1.6-0.2-4-0.3-5.8,0.4c1-2.5,0.4-5,0.1-6.1
				c-2.7-2.7-5.4-5.4-8-7.8c-1.2-0.2-3.9-0.9-6,0c1.1-2.7,0-5.2-0.3-5.9c-6.5-5.8-11.1-8.8-12.7-7.3s1.7,6.4,7.8,13.2
				c1.2,0.5,3.1,0.9,5.1,0.1c-0.7,1.8-0.4,3.9-0.1,5.3c2.6,2.7,5.4,5.6,8.4,8.6c1.4,0.4,3.6,0.8,5.5-0.1c-0.6,1.8-0.5,3.8-0.3,5.3
				c1.5,1.5,2.8,2.8,4.3,4.3c1.4,1.4,2.7,2.7,4.1,4.1c1.4,0.4,3.6,0.8,5.6,0c-0.6,1.7-0.5,3.8-0.3,5.3c3.2,3.1,6.3,6.1,9.1,8.7
				C947.2,585.7,949.5,586.4,951.8,585.4c-0.7,1.6-0.6,3.3-0.4,4.6c6.8,6,11.6,9.2,13.1,7.9c1.7-1.7-1.4-6.2-7.1-12.6
				C956,585,953.6,584.6,951.8,585.4z"/>
			
				<linearGradient id="SVGID_35_" gradientUnits="userSpaceOnUse" x1="122.4349" y1="953.6381" x2="120.6603" y2="951.8635" gradientTransform="matrix(4.32 0 0 -4.32 420.0001 4665.6001)">
				<stop  offset="0" style="stop-color:#7A2917"/>
				<stop  offset="0.2543" style="stop-color:#822F19"/>
				<stop  offset="0.6398" style="stop-color:#973F1F"/>
				<stop  offset="0.9983" style="stop-color:#B05226"/>
			</linearGradient>
			<path fill="url(#SVGID_35_)" d="M965.8,571.4c1.2-3-0.5-6-0.5-6l-0.2-0.6c-2.4-2.5-5-5.1-7.8-7.9c-1.6-0.3-4.1-0.6-6,0.1
				c1.1-2.7,0.2-5.4-0.1-6.2c-1.3-1.3-2.5-2.5-3.7-3.7c-1.4-1.4-2.7-2.7-3.9-3.9c-1.6-0.3-4.1-0.6-6,0.1c1.1-2.7,0.2-5.3-0.1-6.2
				c-2.7-2.7-5.4-5.3-7.8-7.7c-1.2-0.3-3.8-0.9-5.9-0.1c1-2.6,0-5-0.4-5.7c-6.6-5.8-11.1-8.9-12.8-7.3c-1.6,1.6,1.6,6.2,7.5,12.9
				c0.9,0.4,3.1,1.3,5.5,0.3c-0.8,2.1-0.2,4.5,0.1,5.8c2.4,2.5,4.9,5.1,7.7,7.9c1.3,0.5,3.8,1.2,6.1,0.3c-0.7,2-0.2,4.4,0.1,5.9
				c1.3,1.3,2.6,2.6,3.9,3.9c1.3,1.3,2.5,2.5,3.7,3.7c1.3,0.5,3.8,1.3,6.1,0.3c-0.7,2-0.2,4.3,0.1,5.8c2.8,2.8,5.7,5.5,8.2,8h0.1
				c0,0,2.9,1.7,6,0.5c-0.6,1.7-0.3,3.5-0.1,4.9c6.7,5.9,11.3,8.9,12.8,7.6c1.7-1.7-1.4-6.2-7.1-12.6
				C969.8,571.1,967.6,570.7,965.8,571.4z"/>
			
				<linearGradient id="SVGID_36_" gradientUnits="userSpaceOnUse" x1="128.8039" y1="960.1183" x2="127.0294" y2="958.3438" gradientTransform="matrix(4.32 0 0 -4.32 420.0001 4665.6001)">
				<stop  offset="0" style="stop-color:#7A2917"/>
				<stop  offset="0.2543" style="stop-color:#822F19"/>
				<stop  offset="0.6398" style="stop-color:#973F1F"/>
				<stop  offset="0.9983" style="stop-color:#B05226"/>
			</linearGradient>
			<path fill="url(#SVGID_36_)" d="M998.4,543.1c-1.5-0.2-3.4-0.3-5.1,0.3c0.9-2.1,0.4-4.4-0.1-5.8c-2.6-2.7-5.5-5.6-8.5-8.7
				c-1.6-0.2-3.8-0.3-5.6,0.4c0.9-2.2,0.5-4.5,0.2-5.8c-1.4-1.4-2.7-2.7-4.1-4.1c-1.5-1.5-2.8-2.9-4.3-4.3c-1.6-0.2-3.8-0.3-5.6,0.4
				c0.9-2.2,0.5-4.5,0.2-5.7c-3-3-5.9-5.8-8.5-8.3c-1.4-0.3-3.7-0.7-5.7,0c0.9-2.3,0.3-4.3-0.1-5.4c-6.6-5.9-11.2-9-12.9-7.4
				c-1.6,1.6,1.5,6.2,7.3,12.7c1.1,0.5,3.3,1.2,5.5,0.3c-0.7,2.1-0.2,4.5,0.1,5.8c2.5,2.6,5.1,5.3,8,8.1c1.4,0.4,3.7,0.9,5.9,0.1
				c-0.7,1.9-0.5,4.1-0.2,5.6c1.4,1.4,2.7,2.7,4.1,4.1c1.3,1.3,2.7,2.7,3.9,3.9c1.3,0.4,3.8,1,5.9,0.1c-0.7,1.9-0.5,4.1-0.2,5.6
				c2.9,2.8,5.7,5.5,8.2,8c0.7,0.4,3.4,1.7,6.1,0.6c-0.6,1.7-0.3,3.6,0,5c6.8,5.9,11.4,9.1,12.9,7.7
				C1007.7,554.6,1004.5,549.8,998.4,543.1z"/>
			
				<linearGradient id="SVGID_37_" gradientUnits="userSpaceOnUse" x1="125.6184" y1="956.8784" x2="123.8444" y2="955.1044" gradientTransform="matrix(4.32 0 0 -4.32 420.0001 4665.6001)">
				<stop  offset="0" style="stop-color:#7A2917"/>
				<stop  offset="0.2543" style="stop-color:#822F19"/>
				<stop  offset="0.6398" style="stop-color:#973F1F"/>
				<stop  offset="0.9983" style="stop-color:#B05226"/>
			</linearGradient>
			<path fill="url(#SVGID_37_)" d="M979.6,557.4c1.2-3-0.5-6-0.5-6l-0.2-0.5c-2.4-2.5-5-5.1-7.8-7.9c-1.6-0.3-4.1-0.6-6,0.1
				c1.1-2.7,0.1-5.5-0.1-6.2c-1.3-1.2-2.5-2.5-3.7-3.7c-1.4-1.4-2.7-2.7-3.9-3.9c-1.6-0.3-4.1-0.6-6,0.1c1.1-2.7,0.2-5.5-0.1-6.2
				c-2.7-2.7-5.4-5.3-7.8-7.7c-1.3-0.3-3.8-0.9-5.9-0.1c1-2.5,0-4.8-0.4-5.7c-6.6-5.9-11.2-8.9-12.8-7.4c-1.6,1.6,1.6,6.2,7.4,12.8
				c0.9,0.4,3.2,1.3,5.6,0.4c-0.8,2.1-0.1,4.6,0.1,5.9c2.4,2.5,4.9,5.1,7.7,7.9c1.3,0.5,3.7,1.2,6,0.3c-0.7,2-0.2,4.4,0.1,5.8
				c1.3,1.3,2.6,2.6,3.9,3.9c1.3,1.3,2.6,2.6,3.7,3.7c1.3,0.5,3.8,1.2,6,0.3c-0.7,2-0.2,4.3,0.1,5.7c2.8,2.8,5.6,5.5,8.1,7.9
				l0.2,0.1c0,0,2.9,1.7,6,0.5c-0.6,1.7-0.3,3.6-0.1,5c6.7,5.8,11.3,8.9,12.7,7.6c1.7-1.7-1.4-6.2-7.2-12.7
				C983.7,557.2,981.5,556.7,979.6,557.4z"/>
			<circle fill="#C47A30" cx="954.4" cy="548" r="2.7"/>
			<circle fill="#C47A30" cx="962.3" cy="533.5" r="2.7"/>
			<circle fill="#C47A30" cx="968.6" cy="542.6" r="2.7"/>
			<circle fill="#C47A30" cx="966.5" cy="559.5" r="2.7"/>
			<circle fill="#C47A30" cx="938.3" cy="558" r="2.7"/>
			<circle fill="#C47A30" cx="945.5" cy="568.3" r="2.7"/>
			<circle fill="#C47A30" cx="943.4" cy="541.5" r="2.7"/>
			<circle fill="#C47A30" cx="932.8" cy="526.5" r="2.7"/>
			<circle fill="#C47A30" cx="948.7" cy="523" r="2.7"/>
			<circle fill="#D88C4A" cx="955.6" cy="511.3" r="2.7"/>
			<circle fill="#C47A30" cx="976.1" cy="516.7" r="2.7"/>
			<circle fill="#C47A30" cx="979.2" cy="538.5" r="2.7"/>
			<circle fill="#C47A30" cx="979.6" cy="557.4" r="2.7"/>
			<circle fill="#C47A30" cx="982.3" cy="580.4" r="2.7"/>
			<circle fill="#C47A30" cx="934.6" cy="586.4" r="2.7"/>
			<circle fill="#C47A30" cx="953.8" cy="574.2" r="2.7"/>
			<circle fill="#C47A30" cx="917.1" cy="569.1" r="2.7"/>
			<circle fill="#C47A30" cx="909.7" cy="549.4" r="2.7"/>
			<circle fill="#C47A30" cx="919.4" cy="542.5" r="2.7"/>
			<circle fill="#D88C4A" cx="915.9" cy="512.1" r="2.7"/>
			<circle fill="#D88C4A" cx="937.2" cy="502.9" r="2.7"/>
			<circle fill="#C47A30" cx="992.3" cy="529.8" r="2.7"/>
			<circle fill="#C47A30" cx="984.3" cy="516.4" r="2.7"/>
			<circle fill="#C47A30" cx="991" cy="561.4" r="2.7"/>
			<path fill="#505E12" d="M956.6,528.7c3.6,0.1,9-5.3,9.3-7.7c0.2-1.7-4.6,0.5-4.8-1.6c-0.2-1.5-0.4-4.2-0.9-5.9
				c-0.2-0.7-0.6-0.7-1-0.2c-1.2,1.3-2.5,3.7-3.1,5c-1,1.8-4.5-2.3-5-0.5C950.4,520.1,953.2,527.3,956.6,528.7
				C956.4,528.7,956.6,528.7,956.6,528.7z M937.9,539.4c-1.4-1-1.7,4.3-3.6,3.5c-1.5-0.5-3.9-1.6-5.6-1.9c-0.7-0.1-0.9,0.2-0.7,0.8
				c0.6,1.6,2.2,3.8,3,5.1c1.1,1.7-4,2.9-2.7,4.3c1.7,1.7,9.3,2.4,12.1,0l0.1-0.1C942.2,547.9,939.9,540.6,937.9,539.4z
				 M971.7,547.5c-1.6-0.6-4.3-0.8-5.9-1c-2.1-0.3,0.4-5-1.6-4.8c-2.4,0.2-7.9,5.6-7.8,9.2v0.2c1.4,3.3,8.4,6.2,10.7,5.6
				c1.7-0.5-2.2-4-0.4-5c1.4-0.8,3.7-2,5-3.1C972.5,548.1,972.4,547.7,971.7,547.5z M1000.5,544.8L1000.5,544.8
				c-2.9-1.3-8.8,1.3-9.8,3c-0.7,1.3,3.7,1.1,3.2,2.7c-0.3,1.3-1,3.4-1.1,4.9c0,0.6,0.2,0.7,0.8,0.5c1.3-0.6,3-2.2,4-2.9
				c1.4-1.1,2.8,3.1,3.8,2C1002.6,553.4,1002.6,546.9,1000.5,544.8z M957.9,578.2L957.9,578.2c-2.5,2.1-2.8,8.4-1.7,10.1
				c0.8,1.2,2.7-2.8,3.9-1.7c1,0.9,2.7,2.5,3.8,3.1c0.5,0.3,0.8,0.1,0.8-0.4c0-1.5-0.5-3.6-0.8-4.9c-0.4-1.7,4.1-1.1,3.4-2.6
				C966.6,580.1,960.8,577.3,957.9,578.2z M923.1,577.7c0.7-1.1,1.9-3,2.4-4.4c0.2-0.5,0-0.8-0.6-0.7c-1.4,0.3-3.4,1.3-4.7,1.8
				c-1.6,0.7-1.9-3.8-3.1-2.8c-1.7,1.2-3.3,7.4-1.8,10l0.1,0.1c2.5,1.9,8.7,1,10.2-0.5C926.5,580.3,922.2,579.3,923.1,577.7z
				 M921.8,525.8C921.8,525.8,921.9,525.7,921.8,525.8c1.8-2.7,0.5-8.9-1-10.2c-1.1-1-1.8,3.4-3.3,2.7c-1.2-0.6-3.1-1.7-4.5-2.1
				c-0.6-0.2-0.8,0.1-0.6,0.6c0.4,1.4,1.5,3.4,2.1,4.5c0.8,1.6-3.6,2.1-2.7,3.3C912.9,526.2,919.3,527.5,921.8,525.8z M979.8,505.1
				c-1.2-0.6-3.1-1.7-4.5-2.1c-0.6-0.2-0.8,0.1-0.6,0.6c0.4,1.4,1.5,3.4,2.1,4.5c0.8,1.6-3.6,2.1-2.7,3.3c1.3,1.6,7.6,2.8,10.1,1.2
				l0.1-0.1c1.8-2.6,0.5-8.8-1.1-10.1C982.1,501.5,981.3,505.9,979.8,505.1z"/>
			<path fill="#697812" d="M959.3,580.8c-0.7,0.9-1.1,2.7-1.2,4.3c0.5-0.3,1.1-0.5,1.8-0.5c0.8,0,1.5,0.3,2.1,0.8c0,0,0,0,0.1,0.1
				v-0.1c-0.3-1.5,0.3-2.7,1.8-3.3c-1.3-0.7-2.8-1.3-4.2-1.3C959.5,580.8,959.4,580.8,959.3,580.8z M962.7,523.1
				c-3-0.2-3.5-2.3-3.5-2.9c0-0.3-0.1-0.6-0.1-0.9c0-0.2,0-0.4-0.1-0.6c-0.1,0.2-0.2,0.3-0.3,0.5c-0.2,0.3-0.3,0.6-0.5,0.8
				c-0.6,1-1.6,1.6-2.7,1.6c-0.6,0-1.2-0.2-1.7-0.4c0.7,2.1,2.1,4.8,3.4,5.7C958.9,526.6,961.2,524.7,962.7,523.1z M980.5,507.9
				L980.5,507.9c-0.5,0-1-0.1-1.4-0.3h-0.1v0.1c0.7,1.4,0.4,2.6-0.8,3.7c0.8,0.2,1.8,0.3,2.7,0.3c0.9,0,1.5-0.1,1.9-0.3
				c0.4-1,0.3-2.9,0-4.5C982.3,507.5,981.5,507.9,980.5,507.9z M999.4,547.2c-0.1,0-0.3,0-0.5,0c-1.3,0-2.7,0.5-3.9,1
				c1.4,0.9,1.9,2.1,1.5,3.4v0.1c0,0,0.1,0,0.1-0.1c0.6-0.5,1.2-0.7,1.9-0.7c0.8,0,1.4,0.3,1.9,0.7
				C1000.3,550.1,1000,548.2,999.4,547.2z M935,545.7L935,545.7c-0.4,0-0.8-0.1-1.2-0.2c-0.3-0.1-0.5-0.2-0.9-0.3
				c-0.2-0.1-0.3-0.1-0.5-0.2c0.1,0.2,0.2,0.3,0.3,0.5c0.2,0.3,0.4,0.5,0.5,0.8c1.3,2,0.1,3.5-1,4.5c0.7,0.1,1.6,0.2,2.7,0.2
				c2,0,3.3-0.4,4-0.8c0.5-1.6-0.1-4.5-0.9-6.5C937.4,544.8,936.5,545.7,935,545.7z M921.4,577.2
				C921.5,577.1,921.5,577.1,921.4,577.2C921.5,577.1,921.4,577.1,921.4,577.2c-0.4,0.1-0.9,0.2-1.3,0.2l0,0c-1.1,0-1.9-0.6-2.5-1.3
				c-0.4,1.6-0.7,3.4-0.3,4.5c0.5,0.2,1.3,0.4,2.6,0.4c0.7,0,1.4-0.1,2.1-0.2C920.8,579.6,920.7,578.4,921.4,577.2z M918.6,524.8
				c0.9,0,1.5-0.1,1.9-0.3c0.4-1,0.3-2.9,0-4.5c-0.6,0.6-1.3,1.1-2.4,1.1l0,0c-0.5,0-1-0.1-1.4-0.4h-0.1v0.1
				c0.7,1.4,0.4,2.6-0.8,3.7C916.7,524.6,917.7,524.8,918.6,524.8z M965.9,549.3c-2.3-0.3-2.8-2.2-2.8-3.6c-1.7,1.4-3.6,3.7-3.8,5.4
				c0.8,1.3,3.4,2.8,5.6,3.5c-0.5-1.4-0.7-3.3,1.3-4.4c0.2-0.1,0.5-0.3,0.8-0.4c0.2-0.1,0.3-0.2,0.5-0.3c-0.2,0-0.4,0-0.6-0.1
				C966.5,549.4,966.2,549.3,965.9,549.3z"/>
		</g>
		<g>
			<circle fill="#BF5400" cx="972.6" cy="529.6" r="79.2"/>
			
				<radialGradient id="SVGID_38_" cx="125.9918" cy="960.4668" r="21.3374" gradientTransform="matrix(4.32 0 0 -4.32 420.0001 4665.6001)" gradientUnits="userSpaceOnUse">
				<stop  offset="2.709790e-02" style="stop-color:#FFDC7D"/>
				<stop  offset="0.1828" style="stop-color:#FDD676"/>
				<stop  offset="0.403" style="stop-color:#F8C464"/>
				<stop  offset="0.6583" style="stop-color:#EFA846"/>
				<stop  offset="0.7528" style="stop-color:#E89D3C"/>
				<stop  offset="0.9191" style="stop-color:#D57F20"/>
				<stop  offset="0.9695" style="stop-color:#CF7516"/>
			</radialGradient>
			<circle fill="url(#SVGID_38_)" cx="972.6" cy="529.6" r="77.6"/>
			
				<radialGradient id="SVGID_39_" cx="127.7748" cy="956.6632" r="14.6147" gradientTransform="matrix(4.32 0 0 -4.32 420.0001 4665.6001)" gradientUnits="userSpaceOnUse">
				<stop  offset="0" style="stop-color:#FFC266"/>
				<stop  offset="0.2232" style="stop-color:#FCBC5F"/>
				<stop  offset="0.5389" style="stop-color:#F2AD4D"/>
				<stop  offset="0.9082" style="stop-color:#E2932F"/>
				<stop  offset="1" style="stop-color:#DE8C26"/>
			</radialGradient>
			<path fill="url(#SVGID_39_)" d="M972.3,500.4c-2,0-3.1,1.8-3.1,3.7c0,1.3,1.2,3.2,2.2,4.4c0.6,0.7-0.1,1.2,1,1.2
				c0.9,0,0.4-0.7,0.9-1.2c1.2-1.2,2.4-3,2.4-4.4C975.4,502.2,974.2,500.4,972.3,500.4z M955.5,496.6c1.6,0.5,3.7,0.6,5-0.1
				c1.7-1,2.7-2.9,1.7-4.6c-1-1.7-3-2-4.8-1c-1.1,0.6-2.2,2.7-2.7,4.1c-0.3,0.8-1.1,0.5-0.6,1.5
				C954.5,497.1,954.9,496.4,955.5,496.6z M979.4,489.5c0.7,0.5,0.3,1.2,1.3,0.9c0.9-0.2,0.2-0.8,0.5-1.4c0.8-1.5,1.5-3.5,1.1-4.8
				c-0.5-1.9-2.2-3.2-4.1-2.7c-1.9,0.5-2.7,2.6-2.1,4.4C976.5,487,978.2,488.6,979.4,489.5z M990.7,504c1.6,0.5,3.7,0.6,5-0.1
				c1.7-1,2.7-2.9,1.7-4.6c-1-1.7-3-2-4.8-1c-1.1,0.6-2.2,2.7-2.7,4.1c-0.3,0.8-1.1,0.5-0.6,1.5C989.7,504.7,990,503.9,990.7,504z
				 M1010.1,482.5c0.2-1.8-1.2-3-2.9-3.2c-1.1-0.1-2.9,0.7-4.1,1.5c-0.7,0.4-1.1-0.2-1.2,0.8c-0.1,0.8,0.6,0.4,1,0.9
				c0.9,1.2,2.4,2.4,3.6,2.6C1008.1,485.1,1009.8,484.2,1010.1,482.5z M1021.8,491.8c-0.8-0.1-0.4,0.6-0.9,1
				c-1.2,0.9-2.5,2.4-2.6,3.6c-0.2,1.8,0.7,3.4,2.5,3.6c1.8,0.2,3-1.2,3.2-2.8c0.1-1.1-0.7-2.9-1.5-4.1
				C1022.1,492.3,1022.7,491.9,1021.8,491.8z M1032.3,521.9c-1-0.5-3-0.3-4.4-0.1c-0.8,0.2-0.9-0.5-1.4,0.3
				c-0.4,0.7,0.4,0.6,0.6,1.2c0.5,1.4,1.5,3,2.6,3.6c1.6,0.8,3.4,0.5,4.2-1.1C1034.6,524.3,1033.7,522.7,1032.3,521.9z M1026.2,550
				c-0.8,0.8-1.1,2.8-1.2,4.2c-0.1,0.8-0.8,0.8-0.1,1.4c0.6,0.5,0.7-0.2,1.3-0.3c1.5-0.1,3.3-0.6,4.1-1.5c1.2-1.3,1.4-3.2,0.1-4.4
				C1029.2,548.3,1027.4,548.7,1026.2,550z M1017.8,559.3c-0.6-0.5-0.1-1.1-1.1-0.9c-0.8,0.1-0.2,0.7-0.6,1.2
				c-0.9,1.2-1.6,2.9-1.4,4.2c0.3,1.8,1.7,3,3.3,2.8c1.8-0.3,2.6-2,2.3-3.7C1020.2,561.7,1018.8,560.2,1017.8,559.3z M1000.2,583.8
				c-1.1-0.3-3,0.2-4.3,0.8c-0.8,0.3-1-0.4-1.3,0.5c-0.2,0.8,0.5,0.5,0.8,1.1c0.7,1.3,2,2.7,3.1,3.1c1.7,0.5,3.5-0.1,4-1.8
				C1003,585.8,1001.8,584.3,1000.2,583.8z M968.2,588.7c-0.8-0.1-0.5,0.6-1,0.9c-1.2,0.9-2.6,2.3-2.7,3.4c-0.3,1.8,0.5,3.4,2.3,3.8
				c1.8,0.3,3-1,3.3-2.7c0.2-1.1-0.6-3-1.2-4.2C968.4,589.2,969,588.8,968.2,588.7z M955.9,586.1c-1.1-0.4-3,0.1-4.3,0.6
				c-0.8,0.3-1-0.4-1.3,0.5c-0.3,0.8,0.5,0.5,0.8,1.1c0.7,1.3,1.9,2.8,3,3.2c1.7,0.6,3.5,0,4-1.7
				C958.6,588.2,957.6,586.7,955.9,586.1z M931.2,571.7c-0.8-0.2-0.5,0.6-1,0.9c-1.2,0.8-2.6,2.3-2.7,3.4c-0.3,1.8,0.5,3.4,2.2,3.8
				c1.8,0.3,3-1,3.4-2.7c0.2-1.1-0.5-3-1.2-4.2C931.5,572.2,932.2,571.9,931.2,571.7z M918,551.5c-0.8-1.3-2.2-2.7-3.3-2.8
				c-1.7-0.4-3.4,0.4-3.8,2.1c-0.4,1.7,0.9,3.1,2.6,3.4c1.1,0.2,3-0.5,4.2-1.1c0.7-0.4,1,0.3,1.3-0.6
				C919.1,551.7,918.3,552,918,551.5z M915.2,536.7c0.7-0.9,0.8-2.9,0.8-4.3c0-0.8,0.7-0.8-0.1-1.4c-0.7-0.5-0.7,0.3-1.3,0.4
				c-1.5,0.2-3.2,0.9-4,1.9c-1.1,1.4-1.1,3.3,0.3,4.4C912.4,538.7,914.3,538.1,915.2,536.7z M922.3,495.7c-0.7-0.5-0.7,0.3-1.3,0.4
				c-1.5,0.2-3.2,0.9-4,1.9c-1.1,1.4-1.1,3.3,0.3,4.4c1.4,1.1,3.2,0.5,4.2-1c0.7-0.9,0.8-2.9,0.8-4.3
				C922.4,496.3,923.1,496.3,922.3,495.7z M945.9,484.2c1.4-1.1,1.3-2.9,0.2-4.3c-0.7-0.9-2.7-1.6-3.9-2c-0.8-0.2-0.6-0.9-1.4-0.3
				c-0.6,0.5,0.1,0.7,0,1.3c-0.2,1.5,0,3.4,0.8,4.4C942.6,484.7,944.5,485.3,945.9,484.2z M971.6,474.3c1.1-0.3,2.5-1.8,3.3-2.8
				c0.5-0.6,1.1-0.2,0.8-1.1c-0.2-0.8-0.7-0.2-1.2-0.5c-1.3-0.8-3.1-1.4-4.3-1.1c-1.7,0.4-2.9,1.9-2.6,3.6
				C968.2,474.1,969.9,474.7,971.6,474.3z M961.6,522.6c1,0.8,3.2,1.2,4.8,1.3c0.9,0,0.9,0.9,1.6,0.1c0.6-0.7-0.3-0.8-0.3-1.5
				c-0.1-1.7-0.7-3.7-1.8-4.7c-1.5-1.3-3.6-1.6-4.9-0.1C959.6,519.1,960.1,521.2,961.6,522.6z M938.1,551c-2,0.1-3.1,1.9-3,3.8
				c0,1.3,1.4,3.1,2.4,4.3c0.6,0.7,0,1.2,1.1,1.2c0.9,0,0.4-0.7,0.8-1.2c1.1-1.2,2.3-3,2.2-4.5C941.4,552.6,940.1,550.9,938.1,551z
				 M1018.4,543.4c0.6-0.7-0.3-0.8-0.3-1.5c-0.1-1.7-0.7-3.7-1.8-4.6c-1.5-1.3-3.6-1.6-4.9-0.1c-1.3,1.5-0.8,3.5,0.7,4.8
				c1,0.8,3.2,1.2,4.8,1.3C1017.7,543.4,1017.7,544.2,1018.4,543.4z M948.7,513.4c0.9,0,0.9,0.9,1.6,0.1c0.6-0.7-0.3-0.8-0.3-1.5
				c-0.1-1.7-0.7-3.7-1.8-4.7c-1.5-1.3-3.6-1.6-4.9-0.1c-1.3,1.5-0.8,3.5,0.7,4.8C944.9,513,947.1,513.3,948.7,513.4z M932,526.7
				c0.6-0.7-0.3-0.8-0.3-1.5c-0.1-1.7-0.7-3.7-1.8-4.6c-1.5-1.3-3.6-1.6-4.9-0.1c-1.3,1.5-0.8,3.5,0.7,4.8c1,0.8,3.2,1.2,4.8,1.3
				C931.4,526.7,931.3,527.5,932,526.7z M952,531.4c0.6-0.7,1.2-0.2,1-1.2c-0.2-0.9-0.8-0.2-1.4-0.6c-1.4-0.9-3.4-1.7-4.8-1.4
				c-2,0.4-3.4,2-3,3.9s2.4,2.7,4.2,2.4C949.3,534.3,951,532.6,952,531.4z M954,548.1c-2,0.4-3.4,2-3,3.9c0.4,2,2.4,2.7,4.2,2.4
				c1.2-0.3,2.8-1.9,3.9-3c0.6-0.7,1.2-0.2,1-1.2c-0.2-0.9-0.8-0.2-1.4-0.6C957.5,548.6,955.4,547.8,954,548.1z M959.8,566.5
				c-1.4-0.9-3.4-1.7-4.8-1.4c-2,0.4-3.4,2-3,3.9c0.4,2,2.4,2.7,4.2,2.4c1.2-0.3,2.8-1.9,3.9-3c0.6-0.7,1.2-0.2,1-1.2
				C961,566.2,960.3,566.8,959.8,566.5z M976.9,569.5c-0.9,0-0.4,0.7-0.9,1.2c-1.2,1.2-2.4,3-2.3,4.4c0,2,1.3,3.7,3.2,3.7
				s3.1-1.8,3.1-3.7c0-1.3-1.3-3.1-2.3-4.4C977.4,570,978,569.5,976.9,569.5z M975.1,532.7c1.2-0.4,2.7-2.2,3.5-3.4
				c0.5-0.8,1.2-0.3,0.9-1.3c-0.3-0.9-0.8-0.2-1.4-0.5c-1.5-0.8-3.5-1.3-4.9-0.9c-1.9,0.6-3.1,2.4-2.6,4.2
				C971.3,532.6,973.3,533.3,975.1,532.7z M977.4,544.6c1.1-1.7,0.9-3.8-0.8-4.9c-1.7-1.1-3.6-0.2-4.6,1.5c-0.7,1.1-0.7,3.3-0.5,4.9
				c0.1,0.9-0.7,1,0.2,1.6c0.8,0.5,0.7-0.4,1.4-0.6C974.6,546.7,976.6,545.7,977.4,544.6z M992.6,539.7c-1.5-0.8-3.5-1.3-4.9-0.9
				c-1.9,0.6-3.1,2.4-2.6,4.2c0.6,1.9,2.7,2.6,4.5,2c1.2-0.4,2.7-2.2,3.5-3.4c0.5-0.8,1.2-0.3,0.9-1.3
				C993.8,539.4,993.2,540,992.6,539.7z M966,537.4c-0.2-2-1.7-3.5-3.6-3.3c-2,0.2-2.9,2.1-2.7,4c0.1,1.3,1.6,3,2.7,4.1
				c0.6,0.6,0.1,1.2,1.1,1.1c0.9-0.1,0.3-0.8,0.7-1.3C965.2,540.7,966.2,538.8,966,537.4z M979.5,554.5c-1.6-1.2-3.5-0.6-4.8,1
				c-0.8,1-1,3.2-1,4.8c0,0.9-0.8,0.9,0.1,1.6c0.7,0.6,0.8-0.3,1.4-0.4c1.7-0.2,3.6-1,4.5-2.1C981.1,557.8,981.1,555.7,979.5,554.5z
				 M979.5,515.2c-1.2,0.4-2.6,2.3-3.3,3.6c-0.5,0.8-1.2,0.4-0.8,1.4c0.3,0.9,0.8,0.1,1.5,0.4c1.5,0.7,3.6,1.2,4.9,0.7
				c1.9-0.7,3-2.5,2.4-4.3S981.4,514.5,979.5,515.2z M996.2,531c0.9-0.2,0.3-0.8,0.7-1.4c1-1.4,1.8-3.3,1.6-4.7
				c-0.3-2-1.9-3.4-3.8-3.1c-2,0.3-2.8,2.3-2.5,4.2c0.2,1.3,1.8,2.9,2.9,3.9C995.7,530.6,995.3,531.2,996.2,531z M1013.7,513.5
				c0.4-2-0.5-3.9-2.5-4.2c-2-0.4-3.4,1.1-3.8,3c-0.2,1.3,0.6,3.3,1.4,4.7c0.4,0.8-0.3,1.2,0.8,1.4c0.9,0.2,0.5-0.6,1.1-1
				C1011.9,516.5,1013.4,514.9,1013.7,513.5z M999.4,559.2c-1.2,0.4-2.6,2.3-3.3,3.6c-0.5,0.8-1.2,0.4-0.8,1.4
				c0.3,0.9,0.8,0.1,1.4,0.4c1.5,0.7,3.6,1.2,4.9,0.7c1.9-0.7,3-2.5,2.4-4.3C1003.2,559.1,1001.2,558.5,999.4,559.2z"/>
			<path fill="#FFEBB8" d="M971.9,499.1c-2,0-3.1,1.8-3.1,3.7c0,1.3,1.2,3.2,2.2,4.4c0.6,0.7-0.1,1.2,1,1.2c0.9,0,0.4-0.7,0.9-1.2
				c1.2-1.2,2.4-3,2.4-4.4C975,500.9,973.8,499.1,971.9,499.1z M955.1,495.2c1.6,0.5,3.7,0.6,5-0.1c1.7-1,2.7-2.9,1.7-4.6
				c-1-1.7-3-2-4.8-1c-1.1,0.6-2.2,2.7-2.7,4.1c-0.3,0.8-1.1,0.5-0.6,1.5C954.1,495.9,954.5,495.1,955.1,495.2z M979.1,488.2
				c0.7,0.5,0.3,1.2,1.3,0.9c0.9-0.2,0.2-0.8,0.5-1.4c0.8-1.5,1.5-3.5,1.1-4.8c-0.5-1.9-2.2-3.2-4.1-2.7c-1.9,0.5-2.7,2.6-2.1,4.4
				C976.1,485.8,977.8,487.3,979.1,488.2z M990.3,502.7c1.6,0.5,3.7,0.6,5-0.1c1.7-1,2.7-2.9,1.7-4.6c-1-1.7-3-2-4.8-1
				c-1.1,0.6-2.2,2.7-2.7,4.1c-0.3,0.8-1.1,0.5-0.6,1.5C989.3,503.3,989.7,502.5,990.3,502.7z M1009.7,481.1c0.2-1.8-1.2-3-2.9-3.2
				c-1.1-0.1-2.9,0.7-4.1,1.5c-0.7,0.4-1.1-0.2-1.2,0.8c-0.1,0.8,0.6,0.4,1,0.9c0.9,1.2,2.4,2.4,3.6,2.6
				C1007.7,483.8,1009.4,482.9,1009.7,481.1z M1021.5,490.5c-0.8-0.1-0.4,0.6-0.9,1c-1.2,0.9-2.5,2.4-2.6,3.6
				c-0.2,1.8,0.7,3.4,2.5,3.6s3-1.2,3.2-2.8c0.1-1.1-0.7-2.9-1.5-4.1C1021.8,491,1022.3,490.7,1021.5,490.5z M1031.9,520.6
				c-1-0.5-3-0.3-4.4-0.1c-0.8,0.2-0.9-0.5-1.4,0.3c-0.4,0.7,0.4,0.6,0.6,1.2c0.5,1.4,1.5,3,2.6,3.6c1.6,0.8,3.4,0.5,4.2-1.1
				C1034.2,523.1,1033.3,521.4,1031.9,520.6z M1025.8,548.7c-0.8,0.8-1.1,2.8-1.2,4.2c0,0.8-0.8,0.8-0.1,1.4
				c0.6,0.5,0.7-0.2,1.3-0.3c1.5-0.1,3.3-0.6,4.1-1.5c1.2-1.3,1.4-3.2,0.1-4.4C1028.8,546.9,1027,547.3,1025.8,548.7z M1017.4,558
				c-0.6-0.5-0.1-1.1-1.1-0.9c-0.8,0.1-0.2,0.7-0.6,1.2c-0.9,1.2-1.6,2.9-1.4,4.2c0.3,1.8,1.7,3,3.3,2.8c1.8-0.3,2.6-2,2.3-3.7
				C1019.8,560.5,1018.4,558.9,1017.4,558z M999.8,582.6c-1.1-0.3-3,0.2-4.3,0.8c-0.8,0.3-1-0.4-1.3,0.6c-0.2,0.8,0.5,0.5,0.8,1.1
				c0.7,1.3,2,2.7,3.1,3.1c1.7,0.5,3.5-0.1,4-1.8C1002.6,584.5,1001.5,583,999.8,582.6z M967.8,587.4c-0.8-0.1-0.5,0.6-1,0.9
				c-1.2,0.9-2.6,2.3-2.7,3.4c-0.3,1.8,0.5,3.4,2.3,3.8c1.8,0.3,3-1,3.3-2.7c0.2-1.1-0.6-3-1.2-4.2
				C968.1,588,968.6,587.6,967.8,587.4z M955.5,584.8c-1.1-0.4-3,0.1-4.3,0.6c-0.8,0.3-1-0.4-1.3,0.5c-0.3,0.8,0.5,0.5,0.8,1.1
				c0.7,1.3,1.9,2.8,3,3.2c1.7,0.6,3.5,0,4-1.7C958.2,586.9,957.2,585.3,955.5,584.8z M930.8,570.4c-0.8-0.2-0.5,0.6-1,0.9
				c-1.2,0.8-2.6,2.3-2.7,3.4c-0.3,1.8,0.5,3.4,2.2,3.8c1.8,0.3,3-1,3.4-2.7c0.2-1.1-0.5-3-1.2-4.2
				C931.1,570.9,931.8,570.6,930.8,570.4z M917.6,550.2c-0.8-1.3-2.2-2.7-3.3-2.8c-1.7-0.4-3.4,0.4-3.8,2.1s0.9,3.1,2.6,3.4
				c1.1,0.2,3-0.5,4.2-1.1c0.7-0.4,1.1,0.3,1.3-0.6C918.7,550.5,917.9,550.7,917.6,550.2z M914.8,535.4c0.7-0.9,0.8-2.9,0.8-4.3
				c0-0.8,0.7-0.8-0.1-1.4c-0.7-0.5-0.7,0.3-1.3,0.4c-1.5,0.2-3.2,0.9-4,1.9c-1.1,1.4-1.1,3.3,0.3,4.4
				C912,537.4,913.9,536.8,914.8,535.4z M921.9,494.4c-0.7-0.5-0.7,0.3-1.3,0.4c-1.5,0.2-3.2,0.9-4,1.9c-1.1,1.4-1.1,3.3,0.3,4.4
				s3.2,0.5,4.2-1c0.7-0.9,0.8-2.9,0.8-4.3C922,495,922.7,495,921.9,494.4z M945.5,482.8c1.4-1.1,1.3-2.9,0.2-4.3
				c-0.7-0.9-2.7-1.6-3.9-1.9c-0.8-0.2-0.6-0.9-1.4-0.3c-0.6,0.5,0.1,0.7,0,1.3c-0.2,1.5,0,3.4,0.8,4.4
				C942.2,483.4,944.1,483.9,945.5,482.8z M971.2,473c1.1-0.3,2.5-1.8,3.3-2.8c0.5-0.6,1.1-0.2,0.8-1.1c-0.2-0.8-0.7-0.2-1.2-0.5
				c-1.3-0.8-3.1-1.4-4.3-1.1c-1.7,0.4-2.9,1.9-2.6,3.5C967.8,472.7,969.5,473.4,971.2,473z M961.2,521.2c1,0.8,3.2,1.2,4.8,1.3
				c0.9,0,0.9,0.9,1.6,0.1c0.6-0.7-0.3-0.8-0.3-1.5c-0.1-1.7-0.7-3.7-1.8-4.6c-1.5-1.3-3.6-1.6-4.9-0.1
				C959.2,517.9,959.7,519.9,961.2,521.2z M937.7,549.7c-2,0.1-3.1,1.9-3,3.8c0,1.3,1.4,3.1,2.4,4.3c0.6,0.7,0,1.2,1.1,1.2
				c0.9,0,0.4-0.7,0.8-1.2c1.1-1.2,2.3-3,2.2-4.5C941,551.3,939.7,549.6,937.7,549.7z M1018,542c0.6-0.7-0.3-0.8-0.3-1.5
				c-0.1-1.7-0.7-3.7-1.8-4.6c-1.5-1.3-3.6-1.6-4.9-0.1s-0.8,3.5,0.7,4.8c1,0.8,3.2,1.2,4.8,1.3C1017.3,542,1017.3,542.8,1018,542z
				 M948.3,512.2c0.9,0,0.9,0.9,1.6,0.1c0.6-0.7-0.3-0.8-0.3-1.5c-0.1-1.7-0.7-3.7-1.8-4.6c-1.5-1.3-3.6-1.6-4.9-0.1
				s-0.8,3.5,0.7,4.8C944.5,511.7,946.8,512.1,948.3,512.2z M931.6,525.4c0.6-0.7-0.3-0.8-0.3-1.5c-0.1-1.7-0.7-3.7-1.8-4.6
				c-1.5-1.3-3.6-1.6-4.9-0.1s-0.8,3.5,0.7,4.8c1,0.8,3.2,1.2,4.8,1.3C931,525.4,930.9,526.2,931.6,525.4z M951.6,530.1
				c0.6-0.7,1.2-0.2,1-1.2c-0.2-0.9-0.8-0.3-1.4-0.6c-1.4-0.9-3.4-1.7-4.8-1.4c-2,0.4-3.4,2-3,3.9s2.4,2.7,4.2,2.4
				C948.9,532.9,950.6,531.3,951.6,530.1z M953.6,546.8c-2,0.4-3.4,2-3,3.9c0.4,2,2.4,2.7,4.2,2.4c1.2-0.3,2.8-1.9,3.9-3
				c0.6-0.7,1.2-0.2,1-1.2c-0.2-0.9-0.8-0.3-1.4-0.6C957.1,547.3,955,546.5,953.6,546.8z M959.4,565.2c-1.4-0.9-3.4-1.7-4.8-1.4
				c-2,0.4-3.4,2-3,3.9c0.4,2,2.4,2.7,4.2,2.4c1.2-0.3,2.8-1.9,3.9-3c0.6-0.7,1.2-0.2,1-1.2C960.6,564.9,959.9,565.6,959.4,565.2z
				 M976.5,568.2c-0.9,0-0.4,0.7-0.9,1.2c-1.2,1.2-2.4,3-2.3,4.4c0,2,1.3,3.7,3.2,3.7s3.1-1.8,3.1-3.7c0-1.3-1.3-3.1-2.3-4.4
				C977,568.7,977.6,568.2,976.5,568.2z M974.7,531.3c1.2-0.4,2.7-2.2,3.5-3.4c0.5-0.8,1.2-0.3,0.9-1.3c-0.3-0.9-0.8-0.2-1.4-0.5
				c-1.5-0.8-3.5-1.3-4.9-0.9c-1.9,0.6-3.1,2.4-2.6,4.2C970.9,531.3,972.9,531.9,974.7,531.3z M977,543.3c1.1-1.7,0.9-3.8-0.8-4.9
				s-3.6-0.2-4.6,1.5c-0.7,1.1-0.7,3.3-0.5,4.9c0.1,0.9-0.7,1,0.2,1.6c0.8,0.5,0.7-0.4,1.4-0.6C974.3,545.4,976.2,544.5,977,543.3z
				 M992.2,538.4c-1.5-0.8-3.5-1.3-4.9-0.9c-1.9,0.6-3.1,2.4-2.6,4.2c0.6,1.9,2.7,2.6,4.5,2c1.2-0.4,2.7-2.2,3.5-3.4
				c0.5-0.8,1.2-0.3,0.9-1.3C993.4,538,992.8,538.7,992.2,538.4z M965.6,536.1c-0.2-2-1.7-3.5-3.6-3.3c-2,0.2-2.9,2.1-2.7,4
				c0.1,1.3,1.6,3,2.7,4.1c0.6,0.6,0.1,1.2,1.1,1.1c0.9-0.1,0.3-0.8,0.7-1.3C964.8,539.5,965.8,537.5,965.6,536.1z M979.2,553.1
				c-1.6-1.2-3.5-0.6-4.8,1c-0.8,1-1,3.2-0.9,4.8c0,0.9-0.8,0.9,0.1,1.6c0.7,0.6,0.8-0.3,1.4-0.4c1.7-0.2,3.6-1,4.5-2.1
				C980.7,556.5,980.7,554.4,979.2,553.1z M979.2,513.9c-1.2,0.4-2.6,2.3-3.3,3.6c-0.5,0.8-1.2,0.4-0.8,1.4c0.3,0.9,0.8,0.1,1.4,0.4
				c1.5,0.7,3.6,1.2,4.9,0.7c1.9-0.7,3-2.5,2.4-4.3C983.1,513.8,981,513.2,979.2,513.9z M995.8,529.7c0.9-0.2,0.3-0.8,0.7-1.4
				c1-1.4,1.8-3.3,1.6-4.7c-0.3-2-1.9-3.4-3.8-3.1c-2,0.3-2.8,2.3-2.5,4.2c0.2,1.3,1.8,2.9,2.9,3.9
				C995.3,529.3,994.9,529.9,995.8,529.7z M1013.3,512.3c0.4-2-0.5-3.9-2.5-4.2c-2-0.4-3.4,1.1-3.8,3c-0.2,1.3,0.6,3.3,1.4,4.7
				c0.4,0.8-0.3,1.2,0.8,1.4c0.9,0.2,0.5-0.6,1.1-1C1011.5,515.2,1013,513.6,1013.3,512.3z M999,557.9c-1.2,0.4-2.6,2.3-3.3,3.6
				c-0.5,0.8-1.2,0.4-0.8,1.4c0.3,0.9,0.8,0.1,1.4,0.4c1.5,0.7,3.6,1.2,4.9,0.7c1.9-0.7,3-2.5,2.4-4.3
				C1002.8,557.8,1000.8,557.2,999,557.9z"/>
			<path fill="#FFFFEA" d="M953.7,550.8c0.2,0,0.4,0,0.6-0.1c0.5-0.1,1.5-0.9,2.6-2.1c-1-0.6-2.2-1-2.8-1c-0.1,0-0.2,0-0.3,0
				c-0.8,0.2-2,0.8-1.7,1.9C952.3,550.7,953.4,550.8,953.7,550.8z M975.3,541.7c0.3-0.5,0.5-1.1,0.4-1.6c-0.1-0.4-0.3-0.8-0.6-1
				c-0.2-0.1-0.5-0.2-0.7-0.2c-0.6,0-1.3,0.4-1.7,1.1c-0.2,0.4-0.4,1.7-0.3,3.2C973.8,543,974.9,542.3,975.3,541.7z M954.7,564.8
				c-0.6,0.1-1.1,0.4-1.4,0.8c-0.3,0.3-0.4,0.7-0.3,1.1c0.2,1.1,1.4,1.2,1.7,1.2c0.2,0,0.4,0,0.6-0.1c0.5-0.1,1.5-0.9,2.6-2.1
				c-1-0.6-2.2-1-2.8-1C954.9,564.7,954.8,564.7,954.7,564.8z M962.1,533.8c-0.1,0-0.1,0-0.2,0c-0.4,0.1-0.7,0.2-1,0.6
				c-0.3,0.4-0.4,1-0.3,1.6c0.1,0.5,0.8,1.6,1.8,2.7c0.8-1.1,1.3-2.4,1.2-3C963.5,534.7,963,533.8,962.1,533.8z M974,529.1
				c0.4-0.1,1.4-1.1,2.4-2.3c-0.9-0.4-2-0.7-2.7-0.7c-0.3,0-0.5,0-0.6,0.1c-0.6,0.2-1.1,0.5-1.3,1c-0.2,0.4-0.3,0.8-0.2,1.2
				c0.3,0.9,1.1,1,1.5,1C973.5,529.2,973.8,529.2,974,529.1z M977.9,553.8c-0.2-0.2-0.5-0.3-0.8-0.3c-0.6,0-1.2,0.4-1.7,1
				c-0.3,0.4-0.6,1.7-0.6,3.2c1.3-0.3,2.6-0.8,2.9-1.4c0.4-0.5,0.6-1,0.6-1.5C978.4,554.4,978.3,554.1,977.9,553.8z M971.6,500.2
				c-1.1,0-1.5,1.1-1.5,2c0,0.5,0.6,1.7,1.5,2.9c0.9-1,1.6-2.2,1.6-2.8C973.2,501.4,972.7,500.2,971.6,500.2z M962.6,516.4
				c-0.4,0-0.7,0.1-1,0.4c-0.3,0.3-0.4,0.7-0.3,1.1c0.1,0.5,0.4,1,0.8,1.4c0.3,0.3,1.6,0.7,3.1,0.8c-0.2-1.3-0.6-2.7-1.1-3
				C963.6,516.7,963,516.4,962.6,516.4z M913.3,533.8c0.2-0.3,0.4-1.2,0.4-2.6c-1.1,0.3-2.1,0.8-2.3,1.1c-0.3,0.4-0.5,0.9-0.4,1.3
				c0,0.3,0.1,0.6,0.4,0.8C912,534.7,912.7,534.5,913.3,533.8z M928.3,519.9c-0.5-0.4-1.1-0.7-1.6-0.7c-0.4,0-0.7,0.1-1,0.5
				c-0.7,0.8-0.2,1.8,0.5,2.5c0.3,0.3,1.6,0.7,3.1,0.8C929.2,521.7,928.8,520.3,928.3,519.9z M917.8,497c-0.3,0.4-0.5,0.9-0.4,1.3
				c0,0.3,0.2,0.6,0.4,0.8c0.2,0.1,0.4,0.2,0.6,0.2c0.5,0,1-0.3,1.3-0.8c0.2-0.3,0.4-1.3,0.4-2.6C919,496.2,918.1,496.7,917.8,497z
				 M980.4,514.7c-0.3,0-0.6,0.1-1,0.2c-0.4,0.2-1.4,1.1-2.3,2.4c0.9,0.3,1.8,0.6,2.6,0.6c0.4,0,0.6-0.1,0.7-0.1
				c0.6-0.2,1-0.6,1.3-1c0.2-0.4,0.3-0.8,0.1-1.2C981.6,514.8,980.9,514.7,980.4,514.7z M958.8,490c-0.4,0-0.9,0.1-1.3,0.4
				c-0.4,0.2-1.2,1.3-1.8,2.7c0.6,0.1,1.2,0.2,1.8,0.2c1,0,1.4-0.2,1.5-0.3c0.5-0.3,0.9-0.7,1.1-1.2c0.2-0.4,0.1-0.8-0.1-1.2
				C959.8,490.2,959.4,490,958.8,490z M928.5,574.4c-0.1,0.5,0,1,0.2,1.3c0.2,0.3,0.4,0.5,0.7,0.5c0.8,0.1,1.3-0.6,1.5-1.4
				c0.1-0.3-0.2-1.3-0.7-2.5C929.3,573.1,928.6,573.9,928.5,574.4z M946.5,506.7c-0.5-0.4-1.1-0.7-1.6-0.7c-0.4,0-0.7,0.1-1,0.4
				c-0.7,0.8-0.2,1.8,0.5,2.5c0.3,0.3,1.6,0.7,3.1,0.8C947.4,508.4,946.9,507.2,946.5,506.7z M946.6,527.9c-0.6,0.1-1.1,0.4-1.4,0.8
				c-0.3,0.3-0.4,0.7-0.3,1.1c0.2,1.1,1.4,1.2,1.7,1.2c0.2,0,0.4,0,0.6-0.1c0.5-0.1,1.5-0.9,2.6-2.1c-1-0.6-2.2-1-2.8-1
				C946.7,527.9,946.6,527.9,946.6,527.9z M944.2,480.9c0.3-0.2,0.4-0.4,0.4-0.8c0-0.4-0.2-0.8-0.5-1.2c-0.2-0.3-1.1-0.7-2.4-1.1
				c0,1.1,0.2,2.2,0.5,2.6c0.4,0.5,0.9,0.8,1.4,0.8C943.8,481,944,481,944.2,480.9z M913.7,548.3c-0.2,0-0.3-0.1-0.5-0.1
				c-0.3,0-1.2,0.1-1.4,0.9c-0.1,0.3,0,0.6,0.2,0.8c0.2,0.3,0.7,0.5,1.1,0.7c0,0,0,0,0.1,0c0.5,0,1.5-0.3,2.4-0.6
				C914.8,549.1,914.1,548.4,913.7,548.3z M995.3,498.2c-0.3-0.5-0.7-0.7-1.3-0.7c-0.4,0-0.9,0.1-1.3,0.4c-0.4,0.2-1.2,1.3-1.8,2.7
				c0.6,0.1,1.2,0.2,1.8,0.2c1,0,1.4-0.2,1.5-0.3C995,500.1,995.7,499.2,995.3,498.2z M994.6,521.5c-0.1,0-0.2,0-0.3,0
				c-1,0.2-1.3,1.3-1.2,2.3c0.1,0.5,0.9,1.6,2,2.7c0.7-1.1,1.2-2.5,1-3.1C996,522.4,995.3,521.5,994.6,521.5z M987.6,538.5
				c-0.6,0.2-1.1,0.5-1.3,1c-0.2,0.4-0.3,0.8-0.2,1.2c0.3,0.9,1.1,1,1.5,1c0.3,0,0.6,0,0.9-0.1c0.4-0.1,1.4-1.1,2.4-2.3
				c-0.9-0.4-2-0.7-2.7-0.7C987.8,538.4,987.7,538.4,987.6,538.5z M1000.3,558.7c-0.3,0-0.6,0.1-1,0.2c-0.4,0.2-1.4,1.1-2.3,2.4
				c0.9,0.3,1.8,0.6,2.6,0.6c0.4,0,0.6-0.1,0.7-0.1c0.6-0.2,1-0.6,1.3-1c0.2-0.4,0.3-0.8,0.1-1.2
				C1001.4,558.8,1000.7,558.7,1000.3,558.7z M999.1,583.4c0,0-0.1,0-0.3,0c-0.6,0-1.4,0.2-2.3,0.5c0.6,0.9,1.4,1.7,1.9,1.8
				c0.2,0.1,0.4,0.1,0.7,0.1c0.3,0,1.1-0.1,1.3-0.8C1000.6,584.1,999.6,583.6,999.1,583.4z M1028.1,548.5c-0.4,0-0.9,0.3-1.3,0.7
				c-0.2,0.2-0.5,1.2-0.7,2.5c1.1-0.2,2.1-0.6,2.4-0.9c0.4-0.5,0.9-1.4,0.2-2C1028.5,548.6,1028.3,548.5,1028.1,548.5z
				 M1019.3,494.6c-0.1,0.7,0.1,1.7,1,1.8c0.8,0.1,1.3-0.7,1.4-1.5c0-0.3-0.2-1.3-0.9-2.5C1020,493.3,1019.4,494.2,1019.3,494.6z
				 M1030.8,521.4c0,0-0.3-0.1-1.1-0.1c-0.5,0-1,0-1.5,0.1c0.4,1,1.1,1.9,1.5,2.1c0.3,0.2,0.7,0.3,1,0.3c0.5,0,0.8-0.2,1-0.6
				C1032.1,522.4,1031.3,521.7,1030.8,521.4z M1006.2,479L1006.2,479c-0.5,0-1.4,0.3-2.5,0.9c0.8,0.8,1.7,1.4,2.1,1.5
				c0.1,0,0.2,0,0.3,0c0.1,0,1.4,0,1.5-1c0-0.3,0-0.6-0.3-0.8C1007.1,479.2,1006.7,479,1006.2,479z M1016.6,559.1
				c-0.6,1-0.9,2-0.8,2.5c0.1,0.8,0.7,1.6,1.5,1.4c0.9-0.2,1-1.2,0.9-1.8C1018,560.9,1017.4,560,1016.6,559.1z M937.6,550.7
				c-0.5,0-0.8,0.2-1.1,0.5c-0.3,0.4-0.5,1-0.4,1.6c0,0.5,0.6,1.7,1.6,2.8c0.9-1,1.5-2.3,1.5-2.9
				C939.1,551.7,938.5,550.7,937.6,550.7z M979.3,485.9c0.6-1.2,0.9-2.6,0.7-3.1c-0.3-1-1-1.6-1.7-1.6c-0.1,0-0.2,0-0.4,0.1
				c-0.4,0.1-0.7,0.4-0.9,0.8s-0.2,1-0.1,1.6C977.3,483.9,978.1,484.9,979.3,485.9z M965.4,591.4c-0.1,0.7,0,1.7,0.9,1.9
				c0.8,0.1,1.3-0.6,1.4-1.4c0.1-0.3-0.2-1.3-0.7-2.5C966.1,590.1,965.5,591,965.4,591.4z M972.5,469.1c-0.8-0.4-1.6-0.6-2.2-0.6
				c-0.1,0-0.2,0-0.3,0c-0.5,0.1-1,0.4-1.2,0.8c-0.1,0.2-0.2,0.5-0.1,0.8c0.2,0.7,0.9,0.8,1.3,0.8c0.2,0,0.4,0,0.6-0.1
				C970.9,470.6,971.7,470.1,972.5,469.1z M954.7,585.7c0,0-0.1,0-0.4,0c-0.6,0-1.4,0.2-2.2,0.4c0.6,1,1.4,1.7,1.8,1.9
				c0.2,0.1,0.5,0.1,0.7,0.1l0,0c0.4,0,1-0.1,1.2-0.7c0.1-0.3,0.1-0.6-0.1-0.9C955.6,586.2,955.2,585.9,954.7,585.7z M1013,535.9
				c-0.4,0-0.7,0.1-1,0.4c-0.3,0.3-0.4,0.7-0.3,1.1c0.1,0.5,0.4,1,0.8,1.4c0.3,0.3,1.6,0.7,3.1,0.8c-0.2-1.3-0.6-2.7-1.1-3
				C1014.1,536.1,1013.6,535.9,1013,535.9z M1010.3,509c-0.1,0-0.2,0-0.3,0c-0.9,0-1.4,0.9-1.6,1.7c-0.1,0.5,0.2,1.8,0.9,3.1
				c1.1-0.8,2-1.9,2.1-2.6C1011.5,510.5,1011.4,509.2,1010.3,509z M974.8,573.1c0,1,0.5,2.1,1.6,2.1v1.7v-1.7c1.1,0,1.5-1.1,1.5-2.1
				c0-0.5-0.6-1.7-1.5-2.9C975.4,571.3,974.8,572.4,974.8,573.1z"/>
		</g>
	</g>
</g>
</svg>
