<?xml version="1.0" encoding="utf-8"?>
<!-- Generator: Adobe Illustrator 17.1.0, SVG Export Plug-In . SVG Version: 6.00 Build 0)  -->
<!DOCTYPE svg PUBLIC "-//W3C//DTD SVG 1.1//EN" "http://www.w3.org/Graphics/SVG/1.1/DTD/svg11.dtd">
<svg version="1.1" id="Layer_1" xmlns="http://www.w3.org/2000/svg" xmlns:xlink="http://www.w3.org/1999/xlink" x="0px" y="0px"
	 viewBox="835 415 250 250" enable-background="new 835 415 250 250" xml:space="preserve">
<g>
	<defs>
		<filter id="Adobe_OpacityMaskFilter" filterUnits="userSpaceOnUse" x="863.5" y="439.8" width="210.2" height="210.2">
			<feColorMatrix  type="matrix" values="1 0 0 0 0  0 1 0 0 0  0 0 1 0 0  0 0 0 1 0"/>
		</filter>
	</defs>
	<mask maskUnits="userSpaceOnUse" x="863.5" y="439.8" width="210.2" height="210.2" id="SVGID_133_">
		<g filter="url(#Adobe_OpacityMaskFilter)">
			
				<radialGradient id="SVGID_1_" cx="126.9814" cy="953.8674" r="24.7127" gradientTransform="matrix(4.32 0 0 -4.32 420 4665.6001)" gradientUnits="userSpaceOnUse">
				<stop  offset="0" style="stop-color:#FFFFFF"/>
				<stop  offset="8.943853e-02" style="stop-color:#F2F2F2"/>
				<stop  offset="0.2569" style="stop-color:#CECECE"/>
				<stop  offset="0.4843" style="stop-color:#949494"/>
				<stop  offset="0.7596" style="stop-color:#464646"/>
				<stop  offset="0.9862" style="stop-color:#000000"/>
			</radialGradient>
			<path fill="url(#SVGID_1_)" d="M1075.3,544.9c0,59-47.8,106.8-106.8,106.8s-106.8-47.8-106.8-106.8s47.8-106.8,106.8-106.8
				C1027.5,438,1075.3,485.8,1075.3,544.9z"/>
		</g>
	</mask>
	<circle mask="url(#SVGID_133_)" cx="968.6" cy="544.9" r="105.1"/>
	<g>
		<path fill="#C9508A" d="M917,475.2c-27.1,0-49,22-49,49c0,27.1,22,49,49,49c27.1,0,49-22,49-49C966.1,497.2,944.1,475.2,917,475.2
			z M917,566.5c-23.3,0-42.1-18.9-42.1-42.1c0-23.3,18.9-42.2,42.1-42.2c23.3,0,42.2,18.9,42.2,42.2
			C959.2,547.6,940.3,566.5,917,566.5z"/>
		<path fill="#FFFFFF" d="M917,480.8c-24.1,0-43.5,19.5-43.5,43.5c0,24.1,19.5,43.5,43.5,43.5c24.1,0,43.5-19.5,43.5-43.5
			C960.5,500.3,941,480.8,917,480.8z M917,563.1c-21.4,0-38.7-17.3-38.7-38.7c0-21.4,17.3-38.7,38.7-38.7
			c21.4,0,38.7,17.3,38.7,38.7C955.8,545.7,938.4,563.1,917,563.1z"/>
		
			<radialGradient id="SVGID_2_" cx="115.0553" cy="958.6473" r="11.2127" gradientTransform="matrix(4.32 0 0 -4.32 420 4665.6001)" gradientUnits="userSpaceOnUse">
			<stop  offset="0.8185" style="stop-color:#FFEDF5"/>
			<stop  offset="0.8579" style="stop-color:#FDE7F0"/>
			<stop  offset="0.9113" style="stop-color:#F6D6E2"/>
			<stop  offset="0.9724" style="stop-color:#ECB9CB"/>
			<stop  offset="1" style="stop-color:#E6AABE"/>
		</radialGradient>
		<path fill="url(#SVGID_2_)" d="M917,476.5c-26.3,0-47.7,21.4-47.7,47.7c0,26.3,21.4,47.7,47.7,47.7c26.3,0,47.7-21.4,47.7-47.7
			C964.6,497.9,943.4,476.5,917,476.5z M917,564.6c-22.3,0-40.4-18.1-40.4-40.4c-0.1-22.3,18.1-40.4,40.4-40.4
			c22.3,0,40.4,18.1,40.4,40.4C957.4,546.5,939.3,564.6,917,564.6z"/>
		<path fill="#DE94B3" d="M948.3,555.5c-0.3,0.3-0.3,0.8,0,1.1s0.8,0.3,1,0c0.3-0.3,0.3-0.8,0-1.1
			C949,555.3,948.6,555.3,948.3,555.5z M917,478.5c-0.4,0-0.7,0.3-0.7,0.7s0.3,0.7,0.7,0.7c0.4,0,0.7-0.3,0.7-0.7
			S917.5,478.5,917,478.5z M917,568.5c-0.4,0-0.7,0.3-0.7,0.7c0,0.4,0.3,0.7,0.7,0.7c0.4,0,0.7-0.3,0.7-0.7
			C917.8,568.8,917.5,568.5,917,568.5z M884.6,555.5c-0.3,0.3-0.3,0.8,0,1.1c0.3,0.3,0.8,0.3,1.1,0s0.3-0.8,0-1.1
			C885.4,555.3,884.9,555.3,884.6,555.5z M884.6,491.9c-0.3,0.3-0.3,0.8,0,1.1c0.3,0.3,0.8,0.3,1.1,0c0.3-0.3,0.3-0.8,0-1.1
			S884.9,491.6,884.6,491.9z M948.3,491.9c-0.3,0.3-0.3,0.8,0,1.1c0.3,0.3,0.8,0.3,1,0c0.3-0.3,0.3-0.8,0-1.1
			S948.6,491.6,948.3,491.9z M871.9,523.5c-0.4,0-0.7,0.3-0.7,0.7c0,0.4,0.3,0.7,0.7,0.7c0.4,0,0.7-0.3,0.7-0.7
			C872.7,523.8,872.4,523.5,871.9,523.5z M962.1,523.5c-0.4,0-0.7,0.3-0.7,0.7c0,0.4,0.3,0.7,0.7,0.7c0.4,0,0.7-0.3,0.7-0.7
			C962.8,523.8,962.5,523.5,962.1,523.5z M876,541.1c-0.4,0.2-0.5,0.6-0.4,1c0.2,0.4,0.6,0.5,1,0.4c0.4-0.2,0.5-0.6,0.4-1
			C876.9,541.1,876.5,540.9,876,541.1z M876.6,508.1c0.2-0.4,0-0.8-0.4-0.9c-0.4-0.1-0.8,0-0.9,0.4c-0.2,0.4,0,0.8,0.4,0.9
			C876,508.8,876.5,508.5,876.6,508.1z M958.3,539.9c-0.4-0.1-0.8,0-0.9,0.4c-0.1,0.4,0,0.8,0.4,0.9c0.4,0.1,0.8,0,0.9-0.4
			C959,540.6,958.8,540.1,958.3,539.9z M934.2,564.2c-0.4,0.2-0.5,0.6-0.4,1c0.2,0.4,0.6,0.5,1,0.4c0.4-0.2,0.5-0.6,0.4-1
			C935,564.2,934.6,564.1,934.2,564.2z M900.2,483.4c-0.2-0.4-0.6-0.5-1-0.4c-0.4,0.2-0.5,0.6-0.4,1c0.2,0.4,0.6,0.5,1,0.4
			C900.2,484.2,900.4,483.7,900.2,483.4z M957.9,507.5c0.4-0.2,0.5-0.6,0.4-1c-0.2-0.4-0.6-0.5-1-0.4c-0.4,0.2-0.5,0.6-0.4,1
			C957.1,507.5,957.6,507.6,957.9,507.5z M900.9,564.7c-0.4-0.1-0.8,0-0.9,0.4c-0.2,0.4,0,0.8,0.4,0.9c0.4,0.1,0.8,0,0.9-0.4
			C901.4,565.2,901.2,564.8,900.9,564.7z M934.1,483.5c0.1-0.4,0-0.8-0.4-0.9c-0.4-0.1-0.8,0-0.9,0.4s0,0.8,0.4,0.9
			C933.5,484,934,483.9,934.1,483.5z"/>
	</g>
	<g>
		<path fill="#C9508A" d="M932.8,447.6c-27.1,0-49,22-49,49c0,27.1,22,49,49,49s49-22,49-49C981.9,469.5,960,447.6,932.8,447.6z
			 M932.8,538.8c-23.3,0-42.1-18.9-42.1-42.2c0-23.3,18.9-42.2,42.1-42.2c23.3,0,42.2,18.9,42.2,42.2
			C975.1,519.9,956.2,538.8,932.8,538.8z"/>
		<path fill="#FFFFFF" d="M932.8,453.2c-24.1,0-43.5,19.5-43.5,43.5c0,24.1,19.5,43.5,43.5,43.5c24.1,0,43.5-19.5,43.5-43.5
			C976.3,472.6,956.9,453.2,932.8,453.2z M932.8,535.4c-21.4,0-38.7-17.3-38.7-38.7s17.3-38.7,38.7-38.7c21.4,0,38.7,17.3,38.7,38.7
			S954.2,535.4,932.8,535.4z"/>
		
			<radialGradient id="SVGID_3_" cx="118.712" cy="965.0287" r="11.2225" gradientTransform="matrix(4.32 0 0 -4.32 420 4665.6001)" gradientUnits="userSpaceOnUse">
			<stop  offset="0.8185" style="stop-color:#FFEDF5"/>
			<stop  offset="0.8579" style="stop-color:#FDE7F0"/>
			<stop  offset="0.9113" style="stop-color:#F6D6E2"/>
			<stop  offset="0.9724" style="stop-color:#ECB9CB"/>
			<stop  offset="1" style="stop-color:#E6AABE"/>
		</radialGradient>
		<path fill="url(#SVGID_3_)" d="M932.8,449c-26.3,0-47.7,21.4-47.7,47.7s21.4,47.7,47.7,47.7c26.3,0,47.7-21.4,47.7-47.7
			S959.2,449,932.8,449z M932.8,537c-22.3,0-40.4-18.1-40.4-40.4c0-22.3,18.1-40.4,40.4-40.4s40.4,18.1,40.4,40.4
			C973.2,519,955.1,537,932.8,537z"/>
		<path fill="#DE94B3" d="M964.1,528c-0.3,0.3-0.3,0.8,0,1.1s0.8,0.3,1.1,0s0.3-0.8,0-1.1S964.4,527.7,964.1,528z M932.8,450.8
			c-0.4,0-0.7,0.3-0.7,0.7s0.3,0.7,0.7,0.7c0.4,0,0.7-0.3,0.7-0.7C933.6,451.2,933.2,450.8,932.8,450.8z M932.8,541
			c-0.4,0-0.7,0.3-0.7,0.7c0,0.4,0.3,0.7,0.7,0.7c0.4,0,0.7-0.3,0.7-0.7C933.6,541.3,933.2,541,932.8,541z M900.4,528
			c-0.3,0.3-0.3,0.8,0,1.1c0.3,0.3,0.8,0.3,1.1,0c0.3-0.3,0.3-0.8,0-1.1S900.7,527.7,900.4,528z M900.4,464.3
			c-0.3,0.3-0.3,0.8,0,1.1c0.3,0.3,0.8,0.3,1.1,0c0.3-0.3,0.3-0.8,0-1.1C901.2,463.9,900.7,463.9,900.4,464.3z M964.1,464.3
			c-0.3,0.3-0.3,0.8,0,1.1c0.3,0.3,0.8,0.3,1.1,0c0.3-0.3,0.3-0.8,0-1.1C964.9,463.9,964.4,463.9,964.1,464.3z M887.8,495.9
			c-0.4,0-0.7,0.3-0.7,0.7s0.3,0.7,0.7,0.7c0.4,0,0.7-0.3,0.7-0.7C888.5,496.3,888.2,495.9,887.8,495.9z M977.9,495.9
			c-0.4,0-0.7,0.3-0.7,0.7s0.3,0.7,0.7,0.7c0.4,0,0.7-0.3,0.7-0.7C978.7,496.3,978.3,495.9,977.9,495.9z M891.8,513.4
			c-0.4,0.2-0.5,0.6-0.4,1c0.2,0.4,0.6,0.5,1,0.4c0.4-0.2,0.5-0.6,0.4-1C892.7,513.4,892.3,513.3,891.8,513.4z M892.5,480.6
			c0.2-0.4,0-0.8-0.4-0.9c-0.4-0.1-0.8,0-0.9,0.4c-0.2,0.4,0,0.8,0.4,0.9C891.8,481.1,892.3,481,892.5,480.6z M974.2,512.4
			c-0.4-0.1-0.8,0-0.9,0.4c-0.2,0.4,0,0.8,0.4,0.9c0.4,0.1,0.8,0,0.9-0.4C974.8,512.9,974.7,512.5,974.2,512.4z M950,536.6
			c-0.4,0.2-0.5,0.6-0.4,1c0.2,0.4,0.6,0.5,1,0.4c0.4-0.2,0.5-0.6,0.4-1C950.8,536.6,950.4,536.4,950,536.6z M916.1,455.7
			c-0.2-0.4-0.6-0.5-1-0.4c-0.4,0.2-0.5,0.6-0.4,1c0.2,0.4,0.6,0.5,1,0.4C916,456.5,916.2,456.1,916.1,455.7z M973.8,479.8
			c0.4-0.2,0.5-0.6,0.4-1c-0.2-0.4-0.6-0.5-1-0.4c-0.4,0.2-0.5,0.6-0.4,1C973,479.8,973.4,480.1,973.8,479.8z M916.7,537
			c-0.4-0.1-0.8,0-0.9,0.4c-0.1,0.4,0,0.8,0.4,0.9c0.4,0.1,0.8,0,0.9-0.4C917.3,537.7,917.1,537.3,916.7,537z M950,455.8
			c0.1-0.4,0-0.8-0.4-0.9c-0.4-0.1-0.8,0-0.9,0.4c-0.1,0.4,0,0.8,0.4,0.9C949.4,456.4,949.8,456.2,950,455.8z"/>
	</g>
	<circle fill="#FF7D40" cx="977" cy="580.6" r="49.4"/>
	<circle fill="#F82100" cx="977" cy="580.6" r="48.6"/>
	
		<radialGradient id="SVGID_4_" cx="128.9412" cy="945.5979" r="10.9701" gradientTransform="matrix(4.32 0 0 -4.32 420 4665.6001)" gradientUnits="userSpaceOnUse">
		<stop  offset="0" style="stop-color:#FC9F77"/>
		<stop  offset="0.1263" style="stop-color:#FCB68F"/>
		<stop  offset="0.254" style="stop-color:#FCAE86"/>
		<stop  offset="0.4604" style="stop-color:#FB996E"/>
		<stop  offset="0.4847" style="stop-color:#FB966B"/>
		<stop  offset="0.6121" style="stop-color:#FC7950"/>
		<stop  offset="0.7251" style="stop-color:#FD673E"/>
		<stop  offset="0.8063" style="stop-color:#FD6138"/>
		<stop  offset="0.8662" style="stop-color:#FD6A41"/>
		<stop  offset="0.9644" style="stop-color:#FE815A"/>
		<stop  offset="0.9954" style="stop-color:#FE8A63"/>
	</radialGradient>
	<circle fill="url(#SVGID_4_)" cx="977" cy="580.6" r="47.4"/>
	<path fill="#FF8D69" d="M989.2,541.6c-3.3-0.7-6.4-0.7-6.7,1.5c-0.3,2.4-1.4,11.6-2.2,20c0.3,2.8,2,4.1,2.7,1.5
		c0.9-3,2.9-8.1,3.7-5.4s2.6,4.5,4.7,4.3s1.7,1,1.8,2.6c0.1,1.4,0.2,3,0.9,4.3c0.8,1.3,2.1,2.2,3.3,3c1.3,0.9,2.6,1,1.3,2.9
		c-1.2,1.8-0.5,4.2,1.3,6.3c1.9,2.1-3.5,1.2-6.6,0.4c-2.5-0.6-2.3,1.3-0.2,3c7.8,3.6,16.6,7.3,18.9,8.3c2.3,0.9,3.8-2.3,4.9-5.9
		c0.5-2.6,0.8-5.4,0.8-8.1C1017.9,562.3,1005.8,546.9,989.2,541.6z M1006.9,604.1c-2-1.4-9.7-7.2-16.7-12.2
		c-2.4-0.8-4.1-0.1-2.4,1.8c2.2,2.3,5.6,6.5,2.9,5.9c-2.8-0.6-5.3,0-6.2,2c-0.9,2-1.8,0.9-3.1,0.2c-1.3-0.6-2.7-1.2-4.2-1.3
		c-1.5,0.1-2.9,0.7-4.2,1.3c-1.4,0.7-2.3,1.8-3.1-0.2c-0.9-2-3.4-2.6-6.2-2c-2.8,0.6,0.6-3.6,2.9-5.9c1.8-1.9,0-2.6-2.5-1.7
		c-7,5-14.8,10.7-16.7,12.2c-1.8,1.3-0.3,3.9,2,6.5c7.3,6.8,17.1,11,27.9,11c10.5,0,20.1-4,27.5-10.5
		C1007,608.3,1008.7,605.5,1006.9,604.1z M960.5,583.3c-3.1,0.8-8.5,1.7-6.6-0.4c1.9-2.1,2.6-4.5,1.3-6.3c-1.2-1.8,0-2,1.3-2.9
		c1.2-0.8,2.5-1.7,3.3-3c0.7-1.3,0.8-2.9,0.9-4.3c0.1-1.5-0.4-2.8,1.8-2.6s3.9-1.7,4.7-4.3s2.9,2.4,3.7,5.4c0.7,2.5,2.4,1.2,2.7-1.5
		c-0.8-8.5-2-17.8-2.2-20.1c-0.3-2.3-3.4-2.3-6.7-1.5c-16.6,5.2-28.7,20.6-28.7,39c0,3.1,0.3,6,1,8.9c1,3.2,2.6,5.9,4.6,5.1
		c2.3-0.9,11.2-4.6,19-8.3C962.8,584.6,963,582.7,960.5,583.3z"/>
	
		<radialGradient id="SVGID_5_" cx="128.9413" cy="945.4089" r="9.0701" gradientTransform="matrix(4.32 0 0 -4.32 420 4665.6001)" gradientUnits="userSpaceOnUse">
		<stop  offset="0.2795" style="stop-color:#BA0000"/>
		<stop  offset="0.4586" style="stop-color:#BE0300"/>
		<stop  offset="0.6496" style="stop-color:#CB0C00"/>
		<stop  offset="0.8454" style="stop-color:#E01A00"/>
		<stop  offset="0.866" style="stop-color:#E31C00"/>
		<stop  offset="0.9427" style="stop-color:#EC2A0C"/>
		<stop  offset="0.9977" style="stop-color:#F43717"/>
	</radialGradient>
	<path fill="url(#SVGID_5_)" d="M988.8,543c-3.2-0.7-6.2-0.7-6.5,1.4c-0.3,2.3-1.3,11.3-2.2,19.4c0.3,2.7,1.9,3.9,2.6,1.5
		c0.8-2.9,2.8-7.8,3.6-5.3c0.8,2.6,2.5,4.4,4.6,4.2c2.1-0.2,1.5,1,1.7,2.5c0.1,1.4,0.2,2.9,0.8,4.2c0.8,1.2,2,2.1,3.2,2.9
		c1.2,0.9,2.5,1,1.3,2.8c-1.2,1.8-0.5,4.1,1.2,6.1c1.8,2.1-3.4,1.2-6.3,0.4c-2.4-0.6-2.2,1.2-0.2,2.9c7.5,3.5,16,7,18.2,8
		c2.2,0.9,3.7-2.2,4.7-5.7c0.5-2.5,0.8-5.2,0.8-7.8C1016.6,563,1004.9,548,988.8,543z M1005.8,603.3c-1.9-1.4-9.3-7-16.2-11.8
		c-2.3-0.8-3.9-0.1-2.3,1.7c2.2,2.2,5.4,6.3,2.8,5.7c-2.7-0.5-5.1,0-6,1.9c-0.9,1.9-1.7,0.9-3,0.2c-1.2-0.6-2.6-1.2-4-1.3
		c-1.4,0.1-2.8,0.7-4,1.3c-1.3,0.7-2.2,1.7-3-0.2c-0.9-1.9-3.3-2.5-6-1.9c-2.7,0.5,0.6-3.5,2.8-5.7c1.8-1.8,0-2.5-2.4-1.7
		c-6.8,4.7-14.2,10.3-16.1,11.8c-1.8,1.3-0.3,3.8,1.9,6.3c7,6.6,16.5,10.6,26.9,10.6c10.2,0,19.5-3.8,26.4-10.2
		C1005.9,607.4,1007.7,604.7,1005.8,603.3z M961.1,583.3c-3,0.7-8.2,1.5-6.3-0.4c1.8-2.1,2.5-4.4,1.2-6.1c-1.2-1.8,0-1.9,1.3-2.8
		c1.1-0.8,2.4-1.7,3.2-2.9c0.6-1.3,0.7-2.8,0.8-4.2c0.1-1.5-0.4-2.7,1.7-2.5c2.1,0.2,3.8-1.7,4.6-4.2c0.8-2.6,2.8,2.3,3.6,5.3
		c0.7,2.4,2.3,1.1,2.6-1.4c-0.7-8.2-1.9-17.1-2.2-19.4c-0.3-2.2-3.3-2.2-6.5-1.4c-16,5-27.7,20-27.7,37.7c0,3,0.3,5.8,0.9,8.6
		c1,3.1,2.5,5.7,4.4,4.9c2.2-0.9,10.7-4.5,18.4-8.1C963.3,584.5,963.5,582.7,961.1,583.3z"/>
	<path fill="#E86900" d="M982.1,604c-0.7,0.1-2.6,3.7-2.3,5.5c0.3,1.8,1.9,3,3.6,2.7c1.7-0.3,2.9-2,2.6-3.7
		C985.7,606.6,983.2,603.7,982.1,604z M958.6,601.8c-1.1,1.3-1,3.4,0.2,4.5c1.3,1.1,3.3,0.9,4.4-0.4s1.5-5.4,0.9-5.9
		C963.4,599.2,959.8,600.3,958.6,601.8z M972.1,604c-1.1-0.2-3.6,2.8-3.8,4.5c-0.3,1.8,0.8,3.4,2.6,3.7c1.7,0.3,3.3-0.9,3.6-2.7
		C974.7,607.7,972.8,604.1,972.1,604z M989.9,599.9c-0.6,0.5-0.2,4.5,0.9,5.9c1.1,1.3,3.2,1.5,4.4,0.4c1.3-1.1,1.4-3.1,0.2-4.5
		C994.4,600.3,990.8,599.2,989.9,599.9z M950.6,568.8c-1.7-0.6-3.5,0.2-4.1,1.8c-0.6,1.7,0.3,3.4,2,4s5.5-0.1,5.9-1.1
		C954.5,572.8,952.2,569.5,950.6,568.8z M957.2,559.1c-1.4-1.1-3.4-0.9-4.4,0.4c-1,1.3-0.8,3.3,0.6,4.4c1.4,1.1,5.5,1.3,5.9,0.7
		C959.9,563.9,958.6,560.3,957.2,559.1z M963.7,552.1c-1.7,0.6-2.5,2.5-1.9,4.1c0.6,1.7,3.9,3.9,4.6,3.7c1-0.4,1.9-4.1,1.2-5.8
		C967.1,552.4,965.4,551.5,963.7,552.1z M948.3,580.1c-1.8,0.3-2.9,2-2.6,3.7c0.3,1.7,2.1,2.8,3.8,2.4c1.8-0.3,4.5-3,4.3-4
		C953.8,581.4,950.1,579.8,948.3,580.1z M1005.6,574.6c1.7-0.6,2.6-2.5,2-4c-0.6-1.7-2.5-2.4-4.1-1.8s-3.9,4-3.6,4.6
		C1000.2,574.5,1004,575.2,1005.6,574.6z M992.2,556.3c0.6-1.7-0.2-3.5-1.9-4.1c-1.7-0.6-3.4,0.3-4,2c-0.6,1.7,0.2,5.5,1.2,5.8
		C988.3,560.2,991.6,557.9,992.2,556.3z M1005.7,580.1c-1.8-0.3-5.5,1.3-5.6,2.1c-0.2,1,2.6,3.7,4.3,4c1.8,0.3,3.5-0.7,3.8-2.4
		S1007.5,580.5,1005.7,580.1z M1001.4,559.6c-1-1.3-3.1-1.5-4.4-0.4c-1.4,1.1-2.7,4.7-2.1,5.6c0.5,0.6,4.5,0.4,5.9-0.7
		S1002.4,560.9,1001.4,559.6z"/>
	<path fill="#FFB500" d="M989.5,552.7c-0.2-0.1-0.3-0.1-0.5-0.1c-0.7,0-1.3,0.5-1.5,1.1c-0.3,0.8,0,2.7,0.3,3.5
		c0.9-0.5,2.4-1.8,2.7-2.5C990.8,554,990.3,553,989.5,552.7z M990.8,600.4c0,1,0.3,2.9,0.8,3.5c0.3,0.4,0.8,0.6,1.3,0.6
		c0.2,0,0.6-0.1,0.9-0.3c0.3-0.3,0.5-0.6,0.5-1s-0.1-0.9-0.4-1.2C993.5,601.3,991.9,600.5,990.8,600.4z M982.2,604.9
		c-0.5,0.9-1.2,2.7-1.1,3.5c0.1,0.9,0.9,1.5,1.9,1.4c0.4-0.1,0.7-0.3,1-0.6c0.3-0.4,0.4-0.8,0.3-1.3
		C984,606.9,982.9,605.5,982.2,604.9z M998.6,559c-0.4,0-0.8,0.1-1.1,0.4c-0.7,0.5-1.4,2.3-1.7,3.2c0.1,0,0.2,0,0.3,0
		c1.4,0,2.9-0.4,3.3-0.7c0.4-0.3,0.6-0.7,0.7-1.1c0.1-0.4,0-0.8-0.3-1.1C999.5,559.2,999.1,559,998.6,559z M1006.2,581.5
		c-0.3-0.4-0.6-0.6-1.1-0.7c0,0-0.1,0-0.2,0c-0.9,0-2.5,0.6-3.3,1c0.6,0.7,2.1,2,2.9,2.1c0.9,0.2,1.9-0.4,2-1.2
		C1006.6,582.3,1006.5,581.9,1006.2,581.5z M1004.8,572.4c0.4-0.2,0.8-0.5,1-0.9c0.2-0.4,0.2-0.8,0.1-1.2c-0.2-0.6-0.8-1-1.5-1
		c-0.2,0-0.4,0-0.6,0.1c-0.7,0.3-2,1.8-2.5,2.7c0.5,0.2,1.4,0.4,2.5,0.4C1004.3,572.5,1004.7,572.4,1004.8,572.4z M955.9,559.5
		c-0.3-0.3-0.7-0.4-1.1-0.4c-0.5,0-0.9,0.2-1.2,0.5c-0.2,0.3-0.4,0.7-0.3,1.1c0.1,0.4,0.3,0.8,0.7,1.1c0.4,0.3,1.9,0.7,3.3,0.7
		c0.1,0,0.2,0,0.3,0C957.3,561.7,956.6,560.1,955.9,559.5z M949.8,569.4c-0.2-0.1-0.4-0.1-0.6-0.1c-0.7,0-1.3,0.4-1.5,1
		c-0.1,0.4-0.1,0.8,0.1,1.2c0.2,0.4,0.5,0.7,1,0.9c0.1,0,0.4,0.1,1.1,0.1l0,0c1,0,2-0.2,2.5-0.4
		C951.6,571.1,950.5,569.7,949.8,569.4z M969.4,607.9c-0.1,0.5,0,0.9,0.3,1.3c0.2,0.3,0.6,0.6,1,0.6c0.8,0.1,1.7-0.5,1.9-1.4
		c0.1-0.8-0.6-2.6-1.1-3.5C970.6,605.5,969.5,606.9,969.4,607.9z M964.4,552.6c-0.2,0-0.3,0-0.5,0.1c-0.8,0.3-1.2,1.2-0.9,2.2
		c0.3,0.7,1.8,2,2.7,2.5c0.3-0.9,0.6-2.7,0.3-3.5C965.7,553,965,552.6,964.4,552.6z M959,603.1c0,0.4,0.2,0.8,0.5,1
		c0.3,0.3,0.7,0.3,1,0.3c0.5,0,1-0.2,1.3-0.6c0.5-0.6,0.8-2.5,0.8-3.5c-1.1,0.2-2.8,0.8-3.3,1.4C959.2,602.2,959,602.7,959,603.1z
		 M948.3,580.8c-0.5,0.1-0.8,0.3-1.1,0.7c-0.2,0.3-0.3,0.7-0.3,1.1c0.1,0.7,0.8,1.2,1.7,1.2l0,0c0.1,0,0.2,0,0.4,0
		c0.8-0.2,2.3-1.3,2.9-2.1c-0.8-0.4-2.3-1-3.3-1C948.4,580.8,948.3,580.8,948.3,580.8z"/>
	
		<linearGradient id="SVGID_6_" gradientUnits="userSpaceOnUse" x1="130.5316" y1="937.6454" x2="129.0191" y2="945.2077" gradientTransform="matrix(4.32 0 0 -4.32 420 4665.6001)">
		<stop  offset="8.806829e-02" style="stop-color:#FF5E38"/>
		<stop  offset="0.2901" style="stop-color:#D34328"/>
		<stop  offset="0.5916" style="stop-color:#971F13"/>
		<stop  offset="0.8138" style="stop-color:#710905"/>
		<stop  offset="0.9307" style="stop-color:#630000"/>
	</linearGradient>
	<path opacity="0.67" fill="url(#SVGID_6_)" enable-background="new    " d="M977,531.3c-27.3,0-49.4,22.1-49.4,49.4
		c0,7.7,1.8,15,5,21.5c4,2.3,12.6,4.3,34.9,2.6c31-2.6,53.1-6.5,58.6-20c0.1-1.3,0.2-2.7,0.2-4C1026.4,553.4,1004.3,531.3,977,531.3
		z"/>
	<path fill="#E2CBB3" d="M905.8,617.8c3.4-6.8-1.4-15.4,3.9-21c5.5-5.9,26.3-19.5,26.3-19.5l-15.1-9.6l-9.6-15.1
		c0,0-13.7,20.9-19.5,26.3c-5.7,5.4-14.1,0.5-21,3.9c-7,3.4-12.8,12.5-5.6,21.6c4.1,6.2,9.2,4.4,13.7,5.3c0.3,4.5-1.5,9.4,5.3,13.7
		C893.7,630.7,902,625.5,905.8,617.8z"/>
	
		<radialGradient id="SVGID_7_" cx="1231.3904" cy="-1653.2067" r="19.2942" gradientTransform="matrix(3.0547 3.0547 3.0547 -3.0547 2262.4167 -8297.4834)" gradientUnits="userSpaceOnUse">
		<stop  offset="2.709790e-02" style="stop-color:#F6A96D"/>
		<stop  offset="0.1509" style="stop-color:#F4A566"/>
		<stop  offset="0.3261" style="stop-color:#F09954"/>
		<stop  offset="0.5308" style="stop-color:#E88636"/>
		<stop  offset="0.6431" style="stop-color:#E37922"/>
		<stop  offset="0.7386" style="stop-color:#D86E1F"/>
		<stop  offset="0.9065" style="stop-color:#BB5016"/>
		<stop  offset="1" style="stop-color:#A83D10"/>
	</radialGradient>
	<path fill="url(#SVGID_7_)" d="M1032.8,456.7c-0.1-0.1-0.8-0.8-0.9-0.9c-27.4-27.4-72.1-26.9-99.9,0.9
		c-14.4,14.5-24.2,27.2-26.3,64.5c-0.9,15.5-2.4,28.1-5,38.3c-1.3,5.2,3,2.9,14.4,14.1c11.4,11.4,9,15.7,14.1,14.4
		c10.2-2.7,22.8-4.1,38.3-5c37.5-2.2,50.1-12,64.4-26.3C1059.7,528.9,1060.1,484.1,1032.8,456.7z"/>
	<path fill="#FFF0DC" d="M903,575.6c-5.1,3.7-10.1,12-17.2,11.2c-9.3-1.1-16.5,0.2-18,5.2c-2,7.1,2,10,6.9,10.5
		c5.9,0.6,12.1,0.1,15.8-3c6.7-5.6,18.4-14.1,21.7-17.7C913.8,580,907.6,572.2,903,575.6z M892.2,605c-2.1,2.2-7.4,5.8-6.9,10
		c0.5,4.2,5.1,6.2,7.3,5.3c2.3-0.8,6.4-3.8,6.3-10.6C898.8,602.8,895.9,600.9,892.2,605z"/>
	
		<linearGradient id="SVGID_8_" gradientUnits="userSpaceOnUse" x1="-292.9432" y1="-1552.5377" x2="-292.9432" y2="-1556.3859" gradientTransform="matrix(4.32 0 0 -4.32 2242.541 -6197.1572)">
		<stop  offset="0" style="stop-color:#8C290F"/>
		<stop  offset="0.1826" style="stop-color:#943011"/>
		<stop  offset="0.4602" style="stop-color:#A94315"/>
		<stop  offset="0.7966" style="stop-color:#CB631D"/>
		<stop  offset="1" style="stop-color:#E37922"/>
	</linearGradient>
	<path fill="url(#SVGID_8_)" d="M1028.7,522.9c0,5.3-23.1,5.7-51.6,5.7s-51.6,0.2-51.6-5.7c0-5.9,23.1-5.7,51.6-5.7
		C1005.5,517.3,1028.7,516.8,1028.7,522.9z"/>
	
		<linearGradient id="SVGID_9_" gradientUnits="userSpaceOnUse" x1="-291.0074" y1="-1541.4673" x2="-291.0074" y2="-1545.3156" gradientTransform="matrix(4.32 0 0 -4.32 2242.541 -6197.1572)">
		<stop  offset="0" style="stop-color:#8C290F"/>
		<stop  offset="0.1826" style="stop-color:#943011"/>
		<stop  offset="0.4602" style="stop-color:#A94315"/>
		<stop  offset="0.7966" style="stop-color:#CB631D"/>
		<stop  offset="1" style="stop-color:#E37922"/>
	</linearGradient>
	<path fill="url(#SVGID_9_)" d="M1019.9,475.1c0,5.3-15.5,5.7-34.5,5.7c-19.1,0-34.5,0.2-34.5-5.7s15.5-5.7,34.5-5.7
		C1004.4,469.5,1019.9,469,1019.9,475.1z"/>
	
		<linearGradient id="SVGID_10_" gradientUnits="userSpaceOnUse" x1="-292.9552" y1="-1547.0026" x2="-292.9552" y2="-1550.8503" gradientTransform="matrix(4.32 0 0 -4.32 2242.541 -6197.1572)">
		<stop  offset="0" style="stop-color:#8C290F"/>
		<stop  offset="0.1826" style="stop-color:#943011"/>
		<stop  offset="0.4602" style="stop-color:#A94315"/>
		<stop  offset="0.7966" style="stop-color:#CB631D"/>
		<stop  offset="1" style="stop-color:#E37922"/>
	</linearGradient>
	<path fill="url(#SVGID_10_)" d="M1028.7,499.1c0,5.3-23.1,5.7-51.6,5.6c-28.5,0-51.7,0.2-51.7-5.6c0-5.9,23.1-5.6,51.7-5.7
		C1005.5,493.4,1028.7,492.9,1028.7,499.1z"/>
	
		<linearGradient id="SVGID_11_" gradientUnits="userSpaceOnUse" x1="-295.6201" y1="-1558.073" x2="-295.6201" y2="-1561.9209" gradientTransform="matrix(4.32 0 0 -4.32 2242.541 -6197.1572)">
		<stop  offset="0" style="stop-color:#8C290F"/>
		<stop  offset="0.1826" style="stop-color:#943011"/>
		<stop  offset="0.4602" style="stop-color:#A94315"/>
		<stop  offset="0.7966" style="stop-color:#CB631D"/>
		<stop  offset="1" style="stop-color:#E37922"/>
	</linearGradient>
	<path fill="url(#SVGID_11_)" d="M999,546.9c0,5.3-15,5.7-33.6,5.7c-18.5,0-33.6,0.2-33.6-5.7c0-5.9,15-5.7,33.6-5.7
		S999,540.8,999,546.9z"/>
	
		<linearGradient id="SVGID_12_" gradientUnits="userSpaceOnUse" x1="128.8625" y1="943.8463" x2="125.479" y2="977.0044" gradientTransform="matrix(4.32 0 0 -4.32 420 4665.6001)">
		<stop  offset="0" style="stop-color:#FF9C35"/>
		<stop  offset="0.1826" style="stop-color:#FFA13D"/>
		<stop  offset="0.4602" style="stop-color:#FFAE52"/>
		<stop  offset="0.7966" style="stop-color:#FFC474"/>
		<stop  offset="1" style="stop-color:#FFD48C"/>
	</linearGradient>
	<path fill="url(#SVGID_12_)" d="M957.1,467.7c3.9-0.3,15.9-0.9,21.5-0.9h27.6c4.2,0,0.6-6.5-5.2-9.4c-5.9-2.9-18.2-6.6-32.1-2.9
		c-13.5,3.5-18.2,9.4-19.8,12.4C947.4,469.6,953.2,468,957.1,467.7z M1018.2,484.5c-1-3.2-8.7-2-15.6-1.7
		c-11.2,0.5-32.7-0.2-39.4-0.3c-6.8-0.2-12.5-2.5-15.1-5.3c-2-2.2,0.6-8.4-5.2-4.9c-5.3,3.3-8.8,10.3-10.9,14.6
		c-2.2,4.3-1,5.2,3,4.6s14.8-1,30.6-1s41.5,0,47.1-0.5C1018.2,489.7,1019.3,487.7,1018.2,484.5z M1012.8,506.6
		c-2.8,0.5-26.3,0.3-37.8,0.3c-11.5,0-34.2-0.3-39.3-0.8c-5.2-0.5-7.4-1.7-8.2,1c-1.3,5-1,10.3,1,9.6c2-0.6,13.7-2.2,50.1-2.2
		s33,1.1,35.3-2.3C1016.3,508.8,1015.6,506.1,1012.8,506.6z M995.8,531.2c-3.5,0.2-28.1-0.2-37.4,0s-21.7-0.8-25.1-1.4
		c-3.3-0.6-6.1-1.7-6.5,0.6c-0.3,2.2-0.3,10.7-1,13.1c-0.6,2.3,2.2,1,5-1c2.8-2,9.3-3.2,19.6-3.2c10.3,0,28.1-0.5,31.9-0.5
		c3.8,0,6.9-0.3,11.5-2.8C998.4,533.4,999.3,531,995.8,531.2z M950.4,555.4c-8.3-0.3-17.9-1.7-22-2.9c-4-1.1-3.1,2-5.4,5.4
		c-1.8,2.7-2.6,4.9,2.3,7.4c4.9,2.6,15.4-4.9,24-6.3C957.7,557.7,958.6,555.7,950.4,555.4z"/>
	<path fill="#FFCC4F" d="M974,506.5c-1.9,0-3.4,1.5-3.4,3.4c0,1.9,1.5,3.4,3.4,3.4s3.4-1.5,3.4-3.4C977.5,508,976,506.5,974,506.5z
		 M987.6,491.4c0-1.9-1.5-3.4-3.4-3.4s-3.4,1.5-3.4,3.4c0,1.9,1.5,3.4,3.4,3.4S987.6,493.3,987.6,491.4z M992.3,499.7
		c-1.9,0-3.4,1.5-3.4,3.4c0,1.9,1.5,3.4,3.4,3.4s3.4-1.5,3.4-3.4C995.7,501.2,994.2,499.7,992.3,499.7z M989.5,521.2
		c-1.9,0-3.4,1.5-3.4,3.4s1.5,3.4,3.4,3.4s3.4-1.5,3.4-3.4S991.4,521.2,989.5,521.2z M953.5,519.4c-1.9,0-3.4,1.5-3.4,3.4
		s1.5,3.4,3.4,3.4s3.4-1.5,3.4-3.4C956.9,520.8,955.3,519.4,953.5,519.4z M962.6,532.7c-1.9,0-3.4,1.5-3.4,3.4s1.5,3.4,3.4,3.4
		s3.4-1.5,3.4-3.4C966,534.2,964.4,532.7,962.6,532.7z M963.4,501.6c0-1.9-1.5-3.4-3.4-3.4s-3.4,1.5-3.4,3.4c0,1.9,1.5,3.4,3.4,3.4
		S963.4,503.5,963.4,501.6z M949.8,482.5c0-1.9-1.5-3.4-3.4-3.4s-3.4,1.5-3.4,3.4c0,1.9,1.5,3.4,3.4,3.4S949.8,484.4,949.8,482.5z
		 M966.8,474.5c-1.9,0-3.4,1.5-3.4,3.4c0,1.9,1.5,3.4,3.4,3.4s3.4-1.5,3.4-3.4C970.2,476,968.7,474.5,966.8,474.5z M975.6,459.6
		c-1.9,0-3.4,1.5-3.4,3.4c0,1.9,1.5,3.4,3.4,3.4s3.4-1.5,3.4-3.4C979,461.2,977.4,459.6,975.6,459.6z M1005.2,469.8
		c0-1.9-1.5-3.4-3.4-3.4s-3.4,1.5-3.4,3.4s1.5,3.4,3.4,3.4C1003.8,473.2,1005.2,471.7,1005.2,469.8z M1005.7,501.1
		c1.9,0,3.4-1.5,3.4-3.4c0-1.9-1.5-3.4-3.4-3.4c-1.9,0-3.4,1.5-3.4,3.4C1002.3,499.7,1003.9,501.1,1005.7,501.1z M1009.9,522.1
		c0-1.9-1.5-3.4-3.4-3.4s-3.4,1.5-3.4,3.4c0,1.9,1.5,3.4,3.4,3.4S1009.9,524,1009.9,522.1z M1008.3,545.7c-1.9,0-3.4,1.5-3.4,3.4
		c0,1.9,1.5,3.4,3.4,3.4s3.4-1.5,3.4-3.4C1011.7,547.2,1010.2,545.7,1008.3,545.7z M948.6,555.7c-1.9,0-3.4,1.5-3.4,3.4
		s1.5,3.4,3.4,3.4s3.4-1.5,3.4-3.4S950.5,555.7,948.6,555.7z M973.3,540.1c-1.9,0-3.4,1.5-3.4,3.4s1.5,3.4,3.4,3.4
		c1.9,0,3.4-1.5,3.4-3.4S975.2,540.1,973.3,540.1z M926.1,533.6c-1.9,0-3.4,1.5-3.4,3.4c0,1.9,1.5,3.4,3.4,3.4
		c1.9,0,3.4-1.5,3.4-3.4C929.5,535.2,928.1,533.6,926.1,533.6z M929.1,499.6c-1.9,0-3.4,1.5-3.4,3.4c0,1.9,1.5,3.4,3.4,3.4
		c1.9,0,3.4-1.5,3.4-3.4C932.5,501,931,499.6,929.1,499.6z M1022.7,483.3c-1.9,0-3.4,1.5-3.4,3.4c0,1.9,1.5,3.4,3.4,3.4
		c1.9,0,3.4-1.5,3.4-3.4C1026.1,484.8,1024.5,483.3,1022.7,483.3z M1020.9,523.7c-1.9,0-3.4,1.5-3.4,3.4s1.5,3.4,3.4,3.4
		s3.4-1.5,3.4-3.4S1022.9,523.7,1020.9,523.7z"/>
	<path fill="#505E12" d="M976.7,485.2c4.6,0.1,11.6-6.8,12-9.8c0.3-2.2-5.9,0.6-6.2-2.1c-0.2-2-0.5-5.5-1.1-7.5
		c-0.3-0.8-0.7-0.9-1.3-0.3c-1.4,1.7-3.1,4.7-4,6.4c-1.3,2.3-5.8-2.9-6.5-0.6c-0.9,2.9,2.8,12,7,13.8
		C976.5,485.2,976.7,485.2,976.7,485.2z M952.9,498.8c-1.8-1.2-2.2,5.5-4.6,4.5c-1.9-0.7-5.1-2.1-7.2-2.4c-0.8-0.1-1.1,0.2-0.8,1
		c0.8,2.1,2.8,4.9,3.9,6.5c1.4,2.2-5.2,3.8-3.5,5.5c2.2,2.2,12,3,15.5,0c0,0,0.1-0.1,0.1-0.2C958.4,509.9,955.4,500.6,952.9,498.8z
		 M996.2,509.4c-2.1-0.7-5.6-1-7.5-1.2c-2.6-0.3,0.4-6.4-2-6.2c-3,0.3-10,7.2-10,11.9v0.2c1.8,4.3,10.7,8,13.7,7.1
		c2.1-0.6-2.8-5.2-0.5-6.5c1.8-0.9,4.9-2.6,6.5-4C997.2,510.1,997.1,509.7,996.2,509.4z M1033,505.9l-0.1-0.1
		c-3.6-1.4-11.2,1.8-12.4,4c-0.9,1.7,4.7,1.3,4.2,3.5c-0.4,1.5-1.3,4.4-1.3,6.2c0,0.7,0.3,0.9,0.9,0.6c1.7-0.8,3.8-2.8,5.2-3.8
		c1.8-1.3,3.6,4,4.9,2.5C1035.9,516.8,1035.8,508.5,1033,505.9z M978.5,548.7c0,0-0.2,0.1-0.1,0.1c-3,2.6-3.5,10.7-2.1,12.9
		c1,1.5,3.4-3.6,5.1-2.2c1.2,1.1,3.3,3.2,5,4.1c0.6,0.4,0.9,0.2,1-0.5c0-1.9-0.7-4.7-1-6.3c-0.4-2.2,5.3-1.3,4.4-3.2
		C989.6,551.2,982.2,547.5,978.5,548.7z M933.9,548.2c0.8-1.4,2.5-3.9,3-5.7c0.2-0.7,0-0.9-0.7-0.8c-1.8,0.3-4.4,1.7-6,2.3
		c-2.1,0.8-2.4-4.9-4-3.7c-2.1,1.5-4.2,9.5-2.3,12.8l0.1,0.1c3.1,2.4,11.3,1.2,13-0.6C938.3,551.3,932.8,550.1,933.9,548.2z"/>
	<path fill="#697812" d="M980.3,552c-0.8,1.1-1.3,3.5-1.4,5.6c0.6-0.4,1.3-0.6,2.2-0.6c0.9,0,1.9,0.3,2.6,1l0.1,0.1V558
		c-0.4-1.9,0.3-3.3,2.3-4.3c-1.7-0.8-3.7-1.7-5.4-1.7C980.5,552,980.4,552,980.3,552z M984.6,478.1c-3.8-0.2-4.4-2.9-4.5-3.8
		c0-0.3-0.1-0.7-0.1-1.1c0-0.2,0-0.4-0.1-0.7c-0.1,0.2-0.2,0.4-0.3,0.6c-0.2,0.4-0.4,0.7-0.5,1c-0.7,1.3-2.1,2.1-3.5,2.1
		c-0.7,0-1.4-0.2-2.2-0.5c0.8,2.6,2.7,6.1,4.4,7.2C979.8,482.5,982.8,480.2,984.6,478.1z M1031.6,509c-0.2,0-0.4,0-0.6,0
		c-1.5,0-3.5,0.6-5.1,1.3c1.8,1.1,2.4,2.6,1.9,4.4v0.1c0,0,0.1,0,0.1-0.1c0.7-0.6,1.5-0.8,2.5-0.8c0.9,0,1.8,0.3,2.5,0.8
		C1032.8,512.7,1032.5,510.2,1031.6,509z M949.1,507.1L949.1,507.1c-0.5,0-1-0.1-1.4-0.3c-0.3-0.1-0.7-0.3-1-0.4
		c-0.2-0.1-0.4-0.2-0.6-0.2c0.1,0.2,0.3,0.4,0.4,0.6c0.2,0.3,0.4,0.6,0.6,0.9c1.7,2.5,0.2,4.5-1.2,5.8c0.9,0.2,2.1,0.3,3.3,0.3
		c2.6,0,4.3-0.5,5.2-1c0.6-2-0.1-5.8-1.1-8.4C952.3,505.9,951.1,507.1,949.1,507.1z M931.8,547.3L931.8,547.3
		C931.8,547.2,931.8,547.3,931.8,547.3c-0.5,0.2-1,0.3-1.7,0.3l0,0c-1.4,0-2.5-0.7-3.1-1.5c-0.5,2-0.8,4.4-0.4,5.8
		c0.6,0.3,1.7,0.5,3.2,0.5c0.9,0,1.9-0.1,2.6-0.2C931.1,550.6,930.9,548.9,931.8,547.3z M988.8,511.6c-3-0.3-3.6-2.8-3.7-4.6
		c-2.1,1.8-4.6,4.9-5,6.9c1,1.7,4.3,3.6,7.1,4.5c-0.6-1.9-0.8-4.2,1.7-5.7c0.3-0.2,0.6-0.3,1-0.5c0.2-0.1,0.4-0.2,0.6-0.3
		c-0.2,0-0.5-0.1-0.7-0.1C989.5,511.8,989.1,511.6,988.8,511.6z"/>
</g>
</svg>
