<?xml version="1.0" encoding="utf-8"?>
<!-- Generator: Adobe Illustrator 17.1.0, SVG Export Plug-In . SVG Version: 6.00 Build 0)  -->
<!DOCTYPE svg PUBLIC "-//W3C//DTD SVG 1.1//EN" "http://www.w3.org/Graphics/SVG/1.1/DTD/svg11.dtd">
<svg version="1.1" id="Layer_1" xmlns="http://www.w3.org/2000/svg" xmlns:xlink="http://www.w3.org/1999/xlink" x="0px" y="0px"
	 viewBox="0 0 250 250" enable-background="new 0 0 250 250" xml:space="preserve">
<g>
	<defs>
		<filter id="Adobe_OpacityMaskFilter" filterUnits="userSpaceOnUse" x="31.4" y="43.9" width="203.5" height="203.5">
			<feColorMatrix  type="matrix" values="1 0 0 0 0  0 1 0 0 0  0 0 1 0 0  0 0 0 1 0"/>
		</filter>
	</defs>
	<mask maskUnits="userSpaceOnUse" x="31.4" y="43.9" width="203.5" height="203.5" id="SVGID_1_">
		<g filter="url(#Adobe_OpacityMaskFilter)">
			<radialGradient id="SVGID_2_" cx="133.1363" cy="145.6142" r="103.4285" gradientUnits="userSpaceOnUse">
				<stop  offset="0" style="stop-color:#FFFFFF"/>
				<stop  offset="8.943852e-02" style="stop-color:#F2F2F2"/>
				<stop  offset="0.2569" style="stop-color:#CECECE"/>
				<stop  offset="0.4843" style="stop-color:#949494"/>
				<stop  offset="0.7596" style="stop-color:#464646"/>
				<stop  offset="0.9862" style="stop-color:#000000"/>
			</radialGradient>
			<circle fill="url(#SVGID_2_)" cx="133.1" cy="145.6" r="103.4"/>
		</g>
	</mask>
	<circle mask="url(#SVGID_1_)" cx="133.1" cy="145.6" r="101.8"/>
	
		<radialGradient id="SVGID_3_" cx="883.6498" cy="2383.6333" r="102.519" gradientTransform="matrix(0.7071 0.7071 -0.7071 0.7071 1168.2285 -2210.5276)" gradientUnits="userSpaceOnUse">
		<stop  offset="2.709790e-02" style="stop-color:#FFDC7D"/>
		<stop  offset="0.1828" style="stop-color:#FDD676"/>
		<stop  offset="0.403" style="stop-color:#F8C464"/>
		<stop  offset="0.6583" style="stop-color:#EFA846"/>
		<stop  offset="0.7528" style="stop-color:#E89D3C"/>
		<stop  offset="0.9191" style="stop-color:#D57F20"/>
		<stop  offset="0.9695" style="stop-color:#CF7516"/>
	</radialGradient>
	<path fill="url(#SVGID_3_)" d="M179.7,174.7c-42,42-87.1,46.5-106.5,27.1c1.8-11.6,22.8-14.6,72.3-64
		c48.1-48.1,51.6-69.7,61.2-69.5C226.8,88.1,220.9,133.5,179.7,174.7z"/>
	<path fill="#FFEDBA" d="M152.9,147.8c-36.9,36.9-72.7,60.8-80,53.5c-5.9-5.9,15-22.4,64.5-71.8c48.1-48.1,63.7-67.1,69-61.7
		C213.8,75.1,189.8,111,152.9,147.8z"/>
	
		<radialGradient id="SVGID_4_" cx="5478.0728" cy="2383.3027" r="102.5165" gradientTransform="matrix(-0.7071 -0.7071 -0.7071 0.7071 5679.0806 2300.3232)" gradientUnits="userSpaceOnUse">
		<stop  offset="2.709790e-02" style="stop-color:#FFDC7D"/>
		<stop  offset="0.1828" style="stop-color:#FDD676"/>
		<stop  offset="0.403" style="stop-color:#F8C464"/>
		<stop  offset="0.6583" style="stop-color:#EFA846"/>
		<stop  offset="0.7528" style="stop-color:#E89D3C"/>
		<stop  offset="0.9191" style="stop-color:#D57F20"/>
		<stop  offset="0.9695" style="stop-color:#CF7516"/>
	</radialGradient>
	<path fill="url(#SVGID_4_)" d="M66.8,61.7c-42,42-46.5,87.1-27.1,106.5c11.6-1.8,14.6-22.8,64-72.3c48.1-48.1,69.7-51.6,69.5-61.2
		C153.3,14.7,107.9,20.6,66.8,61.7z"/>
	<path fill="#FFE2A2" d="M91.3,86.2c-36.7,36.7-59.8,73.2-51.5,81.5c6.7,6.7,22.8-14.5,72-63.7c47.9-47.9,67-63.2,60.9-69.2
		C164.5,26.5,128,49.5,91.3,86.2z"/>
	<path fill="#D6AE89" d="M93.6,88.5c-36.9,36.9-60.8,72.7-53.5,80c5.9,5.9,22.4-15,71.8-64.5c48.1-48.1,67.1-63.7,61.7-69
		C166.3,27.7,130.5,51.6,93.6,88.5z"/>
	<path fill="#D62514" d="M182.4,73.9c0,0,23.1-4.1,19,8c-4.1,12-9.6,18.3-21.2,24.3c-11.6,6-15.7,18.1-21.1,26.6
		c-5.4,8.6-12.4,14-22.2,16.7c-9.8,2.7-12,15.2-17.4,23c-5.4,7.8-12.5,12.5-21.9,16.3c-9.4,3.8-17.2-1.8-10.5-14.9
		C93.9,160.8,182.4,73.9,182.4,73.9z"/>
	<path fill="#9C1200" d="M179,70.5c0,0,23.1-4.1,19,8c-4.1,12-9.6,18.3-21.2,24.3c-11.6,6-15.7,18.1-21.1,26.6
		c-5.4,8.6-12.4,14-22.2,16.7c-9.8,2.7-12,15.2-17.4,23c-5.4,7.8-12.5,12.5-21.9,16.3c-9.4,3.8-17.2-1.8-10.5-14.9
		C90.5,157.5,179,70.5,179,70.5z"/>
	<path fill="#599C00" d="M166.7,58.5c0,0,4.1-23.1-8-19c-12,4.1-18.3,9.6-24.4,21.2c-6,11.6-18.1,15.7-26.6,21.1
		c-8.6,5.4-14,12.4-16.7,22.2c-2.7,9.8-15.2,12-23,17.4c-7.8,5.4-12.5,12.5-16.3,21.9c-3.8,9.4,1.8,17.2,14.9,10.5
		C79.8,147.1,166.7,58.5,166.7,58.5z"/>
	<path fill="#246900" d="M169.4,61.2c0,0,4.1-23.1-8-19c-12,4.1-18.3,9.6-24.4,21.2C131,75,119,79.1,110.4,84.5
		c-8.6,5.4-14,12.4-16.7,22.2c-2.7,9.8-15.2,12-23,17.4c-7.8,5.4-12.5,12.5-16.3,21.9c-3.8,9.4,1.8,17.2,14.9,10.5
		C82.4,149.8,169.4,61.2,169.4,61.2z"/>
	
		<linearGradient id="SVGID_5_" gradientUnits="userSpaceOnUse" x1="880.5518" y1="2381.3677" x2="936.1861" y2="2381.3677" gradientTransform="matrix(0.7071 0.7071 -0.7071 0.7071 1168.2285 -2210.5281)">
		<stop  offset="0" style="stop-color:#C64D21"/>
		<stop  offset="0.1323" style="stop-color:#DE6A40"/>
		<stop  offset="0.2637" style="stop-color:#F07F58"/>
		<stop  offset="0.3861" style="stop-color:#FB8D66"/>
		<stop  offset="0.4908" style="stop-color:#FF916B"/>
		<stop  offset="0.5946" style="stop-color:#F98A63"/>
		<stop  offset="0.7523" style="stop-color:#E9774E"/>
		<stop  offset="0.9435" style="stop-color:#CF572C"/>
		<stop  offset="0.9983" style="stop-color:#C64D21"/>
	</linearGradient>
	<path fill="url(#SVGID_5_)" d="M96.2,180.4c-9.3,9.3-24.4,9.3-33.7,0l-1.4-1.4c-9.3-9.3-9.3-24.4,0-33.7l95.2-95.2
		c9.3-9.3,24.4-9.3,33.7,0l1.4,1.4c9.3,9.3,9.3,24.4,0,33.7L96.2,180.4z"/>
	<linearGradient id="SVGID_6_" gradientUnits="userSpaceOnUse" x1="120.0786" y1="106.8066" x2="138.4011" y2="125.1291">
		<stop  offset="0" style="stop-color:#FFB69C"/>
		<stop  offset="0.2582" style="stop-color:#FFB094"/>
		<stop  offset="0.6495" style="stop-color:#FDA07F"/>
		<stop  offset="1" style="stop-color:#FC8D67"/>
	</linearGradient>
	<path fill="url(#SVGID_6_)" d="M88.1,169.2c-5.1,5.1-13.4,5.1-18.5,0l-0.7-0.7c-5.1-5.1-5.1-13.4,0-18.5l94.4-94.4
		c5.1-5.1,13.4-5.1,18.5,0l0.7,0.7c5.1,5.1,5.1,13.4,0,18.5L88.1,169.2z"/>
	<path fill="#C94926" d="M83.6,180.7c-0.8-0.8-1.4-1.7-1.8-2.8c-4.3-11.5-6.2-33.6,7.3-44.2c9.8-7.7,18.9-7.5,26.3-7.3
		c6.4,0.2,10.6,0.3,15.5-4.2c3.8-3.4,3.8-7.1,3.5-14.5c-0.4-7.8-0.9-18.5,8.3-27.7c16.3-16.3,41-3.7,42-3.1c3.8,2,5.3,6.7,3.3,10.6
		c-2,3.8-6.7,5.3-10.5,3.3c-0.3-0.1-15.6-7.8-23.7,0.3c-4.1,4.1-4.1,8.5-3.8,15.9c0.4,7.8,0.9,18.4-8.6,26.9
		c-9.6,8.6-18.9,8.3-26.4,8.1c-6.3-0.2-10.8-0.3-16.2,3.9c-5.6,4.4-5.7,17.4-2.4,26.3c1.5,4-0.5,8.6-4.5,10.1
		C88.9,183.6,85.7,182.8,83.6,180.7z"/>
	<path fill="#FFBD21" d="M80.3,175.1c-0.8-0.8-1.4-1.7-1.8-2.8c-4.3-11.5-6.2-33.6,7.3-44.2c9.8-7.7,18.9-7.5,26.3-7.3
		c6.4,0.2,10.6,0.3,15.5-4.2c3.8-3.4,3.8-7.1,3.5-14.5c-0.4-7.8-0.9-18.5,8.3-27.7c16.3-16.3,41-3.7,42-3.1c3.8,2,5.3,6.7,3.3,10.6
		c-2,3.8-6.7,5.3-10.5,3.3c-0.3-0.1-15.6-7.8-23.7,0.3c-4.1,4.1-4.1,8.5-3.8,15.9c0.4,7.8,0.9,18.4-8.6,26.9
		c-9.6,8.6-18.9,8.3-26.4,8.1c-6.3-0.2-10.8-0.3-16.2,3.9c-5.6,4.4-5.7,17.4-2.4,26.3c1.5,4-0.5,8.6-4.5,10.1
		C85.6,178,82.4,177.2,80.3,175.1z"/>
	<path fill="#FFF278" d="M83.7,170.3c-0.3-0.3-0.6-0.7-0.8-1.2c-3.9-10.3-5.7-30,5.9-39.2c8.6-6.7,16.5-6.5,23.4-6.3
		c6.6,0.2,12.4,0.3,18.6-5.3c5.5-5,5.3-10.7,4.9-18c-0.4-7.8-0.8-16.6,7-24.4c14.1-14.1,35.9-2.8,36.9-2.3c1.7,0.9,2.3,3,1.4,4.6
		c-0.9,1.7-2.9,2.3-4.6,1.4l0,0c-0.2-0.1-18.3-9.4-28.8,1.1c-5.7,5.7-5.4,12-5.1,19.2c0.4,7.6,0.8,16.3-7.2,23.4
		c-8.3,7.4-16.3,7.2-23.3,7c-6.6-0.2-12.4-0.3-19,4.9c-8.2,6.5-7.1,22.5-3.8,31.4c0.7,1.8-0.2,3.7-2,4.4
		C86,171.6,84.6,171.2,83.7,170.3z"/>
</g>
</svg>
