<?xml version="1.0" encoding="utf-8"?>
<!-- Generator: Adobe Illustrator 17.1.0, SVG Export Plug-In . SVG Version: 6.00 Build 0)  -->
<!DOCTYPE svg PUBLIC "-//W3C//DTD SVG 1.1//EN" "http://www.w3.org/Graphics/SVG/1.1/DTD/svg11.dtd">
<svg version="1.1" id="Layer_1" xmlns="http://www.w3.org/2000/svg" xmlns:xlink="http://www.w3.org/1999/xlink" x="0px" y="0px"
	 viewBox="0 0 300 300" enable-background="new 0 0 300 300" xml:space="preserve">
<path fill="#FFFFFF" d="M8.1,157.2C8.1,75,68.4,13.3,144.5,13c76.1-0.3,137.4,61.1,137.5,136.9c0.1,36.9-13.1,68.8-38.7,95.4
	c-23.5,24.3-52.3,38.5-86.1,41.3c-42.5,3.5-79.3-10-109.4-40.1C21.5,219.9,8.7,187.4,8.1,157.2z M179.7,191.2
	c0.2,0.9,0.5,1.9,0.6,2.8c0.3,2.4,1.1,4.6,2.2,6.8c2,3.8,4.8,6.9,7.9,9.8c3.7,3.5,7.4,7.1,11.2,10.6c3.6,3.3,7.3,6.5,11,9.8
	c2.4,2.1,4.8,4.1,7.3,6.1c0.8,0.7,1.9,0.9,2.8,0.4c1-0.6,2-1.4,2.8-2.2c3.4-3.5,6.8-6.9,9.9-10.7c3-3.7,5.7-7.7,8.4-11.6
	c1.6-2.4,2.8-5,4.2-7.4c0.4-0.8,0.3-1.5-0.3-2.1c-0.7-0.7-1.5-1.4-2.3-1.9c-2.4-1.6-4.8-3.2-7.2-4.9c-6-4.2-12.1-8.5-18.1-12.7
	c-2.1-1.4-4-3.1-6.2-4.3c-2.7-1.5-5.6-2.7-8.4-4.1c-3.7-1.8-7.4-2.5-11.5-1.7c-3.9,0.8-7.1,2.8-9.5,5.9
	C181.7,183,179.9,186.7,179.7,191.2z M216.1,152.2c0-0.1,0-0.2,0-0.3c0.8,0,1.6,0.1,2.3,0c3.2-0.4,6.4-0.7,9.7-1.1
	c2.9-0.4,5.8-0.8,8.7-1.3c3.3-0.6,6.6-1.3,9.9-2c4-0.9,8-1.8,12-2.7c1.8-0.4,3.1-2,2.9-3.4c-0.3-2.6-0.5-5.2-0.9-7.8
	c-0.7-3.9-1.4-7.8-2.3-11.7c-1.3-5.7-3.3-11.3-5.5-16.7c-0.9-2.2-1.3-2.5-3.6-1.8c-2,0.6-3.9,1.3-5.9,1.8c-2.4,0.7-4.9,1.3-7.4,1.9
	c-4.4,1.1-8.9,2-13.3,3.2c-6.3,1.7-12.5,3.8-18.1,7.1c-3.7,2.1-7.2,4.6-9.4,8.4c-1.7,2.9-3,6.1-2.7,9.6c0.2,2.1,0.4,4.2,1.1,6.1
	c1.6,4.7,5.1,7.8,9.8,9.4c1.2,0.4,2.3,0.8,3.6,0.9C210,151.9,213,152,216.1,152.2z M110.3,190.7c-0.2-2.4-0.7-5.2-2.5-7.7
	c-1.8-2.6-3.8-4.8-6.7-6.1c-4.3-1.9-8.7-2.8-13.3-1.3c-2.3,0.7-4.7,1.3-6.7,2.5c-7.8,5-15.5,10.1-23.2,15.4c-4.4,3-8.7,6.4-13,9.6
	c-1.7,1.3-2.9,3-1.3,5.8c1.9,3.1,3.9,6.1,6,9.1c4.6,6.5,10,12.4,15.8,17.8c2.3,2.1,4,2.2,6.5,0.3c2-1.6,4-3.2,5.9-4.9
	c7.6-6.8,15.7-13.2,22.4-20.9c2.4-2.7,4.9-5.5,6.9-8.5C109.3,198.6,110,195,110.3,190.7z M147.3,267c0,0,0,0.1,0,0.1
	c1.1-0.1,2.2-0.1,3.2-0.2c4.4-0.5,8.9-0.9,13.3-1.6c2.3-0.3,2.8-1.1,2.9-3.4c0.1-1.2,0.1-2.4,0-3.6c-0.4-5.1-0.9-10.3-1.3-15.4
	c-0.4-4.6-0.7-9.2-0.9-13.8c-0.4-6-1.5-11.8-3.1-17.6c-0.5-1.9-1-4-2.2-5.4c-1.6-2-3.7-3.8-6.2-4.8c-3.4-1.4-6.8-2.2-10.5-1.5
	c-4.2,0.9-7.6,3-10.4,6.1c-0.2,0.2-0.4,0.5-0.6,0.7c-3.1,5.2-4.7,11-5.3,16.9c-0.6,5-0.9,10-1.2,15c-0.3,4.8-0.6,9.6-0.9,14.4
	c-0.1,1.7,0.1,3.3,0.2,5c0,1.5,0,3,0,4.5c0,1.4,0.5,2.6,1.8,3.2c1.2,0.5,2.6,0.8,4,0.9c4.4,0.3,8.7,0.5,13.1,0.7
	C144.5,267.4,145.9,267.1,147.3,267z M116.2,107.2c2.1,0.5,4.1-0.5,6-1.1c3-1,5.4-2.9,7.1-5.4c2.1-3.2,3.4-6.9,3.1-10.9
	c-0.1-1.5-0.2-3.1-0.5-4.6c-0.6-3.1-1.2-6.2-2.2-9.2c-1.6-4.7-3.4-9.3-5.2-14c-1.5-3.9-3.1-7.8-4.7-11.7c-1-2.3-2.2-4.6-3.3-6.9
	c-0.7-1.4-1.3-2.9-2.1-4.2c-0.5-1-1.8-1.3-2.8-1c-6.5,2.1-12.9,4.5-19.1,7.5c-5.4,2.7-10.6,5.7-15.5,9.3c-0.4,0.3-0.9,1.1-0.8,1.6
	c0.3,1.4,0.7,2.8,1.3,4.2c0.9,1.9,1.9,3.7,2.9,5.5c2.7,4.9,5.3,9.8,8.1,14.6c3.7,6.2,6.9,12.8,11.8,18.2c1.9,2.2,4.1,4.3,6.6,5.8
	C109.6,106.6,112.7,108,116.2,107.2z M75.1,153.1c0-0.1,0-0.1,0-0.2c0.5,0,0.9,0,1.4,0c2.5-0.2,5.1-0.3,7.6-0.7
	c2.8-0.4,5.1-2.1,7.3-3.8c2-1.5,3.6-3.5,4.5-5.7c1.1-2.6,1.5-5.4,1.3-8.3c-0.4-5.5-3-9.6-7.4-12.7c-4.5-3.1-9.4-5.4-14.6-6.9
	c-8.1-2.3-16.2-4.7-24.4-7.1c-3.5-1-7-2.2-10.6-3.3c-1.6-0.5-2.4-0.1-3.1,1.3c-0.5,0.9-1,1.9-1.3,2.8c-2.2,6.2-4.2,12.4-5.3,18.8
	c-0.6,3.5-1.1,7-1.6,10.5c-0.2,1.6-0.1,3.2-0.4,4.8c-0.6,2.6,1.2,3.8,3,4.1c1.3,0.2,2.6,0.3,3.9,0.5c3.1,0.5,6.2,1.1,9.3,1.6
	c7.5,1.2,15.1,2.3,22.6,3.4C69.9,152.7,72.5,152.8,75.1,153.1z M156.5,90.8c0,0.8-0.2,1.7,0,2.4c1.2,5.1,3.9,9.3,8.5,11.9
	c1.4,0.8,3.1,1.5,4.7,1.7c1.6,0.3,3.3,0.1,5-0.1c3.5-0.5,6.7-1.6,9.4-4.1c4.7-4.3,8.2-9.6,11.3-15c4.4-7.6,8.8-15.2,13.1-22.9
	c1.4-2.5,2.7-5,4.1-7.5c0.5-0.9,0.4-2.4-0.2-2.8c-1.3-0.9-2.5-1.8-3.8-2.6c-4-2.3-8-4.6-12.1-6.8c-6.4-3.4-13.1-5.8-20.1-7.7
	c-1-0.3-1.6-0.1-2,0.9c-0.9,2.1-1.9,4.1-2.7,6.2c-1.9,4.5-3.7,8.9-5.4,13.4c-2.5,6.6-4.9,13.3-7.3,19.9
	C157.4,82.1,156.4,86.4,156.5,90.8z M258.2,153.6C258.2,153.6,258.2,153.5,258.2,153.6c-0.5-0.1-1-0.1-1.4,0
	c-3.3,0.9-6.5,1.7-9.7,2.7c-4.8,1.4-9.6,2.9-14.3,4.5c-3.6,1.2-7.2,2.8-10.8,4c-2.5,0.8-2.2,2.5-1.1,3.9c3.9,4.8,8.5,8.9,13.3,12.9
	c2.3,1.9,4.7,3.8,7,5.7c2.5,2.1,5,4.2,7.6,6.3c1.2,1,2.6,1,3.9,0.6c0.7-0.2,1.2-1.3,1.5-2.1c1.9-5.1,3.5-10.2,4.6-15.6
	c1.5-7,2.5-14.1,2.9-21.2c0.1-1.4-0.7-2-2-1.7C259.1,153.6,258.7,153.6,258.2,153.6z M209.7,101.8c3.3-0.4,6.6-0.8,9.9-1.3
	c3.4-0.5,6.8-1.2,10.2-1.8c3.1-0.6,6.2-1.3,9.3-1.9c2.4-0.5,4.7-1,7.1-1.6c1.4-0.4,1.7-1,1-2.3c-4-7.2-8.8-14-14.3-20.1
	c-3.5-3.8-7.2-7.4-10.8-11.1c-1.3-1.3-2-1.1-2.7,0.6c-0.6,1.3-1.1,2.6-1.7,3.9c-2.4,5.1-4.9,10.2-7.2,15.4c-1.4,3.1-2.8,6.2-3.9,9.4
	c-0.6,1.6-0.8,3.3-1,5c-0.1,1-0.3,2.2,0,3.2C206,101.1,207.5,102,209.7,101.8z M175,258.3c0,0,0.1,0,0.1,0c0,0.9,0,1.7,0,2.6
	c0,1,0.6,1.5,1.5,1.6c0.5,0.1,1,0,1.5-0.1c5.9-1.4,11.5-3.6,16.9-6.4c4-2.1,8-4.2,12-6.4c2.2-1.3,4.3-2.8,6.4-4.3
	c1.6-1.1,1.6-1.9,0.1-3c-2.2-1.7-4.4-3.3-6.7-5c-2.6-1.9-5.2-3.9-7.8-5.7c-3.9-2.7-7.9-5.2-11.8-7.8c-2-1.3-4-2.6-6.1-3.9
	c-1.3-0.8-2.3-0.6-3.1,0.6c-0.5,0.8-0.9,1.8-1,2.8c-0.3,3.2-0.5,6.5-0.7,9.8c-0.2,3-0.3,6-0.4,9c-0.1,2.2,0,4.4-0.1,6.5
	C175.6,251.8,175.3,255,175,258.3z M79.8,102.9c2.9,0,4.3-1.6,3.7-3.9c-0.7-2.8-1.4-5.6-2.6-8.3c-3.7-8.8-7.5-17.5-11.3-26.2
	c-0.9-2.1-1.9-2.3-3.6-0.7c-4.8,4.4-9.1,9.2-13.1,14.3c-3.8,4.8-7,10-10,15.3c-1,1.8-0.5,3,1.5,3.7c0.3,0.1,0.7,0.2,1,0.2
	c1,0.1,2.1,0.2,3.1,0.4c2.8,0.5,5.5,1.2,8.3,1.7c4.8,0.8,9.7,1.6,14.6,2.3C74.3,102.1,77.3,102.5,79.8,102.9z M114.7,252.3
	C114.7,252.3,114.7,252.3,114.7,252.3c-0.1-0.7-0.2-1.4-0.2-2.1c-0.3-9-0.6-18.1-1.7-27.1c-0.2-1.4-2-2.9-3.3-2.4
	c-1.2,0.4-2.5,0.9-3.6,1.6c-4,2.7-8,5.4-11.9,8.2c-5.2,3.7-10.4,7.6-15.6,11.4c-2.2,1.6-2.2,3.3,0.2,4.8c4.6,2.8,9.1,5.5,13.8,8.1
	c5.7,3.2,11.9,5.5,18.3,6.9c2.4,0.5,4-0.9,4-3.3C114.7,256.3,114.7,254.3,114.7,252.3z M68.5,168.3c-0.4-0.7-0.6-1.6-1.1-2.1
	c-0.6-0.6-1.4-0.9-2.2-1.2c-6.6-2-13.2-4-19.9-5.9c-4.9-1.4-9.9-2.5-14.8-3.8c-0.9-0.2-2,0.4-2,1.2c-0.1,1.1-0.2,2.2-0.2,3.3
	c0.2,2.1,0.4,4.2,0.7,6.2c1,6,2.3,12,4.2,17.8c1.1,3.4,2.4,6.8,3.8,10.2c0.8,1.9,2.1,2.2,3.6,1.1c1.3-1,2.6-2,3.9-3.1
	c5.6-5,11.2-10.1,16.8-15.1c2.3-2.1,4.7-4,6.3-6.6C67.9,169.7,68.1,169.1,68.5,168.3z M146.9,33.3c-4.6,0.3-9.1,0.5-13.6,0.9
	c-3,0.2-5.9,0.7-8.8,1.1c-1.4,0.2-1.8,1-1.2,2.3c0.6,1.3,1.2,2.6,1.9,3.9c3.1,5.7,6.1,11.5,9.3,17.1c2.2,3.9,4.6,7.7,7,11.5
	c1.1,1.8,3.8,1.9,5.1,0.3c0.6-0.8,1.3-1.5,1.8-2.4c3.1-5.4,6.2-10.9,9.2-16.4c2-3.6,3.8-7.3,5.8-10.9c0.9-1.6,1.4-3.3,0.5-5.1
	c-0.2-0.3-0.6-0.7-1-0.8c-1.9-0.3-3.8-0.6-5.7-0.8C153.7,33.8,150.3,33.6,146.9,33.3z"/>
</svg>
